<?xml version="1.0" encoding="UTF-8"?>
<svg id="Layer_1" xmlns="http://www.w3.org/2000/svg" version="1.1" viewBox="0 0 1254 1254">
  <defs>
    <style>
      .st0 {
        fill: #f2b7c6;
      }

      .st1 {
        fill: #0b3d2e;
      }

      .st2 {
        fill: #7fbe8a;
      }

      .st3 {
        fill: #e96da0;
      }
    </style>
  </defs>
  <path class="st0" d="M1030,799c-58.4,52.3-153.1,52.7-211.1,1.6l-136.9-135.1,133.5-131.5c64-56.1,155.4-52.9,218.8,1.2l130.3,130.5-134.7,133.3Z"/>
  <path class="st2" d="M435.9,807.6c-58.8,43.8-142.3,39.2-200.9-5.4l-137-136,140.9-135c63.3-48.1,145.5-47.5,206.2,4.9l131.6,128.7-140.7,142.8Z"/>
  <g>
    <path class="st3" d="M631.1,611.7c-38.4-38.7-71.6-74.1-109.1-108.2-71.9-65.1-81.9-174.7-12-244.2l122.3-121.8,130.8,133c54.8,63.2,51.3,146.5-1.3,209.7l-130.7,131.5Z"/>
    <path class="st1" d="M750.1,838.2c64.1,63.6,65.3,172.1,3.8,234.5-64.7,65.7-165.8,70.3-233.4,9.7-66.8-59.9-77.9-161.9-16.1-232.8l127-129.1,118.7,117.7Z"/>
  </g>
</svg>