<?xml version="1.0" encoding="UTF-8"?>
<svg id="Layer_1" xmlns="http://www.w3.org/2000/svg" version="1.1" viewBox="0 0 1254 1254">
  <defs>
    <style>
      .st0 {
        fill: #f2b7c6;
      }

      .st1 {
        fill: #0b3d2e;
      }

      .st2 {
        fill: #7fbe8a;
      }

      .st3 {
        fill: #e96da0;
      }
    </style>
  </defs>
  <path class="st3" d="M146.2,851.8c-19.2-104.2-15-209.5,15.3-310.1,37.6-124.7,116.6-233.2,229.3-299.5,79.5-46.7,161-63.2,252.9-63.5l93.7-.3c43.9-.2,86.5-5,129.2-14.5,42.7-9.5,82.9-24.4,120.8-45.8,46.1-26,84.5-61.3,114.3-105.6-2.9,93.4-34.3,175.2-94.2,245.6-41,47.4-90.7,86.5-146.6,114.6-52.2,26.2-108.4,39.4-166.7,40.2l-81.2,1.1c-69.7,3-135.9,22.4-196.2,57.4-100.7,58.6-175.9,147.6-224.2,253.1-18.8,41.2-33.1,83-46.4,127.3h.1Z"/>
  <g>
    <path class="st1" d="M213.9,1248.2c.8-25.5,6.6-49.1,14.5-73,33.8-103.2,119.2-193.4,213.8-244.8,51.5-28,107.1-42.8,165.6-44.7,28-.9,54-2.6,81.5-6.6,65.3-9.4,126.9-33.2,182.6-68.5,101.5-64.4,180.7-158.3,228.2-268.5l21.6-55.6c4.2,48.8,6.2,95.3,4.7,143.3-1.6,49.9-7.3,98.2-19.3,146.5-48.4,195.2-207.3,342.5-409.8,360.1-31.6,2.7-62.1,3-94.1,2.3l-99.4-2.2c-49.6-1.1-97.9,6.7-144.8,22.2-54.7,18.4-103.2,47.6-145.2,89.4h0Z"/>
    <path class="st2" d="M186.7,1184c-10.6-68.6-12.7-140.6.8-210,3.5-20.1,10.6-37.1,20.7-54.6,16.4-28.6,35.3-54.8,57.4-79.7,57.1-64.1,125.4-118,201.4-158,51.4-27.1,106.6-41.7,164.5-45l73.2-4.2c60.4-4.9,118.2-20.6,173.1-46.1,88.3-41.2,174.6-106.3,225.5-191.1-4.3,37.7-11.1,73-21.5,108.4-11.9,39.9-29.2,76.3-52.7,110.8-42.5,62.6-97.7,116.2-161.7,156.6-41.3,26-85.8,45.1-133.4,56.2-33,7.7-65.3,10.3-99.1,10.9-33.8.6-61.4,2.4-92.3,9.3-48.9,10.9-94.3,30.6-136.7,57.3-69.7,43.9-132.1,105.2-174.6,176.1-19.6,32.2-33.8,65.3-44.5,103.2h0Z"/>
    <path class="st0" d="M438.1,657.1c-106.6,51.6-208.3,139-261.3,245.9-.3-99.6,41.1-196.1,102.8-272.1,45.6-56.1,100.8-103.6,164-138.5,63.2-34.9,107.8-45.3,166.5-48.3l84.9-1.8c78.2-.2,153.2-21,220.5-60.4,84.7-49.6,148.9-111.8,195.1-199.8,2.1,35.7.6,69.4-4.6,103.6-12.1,84.7-58.4,147.2-125.4,197.9-38.5,29.1-79.3,54.3-122.3,76.2s-125.3,47.2-193,49.3l-69.8,3.5c-54.9,4.8-107.7,20.2-157.5,44.3h.1Z"/>
  </g>
</svg>