<?xml version="1.0" encoding="UTF-8"?>
<svg id="Layer_1" xmlns="http://www.w3.org/2000/svg" version="1.1" viewBox="0 0 2500 1000">
  <!-- Generator: Adobe Illustrator 30.3.0, SVG Export Plug-In . SVG Version: 2.1.3 Build 182)  -->
  <defs>
    <style>
      .st0 {
        fill: #f2b7c6;
      }

      .st1 {
        fill: #f7dde2;
      }

      .st2 {
        fill: #d94b87;
      }

      .st3 {
        fill: #f6f0d8;
      }

      .st4 {
        fill: #0b3d2e;
      }

      .st5 {
        fill: #c4e3a1;
      }

      .st6 {
        fill: #ee8fb0;
      }

      .st7 {
        fill: #2e7d4f;
      }

      .st8 {
        fill: #7fbe8a;
      }

      .st9 {
        fill: #145a3a;
      }

      .st10 {
        fill: #e96da0;
      }

      .st11 {
        fill: #4ea36a;
      }
    </style>
  </defs>
  <g>
    <path class="st2" d="M22,1769.6H-14.8l1.3-2531.1h254.6v.4c-37.3,207.8-45.5,421.1-26.6,639.5,12,66.5,13.8,142,7,225.4-6.2,49.9-16.1,97.7-40.6,137.1-51.6,112.8-88.4,281-90.6,449.1-6.4,104.5-18.1,201-33.7,291.6-19.1,85.9-7.8,190.3,11,326.9,3.6,152.9-1.3,242.4-11.3,293.3-12,78.9-23.4,133.2-34.4,167.8h.1Z"/>
    <path class="st10" d="M508.8,1769.8l-486.8-.2c11-34.7,22.4-89,34.4-167.8,10.1-50.9,15-140.4,11.3-293.3-18.8-136.5-30.1-241-11-326.9,15.6-90.5,27.3-187.1,33.7-291.6,2.1-168,39-336.3,90.6-449.1,24.5-39.5,34.4-87.2,40.6-137.1,6.8-83.4,4.9-158.9-7-225.4-19-218.4-10.7-431.7,26.6-639.5v-.2h81.7v.2c-20.9,68.5-36.2,313.8-25.3,371.3,12.9,150.5,46,311.7,78.9,498.4,14.7,70.6,20.6,157.2,16.6,261.8,3.1,105.1-54.3,252.1-63.6,426.6-7.6,135.4,1.6,262.1,24,382,31.3,143.1,70.6,262.5,106,376.4,23.8,77.8,40.5,149.6,49.2,214.4h0Z"/>
    <path class="st6" d="M656.5,1769.9h-147.8c-8.7-64.9-25.5-136.6-49.2-214.4-35.4-113.9-74.7-233.3-106-376.4-22.5-119.9-31.7-246.6-24-382,9.3-174.5,66.7-321.5,63.6-426.6,4-104.5-1.9-191.2-16.6-261.8-32.9-186.7-66.1-347.9-78.9-498.4-10.9-57.5,4.4-302.9,25.3-371.3v-.2h278.7c13.9,30.5,24.2,66.9,31.9,107.9,10.1,63.8,3.8,109.4-9.4,146.9-17,61.9-49.6,174-77.9,276.3-7.2,41.3-2.9,78.1,10.3,111.3,20,46.5,79.7,152.8,109.2,245.5,16.7,63.6,25.2,130.3,28.5,198.9,10.8,121.4,18.9,233.7,24.4,337.2,1.2,92.1-9.4,173.1-26.5,247.9-31.1,110.3-55.6,224.4-76.7,340.4-31.6,129.7-22,241-1.7,347.7,15.3,68.4,29.8,127.2,43,171.2h-.2Z"/>
    <path class="st0" d="M852,1770h-195.4c-13.2-44.1-27.7-103-43-171.3-20.3-106.6-29.9-218,1.7-347.7,21.2-116,45.7-230.1,76.7-340.4,17.1-74.8,27.6-155.8,26.5-247.9-5.5-103.5-13.6-215.8-24.4-337.2-3.3-68.6-11.8-135.2-28.5-198.9-29.5-92.7-89.2-199-109.2-245.5-13.2-33.2-17.5-70-10.3-111.3,28.3-102.3,61-214.4,77.9-276.3,13.3-37.6,19.5-83.1,9.4-146.9-7.6-41-18-77.4-31.9-107.8h275.8v.8c3,86.8,2.9,176.7.9,268.6-8.6,155.3-18.5,266.4-29.2,351.6-7.8,68.6-12.2,133.6-13.6,195.4,3.5,130.1,9,218.6,16.1,273.8,5.2,168.6,24.8,396.2,45.4,628.1,10,79.2,16.1,148.1,18.6,207.8,3,87.6-5.2,165.8-23.1,235.9-25.3,110.6-37.6,191.4-41.9,253.5-2.9,52.1-2.5,91.3,1.5,115.6h0Z"/>
    <path class="st1" d="M1112.7,1770.1h-260.8c-4-24.5-4.3-63.6-1.5-115.8,4.3-62.2,16.6-142.9,41.9-253.5,17.9-70.1,26.1-148.4,23.1-235.9-2.5-59.7-8.6-128.6-18.6-207.8-20.6-231.9-40.2-459.5-45.4-628.1-7.1-55.2-12.6-143.6-16.1-273.8,1.4-61.8,5.8-126.8,13.6-195.4,10.7-85.2,20.6-196.3,29.2-351.6,2-91.9,2.1-181.8-.9-268.6v-.6h117c29.1,90.8,59.5,187.9,76,275.1,10.9,73.2,10.8,111.2,15,148.4,19.2,97.1,76.6,176.3,97.3,237.4,10.9,37.3,9.5,80.6-1.4,127.1-7.7,35-20.7,70.1-39.3,105.3-16.1,29.4-27.4,59.9-35,91.1-13.1,51.4-23.8,139.8-39.4,221.7-10,44.8-24.4,84.1-41.4,120.4-11.7,20.9-20.5,45.1-26.8,72.4-19.1,145.4-5.7,289.7,31.5,433.3,10.7,57.1,64.5,198.4,82,275.9,7.6,32.1,10.2,63.2,7.8,93.4-7.6,109.4-8.2,223.2-7.8,329.6h0Z"/>
    <path class="st3" d="M1343.5,1770.2h-230.8c-.4-106.4.2-220.2,7.8-329.7,2.4-30.1-.2-61.3-7.8-93.4-17.5-77.5-71.2-218.8-82-275.9-37.2-143.5-50.6-287.9-31.5-433.3,6.3-27.3,15.1-51.5,26.8-72.4,17-36.3,31.4-75.7,41.4-120.4,15.6-81.9,26.3-170.3,39.4-221.7,7.7-31.2,18.9-61.7,35-91.1,18.6-35.2,31.6-70.3,39.3-105.3,10.9-46.5,12.3-89.9,1.4-127.1-20.7-61.1-78.1-140.3-97.3-237.4-4.2-37.2-4.1-75.1-15-148.4-16.5-87.2-46.9-184.3-76-275.1l318.6.2c13.9,101.6,22.2,203.7,26.7,314.5,13.7,99.1,21.6,177.4,24.3,236.9,2.2,30.8-.5,59.1-7.2,85.3-9.7,50.2-23.7,91.4-42.1,124.2-34.9,79.6-47.8,154.1-43.9,224.6-1,58.6-37.1,181.1-37,221.3-5.7,50.3,35.5,153,60.1,246.8,32.7,152.1,64.5,293.2,92.8,391.2,20.9,74.6,24.1,140.6,13.7,199.9-6.2,56.2-17.9,114.4-34,174.2-12.1,70-19.2,139.9-22.6,209.9-1.5,28.7-1.8,61.8-.3,102.1h.2Z"/>
    <path class="st5" d="M1490.9,1770.3h-147.4c-1.5-40.4-1.2-73.4.3-102.2,3.3-70,10.5-140,22.6-209.9,16-59.8,27.7-118.1,34-174.2,10.4-59.4,7.3-125.3-13.7-199.9-28.3-98-60.1-239.1-92.8-391.2-24.5-93.8-65.7-196.5-60.1-246.8,0-40.2,36-162.7,37-221.3-3.9-70.5,9-145,43.9-224.6,18.3-32.8,32.4-74,42.1-124.2,6.7-26.3,9.3-54.6,7.2-85.3-2.7-59.5-10.6-137.8-24.3-236.9-4.6-110.8-12.8-212.9-26.7-314.5h208.3c-8.4,104.7-13.5,145.6-21.9,250.3-2.9,35.7-5.7,71.7-1.8,107.3,3.8,34.7,14,68.3,22.3,102.2,51.4,212,25.3,434.1-1,650.6-8.7,71.3-4.4,146.1,3.4,217.4,10.4,95.8,42,188,57.7,283.1,3.2,19.5,5.8,39.1,7.7,58.8,4.7,49.5-.9,99.9-16.2,147.2-13.6,41.7-34.6,80.6-51,121.3-62.4,154.4-56.7,328.9-20.6,491.4,9.8,44.2,18.1,68.8-8.7,101.5h-.3Z"/>
    <path class="st8" d="M1760.6,1770.4h-269.7c26.8-32.8,18.5-57.4,8.7-101.7-36.1-162.5-41.8-337.1,20.6-491.4,16.4-40.7,37.4-79.6,51-121.3,15.4-47.3,21-97.7,16.2-147.2-1.9-19.7-4.4-39.3-7.7-58.8-15.7-95.1-47.3-187.3-57.7-283.1-7.7-71.4-12.1-146.2-3.4-217.4,26.4-216.5,52.4-438.6,1-650.6-8.2-33.9-18.4-67.5-22.3-102.2-3.9-35.6-1.1-71.6,1.8-107.3,8.4-104.7,13.5-145.6,21.9-250.2h184.2c-42.7,233.4,72,362.2,55.9,599.3-11,162.6-78.6,317.3-90.5,479.8-6.4,87.4,3.6,175.9,29.3,259.6,12,38.9,27.4,77.2,31.5,117.7,10.4,102.9-52.4,196.9-86.4,294.5-37.7,108.1-40.6,226.2-21.8,339.1,18.8,112.9,58.4,221.4,103.9,326.4,20.4,47.1,45.1,66,33.3,114.8h.2Z"/>
    <path class="st11" d="M1919.2,1770.5h-158.6c11.7-48.8-12.9-67.8-33.3-114.9-45.6-105-85.2-213.4-103.9-326.4-18.8-112.9-15.9-231,21.8-339.1,34.1-97.6,96.8-191.6,86.4-294.5-4.1-40.5-19.5-78.8-31.5-117.7-25.7-83.7-35.7-172.2-29.3-259.6,11.9-162.5,79.5-317.2,90.5-479.8,16-237-98.6-365.9-55.9-599.2l370.4.2c-46.5,124.5-81,235.8-117.4,363.7-64.2,225.7-112.2,465.7-56.3,693.6,13.7,56,33.6,110.9,39.4,168.2,14.7,146.5-63.4,283.7-123.7,418-13.4,29.9-26.2,60.5-30.8,92.9-11.8,82.8,30.2,162.2,61.1,239.9,42.7,107.2,65.8,222.2,67.9,337.5,1.5,83.3,12.7,134.4,3.2,217h0v.2Z"/>
    <path class="st7" d="M2133.9,1770.6h-214.7c9.5-82.7-1.7-133.8-3.2-217.1-2.1-115.4-25.2-230.3-67.9-337.5-30.9-77.7-72.9-157.1-61.1-239.9,4.6-32.4,17.4-63,30.8-92.9,60.3-134.3,138.4-271.6,123.7-418-5.7-57.4-25.7-112.2-39.4-168.2-55.8-227.9-7.8-467.9,56.3-693.6,36.4-128,70.9-239.3,117.4-363.7h125.3c65.5,89.4,53,122.8,57.2,233.7.2,5,.3,10.2-1.5,14.9-2.5,6.6-8.4,11.3-13.9,15.7-104.5,85.4-157.2,222.2-165.4,356.9-8.2,134.7,23.7,268.6,63.7,397.5,21.8,70.4,46.3,140.3,58.3,213s10.9,149.4-17.3,217.5c-18.8,45.5-49,85.7-68.4,130.9-37.1,86.4-32.5,185.6-11,277.2,21.5,91.6,58.9,178.6,86.5,268.5,11.6,38,21.6,77.4,18.3,117-2.9,34.9-16,67.9-27.8,100.8-26.2,73.3-47.6,109.9-46,187.5h0v-.2Z"/>
    <path class="st9" d="M2271.2,1770.7h-137.3c-1.6-77.6,19.8-114.2,46-187.5,11.8-32.9,24.9-66,27.8-100.8,3.3-39.6-6.6-79-18.3-117-27.6-89.9-65-177-86.5-268.5-21.5-91.6-26.2-190.8,11-277.2,19.4-45.3,49.6-85.4,68.4-130.9,28.1-68.1,29.2-144.8,17.3-217.5-12-72.7-36.4-142.6-58.3-213-40-128.9-71.9-262.8-63.7-397.5s60.9-271.5,165.4-356.9c5.5-4.5,11.3-9.1,13.9-15.7,1.8-4.7,1.7-9.8,1.5-14.9-4.2-110.9,8.3-144.3-57.2-233.6h263.1c7.1,5,11,13.2,6.5,28-13.6,40.4-18.1,83.3-20.7,113.7-2.3,58.4,23.8,155,23.3,232.4-3.6,57.2-45.9,116.8-109,198-24.1,22.4-42.7,136.8-43.6,229.8,3,74.1,34.3,159.7,80.9,251.3,7.6,16.3,7,44.1,3.8,75.7-7.1,35.5-8.1,116.6-15.3,136.6-5.1,28.1-20.3,63.8-41.4,103.9-30,83.7-58.9,161.6-82.8,209-33.7,54.6-53.5,109.4-58.9,164.3-4.9,73.7,5.4,147,28.7,219.9,18.9,66.4,33.2,125.2,41.3,174.2,2.5,26.2,3.5,51.2,3.2,75.1,2.5,45,1.7,96.3,0,149.7-2.9,75.2-5.9,135.7-8.9,169.4h-.2Z"/>
    <path class="st4" d="M2516.2,1770.8h-245c2.9-33.8,6-94.3,8.9-169.5,1.8-53.3,2.5-104.6,0-149.7.3-24-.7-48.9-3.2-75.1-8.1-49-22.3-107.8-41.3-174.2-23.3-72.9-33.7-146.2-28.7-219.9,5.4-54.9,25.1-109.7,58.9-164.3,23.9-47.3,52.9-125.2,82.8-209,21.1-40.1,36.3-75.8,41.4-103.9,7.2-20,8.2-101.1,15.3-136.6,3.2-31.6,3.8-59.4-3.8-75.7-46.6-91.7-77.9-177.2-80.9-251.3.9-93,19.5-207.4,43.6-229.8,63-81.3,105.3-140.9,109-198,.6-77.4-25.6-174.1-23.3-232.4,2.7-30.4,7.1-73.3,20.7-113.7,4.5-14.8.6-23-6.5-27.9h53.3l-1.3,2531h.1Z"/>
  </g>
  <g>
    <path d="M364.2,570.6c0,6.7.7,11.7,2.3,15.1s4.8,5.8,9.8,7.1c5,1.3,12.4,2,22.4,2s1,.6,1,2-.3,2-1,2c-7.1,0-14.7-.1-23.1-.3-8.3-.2-17.3-.3-27-.3s-15.2.1-22.3.3c-7.1.2-13.4.3-19,.3s-1-.6-1-2,.3-2,1-2c7.3,0,12.7-.5,16.2-1.7,3.5-1.1,5.9-3.3,7.1-6.7,1.2-3.3,1.8-8.2,1.8-14.6v-153.7c0-6.5-.6-11.2-1.8-14.4s-3.6-5.4-7.1-6.7c-3.5-1.2-9-1.8-16.2-1.8s-1-.6-1-2,.3-2,1-2c5.5,0,11.8.2,18.8.5,7,.3,14.3.5,22,.5s12.2-.3,20.8-1c8.5-.6,16.7-1,24.7-1,13.5,0,25.5,1.8,36,5.5,10.5,3.6,18.9,9.4,25,17.4,6.1,7.9,9.5,18.4,10,31.6.2,11.6-1.8,21.5-5.9,29.9-4.2,8.4-9.9,15.4-17.1,20.8-7.2,5.4-15.1,9.5-23.7,12.3-8.6,2.8-17.3,4.1-25.9,4.1s-5.1-.1-7.8-.3c-2.8-.2-5.5-.6-8.2-1.4-.6-.2-.8-1.1-.6-2.4.2-1.5.7-2,1.7-1.8,1.8.4,3.7.7,5.9,1,2.2.2,4.1.3,5.6.3,7.3,0,14.1-2,20.2-5.9,6.1-4,11.2-10.1,15.1-18.2,3.9-8.2,5.8-18.4,5.8-30.8s-1.9-21.7-5.6-29.9c-3.8-8.2-9-14.4-15.8-18.8-6.8-4.3-14.9-6.5-24.7-6.5s-9.1.5-12,1.5c-2.9,1-4.9,3.1-5.9,6.1s-1.7,7.8-1.7,14.3v151.7h.2Z"/>
    <path d="M510.6,601.1c-9.3,0-16.2-2.2-20.8-6.7s-6.8-10.1-6.8-17,1.7-11.2,5-15.1c3.3-3.9,7.9-7.1,14-9.6,5.9-2.5,12.6-5.2,19.9-7.8l35.5-13.2,1,5-24.3,10.3c-2.6.8-5.5,2.1-8.6,3.8-3.1,1.7-5.7,3.8-7.8,6.5s-3.2,6.1-3.2,10.6,1.8,9.5,5.3,12.8c3.5,3.2,7.5,4.8,12,4.8s4-.3,5.9-.8c2-.5,4.3-1.7,7-3.5l17.9-12,.3,5-23.5,16.6c-5.1,3.5-9.8,6.1-14.1,7.8-4.3,1.7-9.2,2.4-14.7,2.4h0ZM572.9,600.8c-.8.4-1.9.6-3,.6-3.5,0-7.1-2.5-10.6-7.6s-5.3-12.5-5.3-22.3v-58.4c0-14-1.4-24-4.1-30.2-2.8-6.1-7.1-9.3-13.1-9.3s-9.8,1.6-12.8,4.8c-3,3.2-5.2,6.9-6.5,10.9-1.4,4.1-2.1,7.6-2.3,10.5-.6,5.5-2.3,9.8-5.2,12.6-2.8,2.9-6.7,4.3-11.8,4.3s-8.7-1.2-10.9-3.5-3.3-5-3.3-8.2c0-4.9,2.2-9.5,6.8-14.1s10.3-8.6,17.3-12.1,14.2-6.4,21.7-8.5,14.2-3.2,19.9-3.2c9.1,0,16.5,2.9,22.4,8.6,5.8,5.7,8.8,14.8,8.8,27.2v59.8c0,6.9,1.1,12.1,3.3,15.6s5.4,5.3,9.6,5.3,7.5-1,12-3c1.1-.4,1.9,0,2.3,1.2s.1,2-1,2.4l-34.2,16.2v.2Z"/>
    <path d="M619.5,598.8c-.6,0-1-.6-1-2s.3-2,1-2c7.3,0,12.3-1.6,14.9-4.7s4-9.2,4-18.2v-169.6c0-7.7-.6-13.4-2-16.7-1.4-3.4-3.9-5.2-7.6-5.2s-7.6,1.4-13.6,4c-.6.2-1.4-.3-2-1.7-.6-1.4-.7-2.1-.3-2.3l46.9-21.9c.4-.2.8-.3,1.4-.3.8,0,1.9.4,3,1.4,1.1.8,1.7,1.7,1.7,2.3v210.1c0,9.1,1.3,15.2,3.8,18.2,2.5,3.1,7.5,4.7,15.1,4.7s1,.6,1,2-.3,2-1,2c-4.2,0-9.1-.1-14.7-.3-5.6-.2-11.6-.3-17.8-.3s-12.1.1-17.8.3c-5.6.2-10.6.3-14.7.3h-.1Z"/>
    <path d="M771.1,602.8c-14,0-25.8-3-35.5-9-9.8-5.9-17.1-13.9-22-23.7-5-9.9-7.4-20.4-7.4-31.4s3.2-25.2,9.6-35.8,15.2-19.2,26.2-25.5c11-6.5,23.5-9.6,37.5-9.6s23.2,3.1,30.5,9.3c7.3,6.1,10.9,15.8,10.9,28.8s-.2,5.2-.6,7c-.4,1.8-1.5,2.6-3,2.6h-27.2c.6-12.8-.8-22.9-4.5-30.2s-9.6-10.9-18.1-10.9-17.8,4.6-23.4,13.8-8.5,21.4-8.5,36.7,2,24,5.9,33.4c4,9.4,9.9,16.7,17.6,22s17.3,7.9,28.5,7.9,12.6-1,17.3-2.9c4.7-1.9,9.6-4.2,14.9-7.1.4-.4,1.1-.2,1.8.6s1,1.7.5,2.3c-7.9,7.7-16.1,13.2-24.4,16.6s-17.2,5-26.7,5h0ZM726,515.8l-.3-5.6,73.7-1.4v6.7l-73.4.3Z"/>
    <path d="M894,602.8c-5.3,0-10.6-.8-15.8-2.6s-9.5-4.8-12.9-9-5.2-10.2-5.2-17.9v-75c0-4.9-.5-8.6-1.5-11.2s-2.8-4.5-5.2-5.5c-2.4-1-5.8-1.5-10.3-1.5s-1.4-.8-1.4-2.6.4-2.6,1.4-2.6c10.4-.4,18.9-3,25.4-7.4,6.6-4.6,11.1-11,13.8-19.4.2-.8,1.1-1.4,2.6-1.4s2.3.4,2.3,1.4v114.5c0,9.1,2.2,15.6,6.8,19.6,4.6,4,10.5,5.9,17.8,5.9s10.3-1.1,14.7-3.2c4.6-2.1,8.4-4.3,11.4-6.8.6-.4,1.5-.2,2.3.8.8,1,.8,1.8,0,2.4-8.2,7.5-15.9,13-23.1,16.4-7.2,3.4-14.9,5.2-23.4,5.2h.1ZM930.1,487.3c-8.9-2-17.4-3.4-25.8-4.1-8.3-.7-17.2-1.2-26.7-1.2v-7.9c9.1,0,17.9-.3,26.4-1s17.6-1.5,27.3-2.3c.4,0,1,.7,1.5,2.3s.8,3.4.8,5.6-.4,4-1.2,5.9c-.7,2-1.6,2.9-2.4,2.6h0Z"/>
    <path d="M1005.8,602.8c-5.3,0-10.6-.8-15.8-2.6s-9.5-4.8-12.9-9-5.2-10.2-5.2-17.9v-75c0-4.9-.5-8.6-1.5-11.2s-2.8-4.5-5.2-5.5c-2.4-1-5.8-1.5-10.3-1.5s-1.4-.8-1.4-2.6.4-2.6,1.4-2.6c10.4-.4,18.9-3,25.4-7.4,6.6-4.6,11.1-11,13.8-19.4.2-.8,1.1-1.4,2.6-1.4s2.3.4,2.3,1.4v114.5c0,9.1,2.2,15.6,6.8,19.6,4.6,4,10.5,5.9,17.8,5.9s10.3-1.1,14.7-3.2c4.6-2.1,8.4-4.3,11.4-6.8.6-.4,1.5-.2,2.3.8.8,1,.8,1.8,0,2.4-8.2,7.5-15.9,13-23.1,16.4-7.2,3.4-14.9,5.2-23.4,5.2h.1ZM1042,487.3c-8.9-2-17.4-3.4-25.8-4.1-8.3-.7-17.2-1.2-26.7-1.2v-7.9c9.1,0,17.9-.3,26.4-1,8.5-.6,17.6-1.5,27.3-2.3.4,0,1,.7,1.5,2.3s.8,3.4.8,5.6-.4,4-1.2,5.9c-.7,2-1.6,2.9-2.4,2.6Z"/>
    <path d="M1132.3,602.8c-14,0-25.8-3-35.5-9-9.8-5.9-17.1-13.9-22-23.7-5-9.9-7.4-20.4-7.4-31.4s3.2-25.2,9.6-35.8,15.2-19.2,26.2-25.5c11-6.5,23.5-9.6,37.5-9.6s23.2,3.1,30.5,9.3c7.3,6.1,10.9,15.8,10.9,28.8s-.2,5.2-.6,7c-.4,1.8-1.5,2.6-3,2.6h-27.2c.6-12.8-.8-22.9-4.5-30.2s-9.6-10.9-18.1-10.9-17.8,4.6-23.4,13.8c-5.6,9.2-8.5,21.4-8.5,36.7s2,24,5.9,33.4c4,9.4,9.9,16.7,17.6,22,7.7,5.3,17.3,7.9,28.5,7.9s12.6-1,17.3-2.9,9.6-4.2,14.9-7.1c.4-.4,1.1-.2,1.8.6s1,1.7.5,2.3c-7.9,7.7-16.1,13.2-24.4,16.6s-17.2,5-26.7,5h0ZM1087.1,515.8l-.3-5.6,73.7-1.4v6.7l-73.4.3Z"/>
    <path d="M1340.5,570.6c0,6.7.7,11.7,2.3,15.1s4.8,5.8,9.8,7.1c5,1.4,12.4,2,22.4,2s1,.6,1,2-.3,2-1,2c-7.1,0-14.7-.1-23.1-.3-8.3-.2-17.3-.3-27-.3s-15.2.1-22.3.3c-7.1.2-13.4.3-19,.3s-1-.6-1-2,.3-2,1-2c7.3,0,12.7-.5,16.2-1.7,3.5-1.1,5.9-3.3,7.1-6.7,1.2-3.3,1.8-8.2,1.8-14.6v-153.7c0-6.5-.6-11.2-1.8-14.4-1.3-3.2-3.6-5.4-7.1-6.7-3.5-1.2-9-1.8-16.2-1.8s-1-.6-1-2,.3-2,1-2c5.5,0,11.8.2,18.8.5,7,.3,14.3.5,22,.5s12.2-.3,20.8-1c8.5-.6,16.7-1,24.7-1,13.5,0,25.5,1.8,36,5.5,10.5,3.6,18.9,9.4,25,17.4,6.1,7.9,9.5,18.4,10,31.6.2,11.6-1.8,21.5-5.9,29.9-4.2,8.4-9.9,15.4-17.1,20.8-7.2,5.4-15.1,9.5-23.7,12.3-8.6,2.8-17.3,4.1-25.9,4.1s-5.1-.1-7.8-.3c-2.8-.2-5.5-.6-8.2-1.4-.6-.2-.8-1.1-.6-2.4.2-1.5.7-2,1.7-1.8,1.8.4,3.7.7,5.9,1,2.2.2,4.1.3,5.6.3,7.3,0,14.1-2,20.2-5.9,6.1-4,11.2-10.1,15.1-18.2,3.9-8.2,5.8-18.4,5.8-30.8s-1.9-21.7-5.6-29.9c-3.8-8.2-9-14.4-15.8-18.8s-14.9-6.5-24.7-6.5-9.1.5-12,1.5c-2.9,1-4.9,3.1-5.9,6.1s-1.7,7.8-1.7,14.3v151.7h.2Z"/>
    <path d="M1486.8,601.1c-9.3,0-16.2-2.2-20.8-6.7-4.6-4.5-6.8-10.1-6.8-17s1.7-11.2,5-15.1c3.3-3.9,7.9-7.1,14-9.6,5.9-2.5,12.6-5.2,19.9-7.8l35.5-13.2,1,5-24.3,10.3c-2.6.8-5.5,2.1-8.6,3.8s-5.7,3.8-7.8,6.5-3.2,6.1-3.2,10.6,1.8,9.5,5.3,12.8c3.5,3.2,7.5,4.8,12,4.8s4-.3,5.9-.8c2-.5,4.3-1.7,7-3.5l17.9-12,.3,5-23.5,16.6c-5.1,3.5-9.8,6.1-14.1,7.8-4.3,1.7-9.2,2.4-14.7,2.4h0ZM1549.2,600.8c-.8.4-1.9.6-3,.6-3.5,0-7.1-2.5-10.6-7.6-3.5-5.1-5.3-12.5-5.3-22.3v-58.4c0-14-1.4-24-4.1-30.2-2.8-6.1-7.1-9.3-13.1-9.3s-9.8,1.6-12.8,4.8c-3,3.2-5.2,6.9-6.5,10.9-1.4,4.1-2.1,7.6-2.3,10.5-.6,5.5-2.3,9.8-5.2,12.6-2.8,2.9-6.7,4.3-11.8,4.3s-8.7-1.2-10.9-3.5c-2.2-2.3-3.3-5-3.3-8.2,0-4.9,2.2-9.5,6.8-14.1s10.3-8.6,17.3-12.1c7-3.5,14.2-6.4,21.7-8.5,7.5-2.1,14.2-3.2,19.9-3.2,9.1,0,16.5,2.9,22.4,8.6,5.8,5.7,8.8,14.8,8.8,27.2v59.8c0,6.9,1.1,12.1,3.3,15.6s5.4,5.3,9.6,5.3,7.5-1,12-3c1.1-.4,1.9,0,2.3,1.2.4,1.2.1,2-1,2.4l-34.2,16.2v.2Z"/>
    <path d="M1598,598.8c-.6,0-1-.6-1-2s.3-2,1-2c7.5,0,12.5-1.6,15.1-4.7,2.5-3.1,3.8-9.2,3.8-18.2v-60.4c0-7.5-.7-13-2.3-16.4s-4.2-5.2-7.9-5.2-3.8.3-5.9,1c-2.2.6-4.7,1.7-7.3,3-.8.2-1.6-.3-2.1-1.7-.5-1.4-.5-2.1.2-2.3l47.8-22.3c.4-.2.7-.3,1-.3.8,0,1.8.5,2.9,1.5,1,1,1.5,1.8,1.5,2.4,0,2.4-.1,6.9-.3,13.2-.2,6.5-.3,15.3-.3,26.6v60.7c0,9.1,1.3,15.2,3.8,18.2s7.5,4.7,15.1,4.7,1,.6,1,2-.3,2-1,2c-4.5,0-9.4-.1-14.9-.3s-11.4-.3-17.6-.3-11.8.1-17.4.3-10.6.3-14.7.3v.2ZM1628.6,432.5c-5.7,0-10.3-1.6-13.5-4.7s-4.8-7.5-4.8-13.2,1.6-9.5,4.8-12.6,7.7-4.7,13.5-4.7,9.8,1.6,12.8,4.7c3,3.1,4.5,7.3,4.5,12.6,0,12-5.7,17.9-17.3,17.9h0Z"/>
    <path d="M1685.3,598.8c-.6,0-1-.6-1-2s.3-2,1-2c7.5,0,12.5-1.6,14.9-4.7,2.4-3.1,3.6-9.2,3.6-18.2v-63.4c0-7.1-.7-12.3-2.3-15.6s-4.3-5-8.3-5-4.5.4-7.3,1.4c-2.9.8-5.9,2.1-9.3,3.6-.8.2-1.6-.3-2.1-1.5s-.5-1.9.2-2.1l43.5-21.2c1.1-.4,1.9-.6,2.3-.6,2.2,0,4.5,2.5,6.8,7.6,2.3,5.1,3.5,12.5,3.5,22.3v74.7c0,9.1,1.3,15.2,3.8,18.2s7.5,4.7,15.1,4.7,1,.6,1,2-.3,2-1,2c-4.2,0-9.1-.1-14.6-.3-5.5-.2-11.4-.3-17.6-.3s-11.8.1-17.4.3c-5.6.2-10.6.3-14.7.3v-.2ZM1774.6,598.8c-.6,0-1-.6-1-2s.3-2,1-2c7.5,0,12.5-1.6,14.9-4.7,2.4-3.1,3.6-9.2,3.6-18.2v-49.8c0-12.4-2.2-21.5-6.8-27.3-4.6-5.8-11.7-8.8-21.4-8.8s-14.3,1.9-21.7,5.8-13.6,9.2-18.4,16.1l-1.7-4c8.6-11.8,17.8-20.9,27.3-27.3,9.6-6.6,19.9-9.8,31.1-9.8s21.9,3.7,28.5,11.1c6.7,7.4,10,17.4,10,30v64c0,9.1,1.3,15.2,3.8,18.2s7.5,4.7,15.1,4.7,1,.6,1,2-.3,2-1,2c-4.2,0-9.1-.1-14.6-.3-5.5-.2-11.4-.3-17.6-.3s-11.8.1-17.4.3-10.6.3-14.7.3h.1Z"/>
    <path d="M1906.7,602.8c-5.3,0-10.6-.8-15.8-2.6s-9.5-4.8-12.9-9-5.2-10.2-5.2-17.9v-75c0-4.9-.5-8.6-1.5-11.2s-2.8-4.5-5.2-5.5c-2.4-1-5.8-1.5-10.3-1.5s-1.4-.8-1.4-2.6.4-2.6,1.4-2.6c10.4-.4,18.9-3,25.4-7.4,6.6-4.6,11.1-11,13.8-19.4.2-.8,1.1-1.4,2.6-1.4s2.3.4,2.3,1.4v114.5c0,9.1,2.2,15.6,6.8,19.6s10.5,5.9,17.8,5.9,10.3-1.1,14.7-3.2c4.6-2.1,8.4-4.3,11.4-6.8.6-.4,1.5-.2,2.3.8.8,1,.8,1.8,0,2.4-8.2,7.5-15.9,13-23.1,16.4-7.2,3.4-14.9,5.2-23.4,5.2h.1ZM1942.9,487.3c-8.9-2-17.4-3.4-25.8-4.1-8.3-.7-17.2-1.2-26.7-1.2v-7.9c9.1,0,17.9-.3,26.4-1s17.6-1.5,27.3-2.3c.4,0,1,.7,1.5,2.3s.8,3.4.8,5.6-.4,4-1.2,5.9c-.7,2-1.6,2.9-2.4,2.6h0Z"/>
    <path d="M2033.2,602.8c-14,0-25.8-3-35.5-9-9.8-5.9-17.1-13.9-22-23.7-5-9.9-7.4-20.4-7.4-31.4s3.2-25.2,9.6-35.8c6.5-10.6,15.2-19.2,26.2-25.5,11-6.5,23.5-9.6,37.5-9.6s23.2,3.1,30.5,9.3c7.3,6.1,10.9,15.8,10.9,28.8s-.2,5.2-.6,7c-.4,1.8-1.5,2.6-3,2.6h-27.2c.6-12.8-.8-22.9-4.5-30.2-3.6-7.3-9.6-10.9-18.1-10.9s-17.8,4.6-23.4,13.8c-5.6,9.2-8.5,21.4-8.5,36.7s2,24,5.9,33.4c4,9.4,9.9,16.7,17.6,22,7.7,5.3,17.3,7.9,28.5,7.9s12.6-1,17.3-2.9,9.6-4.2,14.9-7.1c.4-.4,1.1-.2,1.8.6s1,1.7.5,2.3c-7.9,7.7-16.1,13.2-24.4,16.6-8.3,3.3-17.2,5-26.7,5h0ZM1988,515.8l-.3-5.6,73.7-1.4v6.7l-73.4.3Z"/>
    <path d="M2108.2,598.8c-.6,0-1-.6-1-2s.3-2,1-2c7.5,0,12.5-1.6,14.9-4.7,2.4-3.1,3.6-9.2,3.6-18.2v-63.4c0-7.1-.7-12.3-2.3-15.6s-4.3-5-8.3-5-4.5.4-7.3,1.4c-2.9.8-5.9,2.1-9.3,3.6-.8.2-1.6-.3-2.1-1.5s-.5-1.9.2-2.1l43.5-21.2c1.1-.4,1.9-.6,2.3-.6,2.2,0,4.5,2.5,6.8,7.6,2.3,5.1,3.5,12.5,3.5,22.3v74.7c0,5.9.8,10.7,2.6,14.1,1.8,3.4,4.9,5.7,9.3,7,4.5,1.3,10.6,1.8,18.5,1.8s1.4.6,1.4,2-.4,2-1.4,2c-5.7,0-12.3-.1-19.7-.3s-15.5-.3-24.1-.3-11.8.1-17.4.3c-5.6.2-10.6.3-14.7.3v-.2ZM2146.1,508.8l-2.3-4c8.4-10,15.6-17.6,21.4-23.1,5.8-5.4,10.8-9.2,14.7-11.2,4-2.1,7.7-3.2,11.2-3.2s9.3,1.6,14.1,4.8c4.8,3.2,7.1,7.2,7.1,12.1s-1.2,7.3-3.6,10c-2.4,2.6-5.8,4-10.3,4s-7.1-1.1-9.3-3.3-4.3-4.3-6.4-6.3c-2-2-4.8-3-8.3-3s-3.6.5-5.6,1.5c-2,1-4.8,3.2-8.3,6.5-3.5,3.3-8.4,8.4-14.6,15.3h.1Z"/>
  </g>
</svg>