<?xml version="1.0" encoding="UTF-8"?>
<svg id="Layer_1" xmlns="http://www.w3.org/2000/svg" version="1.1" viewBox="0 0 1024 1024">
  <defs>
    <style>
      .st0 {
        fill: #f9b502;
      }

      .st1 {
        fill: #f8a102;
      }

      .st2 {
        fill: #f9aa01;
      }

      .st3 {
        fill: #fab401;
      }

      .st4 {
        fill: #f9b402;
      }

      .st5 {
        fill: #f8ba04;
      }

      .st6 {
        fill: #f89f02;
      }

      .st7 {
        fill: #f79d01;
      }

      .st8 {
        fill: #f8aa02;
      }

      .st9 {
        fill: #f7a302;
      }

      .st10 {
        fill: #f8b702;
      }

      .st11 {
        fill: #f7a602;
      }

      .st12 {
        fill: #f79b02;
      }

      .st13 {
        fill: #f8a902;
      }

      .st14 {
        fill: #f9b802;
      }
    </style>
  </defs>
  <path class="st12" d="M514.6,67.3c-.6-1.6-1.7-2.8-3-2.8s-1.8,1.4-1.9,2.2c.7-5.7,1-10.9,2.4-17.8,1.5,6.9,1.6,11.9,2.5,18.4Z"/>
  <path class="st12" d="M803.4,815l5.2,8,1.9,1.5c0,1-1.1,1.3-1.5.3l-.3-.3-11.5-9.6h6.3Z"/>
  <path class="st12" d="M197.2,215.3c-.2,1.4.2,2.5-.6,3.7-2-2.6-4.2-4.9-5.9-7.8,3.7.2,4.6,3.2,6.5,4.1Z"/>
  <path class="st12" d="M887.9,375.1l.4-2.8c.5-.6,2.1-.8,2.9-1.1s3.5.5,2.9.9l-3.6,2c-.5.3-.9.2-2.5,1Z"/>
  <g>
    <path class="st7" d="M690.8,553.7c-1,2.3.2,5.8.4,8.2s-.2,1.4-.4,2c-.8-.4-1.1.2,0,.6-22.5,83.3-98.3,140.7-184.4,138.3-85.4-2.3-158.2-64.1-175.8-148.3,2.8-3.6.8-9.5-1-13.6v-1.3c-.2-3.4.9-7.4-1-10.3-.7.2-1.2.1-1.6,0,0-.7-.4-1.7,0-2.5,2.8-5,.7-11.1,1.2-16.7,7.6-4.3,5.4,18.3,18.7,21.5,7.9,1.9,11,.9,16.1-6.7l2.2,2.6c.8,1,1.7,0,2.2-.6.9-1,.5-2.6-.5-2.7s-2.5.2-4.8-1.3c-1.4-3,7.1-5.8,10.4-5.5s7.2,7,6,10.9c5.4-3.9,9.1-2.3,12.3,1.5s-.2,6.7-3.4,10l14.6,13.6c3.7-5.5,7.2-1.9,9-2.2s1.8-7.5.5-8.6c-2.6-.2-7-.4-8.9-2.8s-3.6-8.1-1.1-9.2c7,0,8.6,11.7,12.6,7.8,8.1-4.2,18.5,6.3,26.8,12.2l8.9-4.7c8.5,5.6,18.2,7.4,25.7.2,4.1-2.2,11.8,2.6,13.7-4.2,3.1-1.8,3.1,4.3,6.2,2.1s5.4-4.4,7.6-4.8c2.2,2.5,2.8,6.4,5.8,6.9s4.6-2.2,6.9-4c7.6,6.4,17.3,1.3,25,4.2.8,1.1,1.6,4.5,2.7,4.8s3.1-.6,5.5-1.6c-.7,8.1,8.5,4.2,8.9,10.3,7.4-.9,10-3.2,14.5-7.7l20.2,4.9c1.6,2.2,2.3,8.3,6.3,7.4,2.1-.5,7.5,1.5,7.2-1.5-5.4-6-1.6-9.9,2.5-12.8,13.8-9.7,23.7,3.9,35.4,4.7,7.8-2.5,17.7-.3,22.6-7.2-1.4-2.2-2.1-4.6-.6-6.3s2.8-2.8,4.7-.7l3.4,3.9c5.6,6.4,7.6,9.5,16.5,9.1Z"/>
    <path class="st11" d="M690.8,553.7c-8.9.4-10.9-2.6-16.5-9.1l-3.4-3.9c-1.9-2.1-3.6-.6-4.7.7s-.8,4.1.6,6.3c-4.9,6.9-14.7,4.6-22.6,7.2-11.8-.8-21.6-14.3-35.4-4.7s-7.9,6.7-2.5,12.8c.2,3.1-5.2,1.1-7.2,1.5-4,.9-4.8-5.2-6.3-7.4l-20.2-4.9c-4.5,4.5-7.1,6.8-14.5,7.7-.4-6.1-9.6-2.2-8.9-10.3-2.4,1-4.1,1.9-5.5,1.6s-1.9-3.6-2.7-4.8c-7.8-2.8-17.4,2.3-25-4.2-2.3,1.8-3.5,4.6-6.9,4s-3.6-4.4-5.8-6.9c-2.2.4-5.4,3.2-7.6,4.8-3.1,2.2-3.1-3.9-6.2-2.1-1.9,6.9-9.6,2-13.7,4.2-7.6,7.1-17.2,5.3-25.7-.2l-8.9,4.7c-8.3-5.9-18.7-16.4-26.8-12.2-3.9,3.9-5.5-7.9-12.6-7.8-2.5,1-.9,6.7,1.1,9.2s6.3,2.5,8.9,2.8c1.2,1.1,2.1,8.1-.5,8.6s-5.3-3.3-9,2.2l-14.6-13.6c3.2-3.3,6.9-5.9,3.4-10s-6.9-5.4-12.3-1.5c1.2-3.9-2.4-10.6-6-10.9s-11.9,2.5-10.4,5.5c2.3,1.4,3.7,1.2,4.8,1.3s1.4,1.7.5,2.7-1.4,1.6-2.2.6l-2.2-2.6c-5.1,7.6-8.2,8.6-16.1,6.7-13.3-3.2-11.1-25.9-18.7-21.5.7-8.6-1.8-19,5.8-23.3-6.8-5.6-.4-10.3-3.7-14.9.7-.2.7-.9.6-1.3,4.5-.9,4.3-6.9,4.7-12.1l20.1-1-1.4,10.5c-.3,2,6.3,0,8.1,1.6l4,3.6c1.6,1.4,3.6-2.5,3.5-4.8,7.3-2.5,15.7.2,23.7-.2,1.5.8,1.8,4.6,3.2,4.9s7.2-2.7,8.5-1.4c18.7,18.1,34.9-.5,32.5,9.6s-2.4,1.6-4.7,1.5c1.5,11.2,12.7,12.3,19.8,12.9,4.1,3.5,6,.3,8-4.8s.6-7.8-3.3-12.2l6.2-2.3c1.4-.5.4-5.4,1.7-6.3,6.2-4.5,7.6,2.3,12.3,4.9s4.3,9.5,5.3,14.4l18-7.7c1.2,2.1,1.2,6.2,2.6,7.1s4.9,1.2,7.8,1c3.2-.3.8-4.2,1-7,5.5,2.5,12.1.6,14.8,5.5-2.4,5.9-9.9,2.2-13,7.6,2.7,4.4,7.5-.1,12-.1,3.6-2.9,4.8-7.6,3.1-11.7.6-4.6,3.9-3.5,5.7-3s1.9,4.9,3.5,4.9c3.3-1.9,4.8-6.3,6.5-8.3,3.8-4.2,4-.4,8.4,2,1.4-4.3,2.5-7.4,4.8-6.7s5,2.5,8.1,4.4c3.3-1.7,1-6.6-.4-9l6.1,2.2c3.3,1.2,1.1-10.2,5.7-10.4s4,.5,5.5,2.4-2.2,4.1-4.8,4.9c4.3,1.9,4.5,3.8,7.6,6.3,2.9,2.3-2.2,2.2-2.4,6.7,4.6-.1,6.1-3.9,7.7-4.5,2.6-1.1,5.3,4,3,5.6-1.3.7-5.6-.3-5.2,2.1s-.4,4.6-1,5.5c2.2,3.2,4.7,1.8,6.6,1.5,2.2-2.9-.5-6.5,6.7-12.3,1.2-1,2.8,3.8,5.9,3.9.3-2.4-2.5-4.3-1.7-5.7,1.8-3.4,4.8-2.2,7.2-1.3s-.4,3.3,1.2,10.1c3.8-3.4,7.7-7.5,14.5-9.1,1.4,4.7,5,9.4,8.3,9.4,9.4,0,9.3-17.2,10.5-15.6-1.1-1.4-4.8-1.5-6.1-5.2,4-7.3,14.1-4.2,18.8-10.4l-3.5-4.3c-.9-1.1-.6-4.5,1.7-4.6s3,1.9,4.4,3.6c1.5-5.2,4.1-3.9,6.6-2.2,8.6,5.9-4.3,14.2,3.6,24,3.7,4.6,10.6,5.3,18.4,4.7,3.1,16.4,6.9,34.1,2.9,50.5-2.2,8.9.8,18.5-3.1,27.3ZM662.9,455c-.6,1.8-.5,3.2.3,4.3s1.9.1,1.9-.6v-3.7c0-.6-1.6-1.6-2.2.1ZM356.7,473.3c0-.8-.6-1.4-1.4-1.4s-1.4.6-1.4,1.4.6,1.4,1.4,1.4,1.4-.6,1.4-1.4ZM545.6,482.5c-1.2,1.6.6,2.6,1.5,2.4s1.4.3,2-.8-.2-1.7-.7-1.9-2.4-.2-2.8.3ZM563.3,482.9c-2,1.2-.8,4.3.4,5s3.4,1.3,6.1.3.3-3.3-1.7-3.6-2.6-3.1-4.8-1.8ZM475.3,495c0-.8-.6-1.4-1.4-1.4s-1.4.6-1.4,1.4.6,1.4,1.4,1.4,1.4-.6,1.4-1.4ZM580,494c-.8.9-.6,2.8.3,3.5s1.9,0,1.9-.6v-2.5c0-.5-1.3-1.4-2.2-.4ZM536.8,498.2c-1,2.7,1.6,3.1,2.2,3.9s2.8,1,3.2-.5-.4-2.6-1.1-3.2-3.7-1.6-4.3-.2ZM465.1,506.2c.3.9.9,2.5.9,3.6s2.2.4,2.5-.3,1.1-2-.2-3.1-.8-.6-3.2-.1ZM475.5,505.6c-.7.4-1.4,3.2-1.1,4s2.3,0,3-.5,2.2-1.7,1.1-2.8-1.7-1.4-2.9-.8ZM545.6,507.4c-.9,1.6.5,3,1.7,2.4s.6.8,1-.4,0-1.9-.9-2.1-1-1.4-1.8,0ZM340.1,514.1c0-.8-.6-1.4-1.4-1.4s-1.4.6-1.4,1.4.6,1.4,1.4,1.4,1.4-.6,1.4-1.4ZM569.6,514.1c0-.8-.6-1.4-1.4-1.4s-1.4.6-1.4,1.4.6,1.4,1.4,1.4,1.4-.6,1.4-1.4ZM385.9,518.5c-1.4.7-4.6,2.7-4.1,3.7,1,2.3,3.6,2,4,1.3,3,.9,4.2-.3,4-2.4.2-1.5-1.3-3.8-3.9-2.6ZM406.2,527.7c-.2,1.9,1.5,2,2,1.7s1-1.2.7-1.9-1.7-1.5-2.6.2ZM396.2,530.7c0-.8-.6-1.4-1.4-1.4s-1.4.6-1.4,1.4.6,1.4,1.4,1.4,1.4-.6,1.4-1.4ZM423.2,529.5c-1.3,1.2-1.2,1.8-1.1,2.9s2,1.4,2.6,1,.7-5.9-1.5-3.9ZM598.6,536.8c-2.1,4.9,4.5.5,4.7.8-.8-1.1-2.6-3-4.7-.8ZM611.5,543.4c-1.3-1.2-4.9-3.4-4.7-7.1-5.3,1.4-1.7,4.5-1.2,6.1.8,2.5,4.4,4.3,5.8,1ZM433.2,539.6c0-.8-.6-1.4-1.4-1.4s-1.4.6-1.4,1.4.6,1.4,1.4,1.4,1.4-.6,1.4-1.4ZM438.3,542.2c0-.8-.6-1.4-1.4-1.4s-1.4.6-1.4,1.4.6,1.4,1.4,1.4,1.4-.6,1.4-1.4Z"/>
    <path class="st2" d="M660.7,398.9c34.5,46.8,44.7,106.6,30.5,163.1-.2-2.4-1.4-5.9-.4-8.2,3.8-8.8.9-18.4,3.1-27.3,4-16.3.2-34-2.9-50.5-7.8.7-14.7-.1-18.4-4.7-7.9-9.8,5-18.1-3.6-24s-5-3-6.6,2.2c-1.4-1.7-2.9-3.7-4.4-3.6-2.3.1-2.6,3.5-1.7,4.6l3.5,4.3c-4.7,6.2-14.8,3.1-18.8,10.4,1.3,3.7,5,3.8,6.1,5.2-1.2-1.6-1.1,15.7-10.5,15.6s-6.9-4.7-8.3-9.4c-6.8,1.6-10.7,5.6-14.5,9.1-1.6-6.8,2-8.9-1.2-10.1s-5.4-2.2-7.2,1.3c-.7,1.4,2.1,3.3,1.7,5.7-3.1-.1-4.7-4.9-5.9-3.9-7.2,5.8-4.5,9.3-6.7,12.3-1.9.3-4.4,1.7-6.6-1.5.6-.9,1.4-3.2,1-5.5s4-1.4,5.2-2.1c2.4-1.6-.4-6.7-3-5.6s-3,4.4-7.7,4.5c.2-4.5,5.3-4.4,2.4-6.7-3.1-2.5-3.2-4.4-7.6-6.3,2.6-.9,6.2-3.1,4.8-4.9s-4.1-2.5-5.5-2.4c-4.7.1-2.4,11.6-5.7,10.4l-6.1-2.2c1.4,2.4,3.7,7.2.4,9-3-1.9-5.7-3.6-8.1-4.4s-3.4,2.4-4.8,6.7c-4.3-2.4-4.6-6.2-8.4-2-1.7,1.9-3.2,6.3-6.5,8.3-1.6,0-2.1-4.6-3.5-4.9s-5.1-1.6-5.7,3c1.7,4.1.5,8.8-3.1,11.7-4.5,0-9.3,4.6-12,.1,3.1-5.4,10.6-1.7,13-7.6-2.7-4.9-9.3-3-14.8-5.5-.2,2.8,2.2,6.7-1,7-2.9.3-6,.3-7.8-1s-1.4-5-2.6-7.1l-18,7.7c-1-4.9-1-12-5.3-14.4s-6.1-9.4-12.3-4.9-.3,5.8-1.7,6.3l-6.2,2.3c3.9,4.4,5.4,6.6,3.3,12.2s-3.9,8.2-8,4.8c-7.1-.5-18.3-1.7-19.8-12.9,2.2.1,4.4-.5,4.7-1.5,2.5-10.1-13.8,8.5-32.5-9.6-1.3-1.2-6.9,1.8-8.5,1.4s-1.7-4.1-3.2-4.9c-7.9.4-16.3-2.4-23.7.2.1,2.3-1.9,6.3-3.5,4.8l-4-3.6c-1.8-1.6-8.4.3-8.1-1.6l1.4-10.5-20.1,1c-.5,5.2-.2,11.1-4.7,12.1,6.5-28.3,19.1-55.5,37.6-77.8l19.1-8.5c2.6,10.1,1.1,18,4.7,26.2,6.8-1.9,8.5,3.3,12.4-.5s6.7-3.8,7.2-8.6c8.9,2.9,12.1,7.9,15.8,14.8,4.7-3.2,4.8,1,5.8,1.9,1.6,1.6,3.3-1,3.3-2.1.1-1.9-.5-3.7-1.4-5.3-1.4-2.4,1-5.7,3.8-7.6s5.3,5.7,7.7-.7c6.1,1.6,11.4,6.5,20,5.7-.3,5.9.4,10.1,5.9,10.8,1.8-.5,6-2.8,11.3-2.7-4.3-7.7-14.8-5.4-18.4-13.9-1.9-.3-4.7-.2-5.6-1.3s.4-2.8,1-3.7c3.4-5,9.7,13.2,27.1,2.1,3.2.6,3.3,6.1,1.4,10.7,9.4,0,17.5,1.1,26.2-1.8.6,3.6-2,8.6-.6,8.2s5.8.4,7.9.3c8.3-.7,15.6-5.9,22.8,2.5,2-4.7-.1-5.9-2.4-6.4l-7.3-1.6c.8-2.3,5.6-8.7,9.4-9.5s14-2.5,11.4,7.3c4.1-4.9,2.1-3.2,8.4-.4,2.4,1.8,3.4,4.6,3.4,7.8,8.4-4.6,16.9-7.5,25.7-6.6l.4,6.3c0,1.2,2.3,1.6,3.6.2l2.5-2.5c14.2-14.3,13.3,10.7,23.1-.9-20.9,2.4,14.5-17.8,27-3.2-.7-7.2,7-7.3,9.4-11.1ZM629.6,415.9c0-.8-.6-1.4-1.4-1.4s-1.4.6-1.4,1.4.6,1.4,1.4,1.4,1.4-.6,1.4-1.4Z"/>
    <path class="st3" d="M660.7,398.9c-2.4,3.9-10.1,3.9-9.4,11.1-12.5-14.6-47.9,5.6-27,3.2-9.7,11.6-8.8-13.4-23.1.9l-2.5,2.5c-1.3,1.3-3.5,1-3.6-.2l-.4-6.3c-8.8-.9-17.3,2-25.7,6.6,0-3.1-1-6-3.4-7.8-6.3-2.9-4.3-4.5-8.4.4,2.6-9.8-7.2-8.2-11.4-7.3s-8.6,7.1-9.4,9.5l7.3,1.6c2.3.5,4.4,1.7,2.4,6.4-7.2-8.4-14.5-3.2-22.8-2.5s-6.1-.8-7.9-.3,1.2-4.6.6-8.2c-8.7,2.8-16.8,1.8-26.2,1.8,1.9-4.6,1.8-10.1-1.4-10.7-17.4,11.1-23.7-7-27.1-2.1s-2.2,2.2-1,3.7,3.7,1,5.6,1.3c3.6,8.5,14,6.2,18.4,13.9-5.3-.1-9.5,2.2-11.3,2.7-5.4-.7-6.2-4.9-5.9-10.8-8.6.8-13.9-4.2-20-5.7-2.4,6.4-6.1-.3-7.7.7-2.9,1.8-5.3,5.2-3.8,7.6s1.6,3.4,1.4,5.3-1.7,3.7-3.3,2.1-1.1-5.1-5.8-1.9c-3.7-6.9-6.9-11.9-15.8-14.8-.5,4.8-4.4,5.8-7.2,8.6s-5.5-1.4-12.4.5c-3.7-8.2-2.1-16-4.7-26.2l-19.1,8.5c35.8-45.5,90.8-71.1,148.8-69.5,56.8,1.6,109.4,29.6,143.3,75.5ZM403.9,395.7c-2,.9-3.5,4.1-2.1,4.8,2.2,1,4.4,1.7,6.1,1.3,2.8-.7,2.1-3.3.8-4.4s-2.9-2.5-4.8-1.7ZM553.1,396.8c0-.8-.6-1.4-1.4-1.4s-1.4.6-1.4,1.4.6,1.4,1.4,1.4,1.4-.6,1.4-1.4ZM623.2,396.7c-.8,1.6,1.8,2.6,2.6,3.3.9.1,1.8-.4,2.2-1.2s0-2.5-1.1-3c-.5.3-2.8-.7-3.6.9Z"/>
    <path class="st5" d="M514.6,67.3l29.5,232.5c-22-3-43-2.2-64.5-.2l30.1-232.9c.1-.8.9-2.3,1.9-2.2s2.4,1.3,3,2.8Z"/>
    <path class="st9" d="M542.7,727l-30.7,242-30.6-241.5c20.4,2,39.8,1.4,61.3-.5Z"/>
    <path class="st0" d="M196.7,219c.8-1.2.3-2.2.6-3.7l187.5,127c-17.4,13.1-31.1,28.7-44.2,45.6l-143.9-168.9Z"/>
    <path class="st4" d="M683,388.2c-12.7-17.6-26.5-32.4-43.1-46.1l191.7-129.8-148.6,175.9Z"/>
    <path class="st1" d="M385,685.7l-169.7,137.9,127.5-181.8c12.8,17.9,26.9,31,42.2,43.9Z"/>
    <path class="st6" d="M803.4,815h-6.3c0-.1-158.6-130-158.6-130,16.8-12.8,29.9-27.1,42.5-42.9l122.4,172.9Z"/>
    <path class="st8" d="M888.3,372.3l-.4,2.8-170.5,90.7c-5.4-19.6-11.9-37.9-21.3-56.8l192.1-36.6Z"/>
    <path class="st13" d="M153.6,383.6c-2.7-1.5-6-6.5-4.9-8.8l177.9,33.7c-8.6,18.6-16,36.6-20.8,56.8l-152.2-81.6Z"/>
    <path class="st14" d="M456.8,304.3c-19.4,6.8-36.6,13.4-53.7,24.4l-51.8-184.8,105.5,160.4Z"/>
    <path class="st10" d="M620.1,328.3c-17.4-10.9-34.4-17.8-53.3-24.1l105.9-161.2-52.5,185.2Z"/>
    <path class="st7" d="M875.6,675.1l-181.8-53.8c9.7-17.2,16.4-34.7,22.7-52.9l159.1,106.6Z"/>
    <path class="st7" d="M329.7,621.6l-182.6,54.2,160-107.3c5,18.7,12.3,35.4,22.6,53.2Z"/>
    <path class="st12" d="M457.4,722.1l-92.9,161,42.1-183.4c16.4,9.9,33.6,15.9,50.9,22.4Z"/>
    <path class="st12" d="M658.8,881.6l-92.8-159.8c18.2-5.4,34.3-12.9,51.3-22.4l41.5,182.2Z"/>
    <path class="st2" d="M328.4,510.2c-.4,5.6,1.7,11.7-1.2,16.7-2.8-18.2.5-37,3.2-54.9,3.3,4.6-3,9.4,3.7,14.9-7.5,4.2-5.1,14.6-5.8,23.3Z"/>
    <path class="st10" d="M148.7,374.8c-1.1,2.4,2.2,7.4,4.9,8.8l-24.2-12.1c6.5-.3,13.1,1.2,19.3,3.2Z"/>
    <path class="st2" d="M330.7,554.5c0,.2.5-.4.3-.9.3-1.4.1-3.1-1.3-3.8l-1.2-6.4c.9-.5,1.3-1.5,1.2-2.5,1.7,4.1,3.8,10,1,13.6Z"/>
    <path class="st2" d="M329.7,539.6h-1.2c0,0,0-5,0-5l.3-5.2c1.9,2.9.8,6.9.9,10.3Z"/>
    <path class="st12" d="M328.5,534.5c-1.6-1.2-1.5-3.3-1.3-5.2.4,0,1,0,1.6,0l-.3,5.2Z"/>
    <path class="st12" d="M329.8,540.9c0,1-.3,2.1-1.2,2.5v-3.8s1.2,0,1.2,0v1.3Z"/>
    <path class="st12" d="M331,553.7c-1.4-.8-1-2.4-1.3-3.8,1.4.7,1.6,2.4,1.3,3.8Z"/>
    <path class="st2" d="M690.9,564.5c-1.2-.4-.9-.9,0-.6-.4.2-.3.8,0,.6Z"/>
    <path class="st2" d="M563.3,482.9c2.1-1.3,3.7,1.6,4.8,1.8,2.1.3,4.1,2.7,1.7,3.6s-4.8.5-6.1-.3-2.4-3.8-.4-5Z"/>
    <path class="st7" d="M611.5,543.4c-1.5,3.3-5.1,1.5-5.8-1s-4.1-4.6,1.2-6.1c-.3,3.7,3.3,5.8,4.7,7.1Z"/>
    <path class="st7" d="M385.9,518.5c2.6-1.2,4.1,1.1,3.9,2.6.1,2.2-1,3.4-4,2.4-.4.6-2.9.9-4-1.3s2.7-3,4.1-3.7Z"/>
    <path class="st2" d="M536.8,498.2c.5-1.5,3.4-.6,4.3.2s1.5,1.2,1.1,3.2-2.5,1.4-3.2.5-3.1-1.2-2.2-3.9Z"/>
    <path class="st2" d="M475.5,505.6c1.2-.7,2.2,0,2.9.8,1.1,1.1-.2,2.2-1.1,2.8s-2.8,1.3-3,.5.4-3.6,1.1-4Z"/>
    <path class="st2" d="M465.1,506.2c2.4-.5,2.6-.3,3.2.1,1.3,1.1.6,2.1.2,3.1s-2.4,1-2.5.3c0-1-.6-2.7-.9-3.6Z"/>
    <path class="st7" d="M598.6,536.8c2-2.2,3.9-.3,4.7.8-.2-.3-6.7,4.1-4.7-.8Z"/>
    <path class="st2" d="M662.9,455c.6-1.7,2.3-.7,2.3-.1v3.7c0,.7-1.6,1.2-2,.6-.9-1.1-1-2.5-.3-4.3Z"/>
    <path class="st7" d="M423.2,529.5c2.2-2,1.5,3.9,1.5,3.9-.6.4-2.6-.1-2.6-1s-.2-1.7,1.1-2.9Z"/>
    <path class="st2" d="M545.6,507.4c.8-1.4,1.4-.1,1.8,0,1,.1,1.2,1.3.9,2.1-.4,1.2-.6.2-1,.4-1.2.6-2.6-.8-1.7-2.4Z"/>
    <path class="st2" d="M545.6,482.5c.3-.5,2.1-.4,2.8-.3s1.2.9.7,1.9-1.5.7-2,.8c-.9.2-2.7-.8-1.5-2.4Z"/>
    <path class="st2" d="M580,494c.9-1,2.2-.2,2.2.4v2.5c0,.7-1.3,1.1-1.9.6-.9-.7-1.1-2.6-.3-3.5Z"/>
    <circle class="st2" cx="568.2" cy="514.1" r="1.4"/>
    <circle class="st7" cx="394.8" cy="530.7" r="1.4"/>
    <circle class="st7" cx="431.8" cy="539.6" r="1.4"/>
    <circle class="st2" cx="473.9" cy="495" r="1.4"/>
    <circle class="st7" cx="436.9" cy="542.2" r="1.4"/>
    <path class="st7" d="M406.2,527.7c1-1.7,2.4-.8,2.6-.2s0,1.5-.7,1.9-2.2.2-2-1.7Z"/>
    <circle class="st2" cx="355.3" cy="473.3" r="1.4"/>
    <circle class="st7" cx="338.7" cy="514.1" r="1.4"/>
    <circle class="st3" cx="628.2" cy="415.9" r="1.4"/>
    <path class="st2" d="M403.9,395.7c1.9-.8,3.3.3,4.8,1.7s2,3.7-.8,4.4-3.9-.3-6.1-1.3,0-3.9,2.1-4.8Z"/>
    <path class="st2" d="M623.2,396.7c.9-1.6,3.1-.6,3.6-.9,1.2.5,1.7,1.9,1.1,3s-1.3,1.3-2.2,1.2c-.7-.7-3.4-1.7-2.6-3.3Z"/>
    <circle class="st2" cx="551.6" cy="396.8" r="1.4"/>
    <g>
      <path class="st11" d="M956.3,518.7l-236.2,27.7c3.1-19.9,3.2-38.5.9-58.6l235.3,30.9Z"/>
      <path class="st11" d="M128.3,525.8l-24.9-6.3c3.5-7.8,10.3-1.9,13.5-6.8l184.7-24.4c-2.1,20-1.9,38.5.8,58.1l-174-20.6Z"/>
      <path class="st5" d="M116.8,512.7c-3.1,4.9-9.9-1-13.5,6.8l24.9,6.3-26.7-2.7c-.9-1.8-2.8-.9-4.2-1.1l-30.5-3.4,49.9-5.9Z"/>
      <path class="st12" d="M101.6,523.1c-1.5-.1-3,0-4.2-1.1,1.4.2,3.2-.7,4.2,1.1Z"/>
    </g>
  </g>
</svg>