<?xml version="1.0" encoding="UTF-8"?>
<svg id="Layer_1" xmlns="http://www.w3.org/2000/svg" version="1.1" viewBox="0 0 1254 1254">
  <!-- Generator: Adobe Illustrator 30.3.0, SVG Export Plug-In . SVG Version: 2.1.3 Build 182)  -->
  <defs>
    <style>
      .st0 {
        fill: #1a4f8a;
      }

      .st1 {
        fill: #2368b0;
      }

      .st2 {
        fill: #143b66;
      }

      .st3 {
        fill: #2f7fd1;
      }

      .st4 {
        fill: #54a9fb;
      }
    </style>
  </defs>
  <g>
    <path class="st1" d="M402.6,469.7l81.5,64.5,85.8,29.3,59.5,62.5c-2.1,2.6-5.5,3.8-7.6,3.2l-39-11-344.7-103.2c-21-6.3-40.6-12-60.6-19.6-19-7.2-33-21.4-39.9-40.3s-9.2-31.5-11.7-48.5c-6.9-44.8-11.1-89.3-10.9-134.6,0-19.2,1.9-37.3,7-55.3,5.6-19.7,19.2-33.5,38.9-38.9,19.2-5.3,38.7-6.7,59-5.7,46.8,2.4,92.1,8.4,138.5,16.8,88.5,16,175.2,35.3,262.5,55.8,9.8,2.3,18.4,5.4,26.8,9.6,24.4,12.1,26.5,36.7,25.8,62.7l-7.9,274.5c-.3,11.1-5.1,25.2-11.8,25.2s-3.7-1.5-5.2-2.9l-74.4-71.9-82.7-24.2-67.5-36.7-20.4-11.7-1.1.4Z"/>
    <path class="st3" d="M790.4,554.2c-5.7,9.7-13.3,16.9-22.7,20.9l-54,23.4c-6.5,2.8-17.2,2.2-21.3-4.4s-5.8-17.9-5-27.4c7.3-88.7,17.6-176.3,29.9-264.6s4.8-23.7,9.3-35.1c8.2-20.8,26.4-25.8,47.9-19,35.6,11.2,87.5,35.5,114.3,60.3s12.7,57-4.4,86.1l-94,159.8Z"/>
  </g>
  <g>
    <path class="st0" d="M1056.9,591.7c-44.3,18.1-87.6,34.8-132.3,49.4s-27.1,1.3-37-8.5l-53.6-53.3c-7.3-7.2-8.5-19.9-3.8-29.8,22.2-46.5,45.6-91.8,71-136.7,10.4-18.4,25.8-29.5,46.1-34.6,28.8-7.2,57.8-11.1,87.8-12.5,28.2-1.3,54.2,4.4,69.3,28.9,24,39.1,41.9,104.9,22.6,146.3-6.2,13.4-16.5,25.1-29.7,31.4l-40.4,19.3Z"/>
    <path class="st3" d="M956,965.1c-6-10.6-8.7-22.2-10.3-34.5l-18.2-139.7c-.5-3.9,1.7-7.9,4.9-9.1l88.8,27.3-125.3-63-37.4-19c-5.2-2.6-9-8.8-9.9-13.6-2.7-15.8,16.9-27.9,34.5-31,52.7-9.3,105-16.4,158.5-21,23.2-2,57.6-2.6,65.7,17,4,9.6,4.6,20.5,2.5,30.7l-9.2,44.3c-15.9,58.5-36.2,114.9-62.5,169.4l-19.9,33.7c-5.2,8.8-13.2,15.7-22.1,20.4-14.5,7.7-31.6,3-40.1-11.9Z"/>
  </g>
  <g>
    <path class="st0" d="M388.5,749.5l-127.6,30.3c-35.6,8.5-73.8,10.8-93.4-22.2-21.6-36.4-30.9-104.7-31.8-148.3-.2-9.8,1.2-19.3,3.9-28.2,7.5-25,33.6-28.7,58.8-27.8l38.9,3.9,177.6,30.1,91.3,37c10.4,4.2,15.4,16.5,9.8,26.7l-35.8,65.1c-5.6,10.2-17.5,15.6-28.5,18.3l-63.1,15.2Z"/>
    <path class="st4" d="M617.3,760.4c-11.9,10.2-26,14.9-41.3,14.7-24.1-.3-47.8-4.4-70.1-12.6-11.1-4.1-17.9-15.3-13.1-25.9l7.5-16.4,41-64.3c7.6-11.9,20.2-18.1,34.9-15.7,25.4,4.3,50.6,11.1,74.3,21,13.3,5.6,19.5,18.3,16.4,32.1s-9.3,23.5-17.3,33.4c-9.8,12.1-20,23.2-32.2,33.7Z"/>
    <g>
      <path class="st2" d="M788,1072.2c-59.9,9.9-152.7,19-211,11.2-13.4-1.8-26.5-5.5-37.2-13.7-24.4-18.9-13.9-58.2-4.4-87.6,15.4-47.7,32.8-93.8,51.5-140.4,7.6-18.8,17.5-34.7,30.6-49.7,8.6-9.8,17.4-19.1,28.1-26.5,10.8-7.6,25.1-6.5,33.8,3.1l26,28.9,121.8,148.7c15.3,18.7,26.8,39.1,32.4,62.1,4.9,19.9-3.3,38.2-21.2,47.5-15.8,8.2-32.4,13.2-50.5,16.2Z"/>
      <path class="st3" d="M358.2,1030.2c-35.3,3.2-56.5-4.6-77.6-32.3-17.6-23.1-31.8-47.9-44.7-74-13.4-27.2-22.1-55.1,4.5-73.9s28.4-16.9,44.2-24c48.2-21.8,96.5-40.9,146.3-58.7,11.1-4,22.5-3.7,33.2.5l77.8,30.2c5.8,2.3,12.2,6,15.2,11.5,3.3,6,2.9,14.8,0,21.2l-43.2,94-31.8,61.7c-7.2,13.9-20,23.2-35.4,27.5-28.9,8.1-57.8,13.6-88.5,16.4Z"/>
      <path class="st1" d="M910.4,953.2c-5.5-.8-11.3-2.1-15.7-4.7l-55.2-32.9c-7.2-4.3-12.4-10.5-17.8-17.2l-124.6-156.4c-7.6-9.5-9.4-22.1-6.4-32.8s12.8-16.8,24.6-16.8l120,53.6,48.7,20.9c10.2,4.4,18.6,12.2,20.3,24.1l19.3,134c2.1,14.3-1,29.9-13.3,28.2Z"/>
    </g>
  </g>
  <path class="st4" d="M861.7,669.3c-20.4,12.7-51.5,24.4-74.5,18.4-25-6.4-48.9-14.5-72.3-24.9-4.9-2.2-9.1-7.4-10.3-11.2-3.2-10.4,6.8-21.3,17.4-27.3l54.3-31c13.1-7.5,27.7-6.4,39.6,2.9,17.8,13.8,34.7,28.1,49.9,44.7,3.7,4.1,5.6,10,5,15.4s-4.5,10.1-9.2,13Z"/>
</svg>