<!--?xml version="1.0" encoding="UTF-8"?-->
<svg id="Layer_1" xmlns="http://www.w3.org/2000/svg" version="1.1" viewBox="0 0 1254 1254">
  <path fill="#e6ddcf" d="M284.4,345c-58.7,73.1-91.4,162.7-95,255.9-2.4,61,10.7,121.3,33,178.6l-38.2,27.8c-23.9-53.9-38.1-110.5-41.7-169.3v-51.5c7.1-125.7,64.4-242.6,156.8-327.2,113.2-103.7,270.6-149.1,421.7-119.9,86.9,15,169.1,53.7,236,113.3l-45.9,26c-36.1-29.1-75.5-51.5-118-67.6-93.9-34-184.1-40.1-281.2-14.2-89.3,23.8-169.2,75.6-227.4,148.1Z"></path>
  <g fill="#e6ddcf">
    <path d="M213.2,925.5l48.7-55.6,97.6-110.3,132.3-149c6.1-3.5,6.5-9.1,7.5-14.8,10.5-61.7,60.5-105.6,121.8-108.8l159.9-67.2,134.5-55.9,139.6-56.9-79.1,84-58.8,62.8-161.5,176.9c-6.9,63.6-59.9,114.9-124.2,117.5l-68.5,29.3c-102,41.5-203,84.2-303.7,129.2l-46,18.6ZM705.1,617.9c0-43-34.9-77.9-77.9-77.9s-77.9,34.9-77.9,77.9,34.9,77.9,77.9,77.9,77.9-34.9,77.9-77.9Z"></path>
    <path d="M543.6,1065.7c61.7,12.4,125.1,11.6,185.2-4.7,39-10.6,75.6-25.8,109.8-47.2,39-24.5,74.2-53.7,104.5-89.2,63.6-74.5,104.4-167.3,116.8-262.8,1.7-13.3,4.1-52,2.9-61.3l-1.9-29.3c-3.7-35-10.5-68.5-22.6-102.2l41.1-28.7c42.1,108.1,42.4,227.8,3.5,335.7-21.4,61.5-52.9,118.8-93.9,169.9-95.1,115.9-235.6,184.5-386.2,175.6-90.7-5.4-177.5-36.3-250.9-90.3-17.6-12.4-33.9-26.5-50.1-41.3l43.4-23.7c56.6,49.9,124.6,84.8,198.5,99.5Z"></path>
    <path d="M600.9,1001.1c-1.5-10.4-.9-20.3,0-30.8,56.4.9,111-13.4,160.7-38.9,86.7-44.5,152.7-121.4,184.7-213.2,11.6-33.4,18.6-68.2,19.4-104.1h30.4c-.6,33.3-5,65.4-14.5,96.3-31.1,103.3-101.8,192.1-197,244-56.2,31-118.3,47.7-183.8,46.6Z"></path>
    <path d="M600.8,898.1v-30.5c136.9,0,257.5-116.7,265.5-253.3l29.3-.3c1.1,10,.5,19.8-1.2,29.4-19.3,112-99.1,205.6-207.5,241.2-27.5,9.5-56.2,14.3-86,13.4Z"></path>
  </g>
</svg>