<?xml version="1.0" encoding="UTF-8"?>
<svg id="Layer_1" xmlns="http://www.w3.org/2000/svg" version="1.1" viewBox="0 0 2500 1000">
  <defs>
    <style>
      .st0 {
        font-family: Georgia, Georgia;
        font-size: 211.1px;
      }

      .st0, .st1 {
        fill: #e6ddcf;
      }

      .st2 {
        fill: #141210;
      }

      .st3 {
        fill: #34302d;
        font-family: HelveticaNeue, 'Helvetica Neue';
        font-size: 46.2px;
      }
    </style>
  </defs>
  <rect class="st2" x="-9.4" y="-9.7" width="2515.5" height="1014.9"/>
  <g>
    <path class="st1" d="M2209.8,668.2c-73.8-78.1-162.8-139.3-262.7-175.8-64.7-23.6-130.8-38.5-199.4-42.3-78.4-4.3-156.2,1.8-233.3,21.4-162,41.2-310.1,130.3-421.3,251.1-15.4,16.8-56.9,68.3-64.3,82.6l-26.2,42.7c-29.3,52.4-52.8,105.8-69.1,164.6l-85.5-.4c47.7-192,165.1-359.1,325.6-471,90.4-64.5,190.7-113.4,298.1-144.2,246.5-67.8,509.8-25.1,710.7,135.6,121,96.8,211.4,225.3,260.6,372.7,12.3,34.7,21.2,70.3,29.2,106.8l-83.8-9.8c-29.7-125.2-90.1-240.7-178.5-334Z"/>
    <path class="st1" d="M2143,741.9c-10.4,14.6-23,26-36.5,37.7-68-68-151.8-115.4-243-143.2-159-48.5-331.1-32.6-479.3,41.9-54,27.1-103.7,61.5-147.3,104.5l-37.2-36.3c40.1-39.9,83.6-74,131.9-100.7,160.7-89.5,352.7-114.5,530.9-65,105.7,28.7,201.5,81.9,280.5,161.1Z"/>
    <path class="st1" d="M2020.9,868.2l-36.1,37.5c-167.9-162.5-454.1-162.9-625.9-5.1l-36.2-34.4c10.6-13.6,22.9-24.8,36.3-34.6,156.6-114.2,365.5-134.2,540.5-49.1,44.9,20.9,85.7,49.2,121.3,85.6Z"/>
  </g>
  <text class="st0" transform="translate(93.2 307.6)"><tspan x="0" y="0">Album Atlas</tspan></text>
  <path class="st1" d="M944.6,465.1l-50.5,39.9-101,78.9-136.9,106.5c-5.8,2-7,6.7-8.7,11.4-18.7,51.1-68.6,80.8-121.5,73.8l-147.5,32.2-124,26.5-128.6,26.5,81.1-59.3,60.3-44.4,166.4-125.8c16-53.3,69.6-88.9,125-80.9l63.3-14.2c93.9-19.4,187.2-39.9,280.5-62.4l42.3-8.7ZM474.7,650.4c-6.8,36.8,17.5,72.2,54.3,79.1,36.8,6.8,72.2-17.5,79.1-54.3,6.8-36.8-17.5-72.2-54.3-79.1-36.8-6.8-72.2,17.5-79.1,54.3Z"/>
  <text/>
  <text/>
  <text class="st3" transform="translate(85.6 383.9)"><tspan x="0" y="0">Losing track of albums has never been harder</tspan></text>
</svg>