<?xml version="1.0" encoding="UTF-8"?>
<svg xmlns="http://www.w3.org/2000/svg" viewBox="0 0 1200 480" width="1200" height="480">
  <defs><clipPath id="clip"><rect width="1200" height="480"/></clipPath></defs>
  <rect width="1200" height="480" fill="#0f0e0a"/>
  <g clip-path="url(#clip)" opacity="0.045">
    <path d="M506 -10 228 652H224V191Q224 125 232.0 93.5Q240 62 264.5 52.0Q289 42 338 40V0H30V40Q80 42 104.5 52.0Q129 62 137.5 92.0Q146 122 146 184V586Q146 643 138.5 674.0Q131 705 108.5 717.5Q86 730 41 730V770H344L577 187H581L812 770H1104V730Q1060 730 1037.5 717.5Q1015 705 1008.0 672.5Q1001 640 1001 579V191Q1001 125 1009.0 93.5Q1017 62 1041.5 52.0Q1066 42 1115 40V0H739V40Q789 42 813.5 52.0Q838 62 846.0 92.0Q854 122 854 184V652H849L580 -10Z" fill="#f4f1ea" transform="translate(-53.000,565.000) scale(0.920000,-0.920000)"/>
  </g>
  <g>
  <path d="M506 -10 228 652H224V191Q224 125 232.0 93.5Q240 62 264.5 52.0Q289 42 338 40V0H30V40Q80 42 104.5 52.0Q129 62 137.5 92.0Q146 122 146 184V586Q146 643 138.5 674.0Q131 705 108.5 717.5Q86 730 41 730V770H344L577 187H581L812 770H1104V730Q1060 730 1037.5 717.5Q1015 705 1008.0 672.5Q1001 640 1001 579V191Q1001 125 1009.0 93.5Q1017 62 1041.5 52.0Q1066 42 1115 40V0H739V40Q789 42 813.5 52.0Q838 62 846.0 92.0Q854 122 854 184V652H849L580 -10Z" fill="#f0ebe0" transform="translate(100.000,256.000) scale(0.106000,-0.106000)"/>
  <path d="M465 262V366Q465 420 460.0 445.0Q455 470 437.0 478.0Q419 486 378 490V530H604V227Q604 166 605.5 131.5Q607 97 611 80Q616 55 631.5 47.5Q647 40 696 40V1L497 -11L486 78H482Q457 37 409.5 13.5Q362 -10 304 -10Q197 -10 141 66Q98 124 98 231V366Q98 407 96.0 430.5Q94 454 85.5 465.5Q77 477 60.0 482.0Q43 487 13 490V530H237V247Q237 147 262.0 101.0Q287 55 342 55Q402 55 433 109Q465 161 465 262Z" fill="#f0ebe0" transform="translate(218.370,256.000) scale(0.106000,-0.106000)"/>
  <path d="M107 35 85 0H54V182H96Q113 111 145.0 77.5Q177 44 228 44Q265 44 285.5 59.5Q306 75 306 102Q306 130 281.0 156.5Q256 183 200 213Q124 254 91.0 294.5Q58 335 58 386Q58 431 79.5 466.0Q101 501 138.0 521.0Q175 541 221 541Q252 541 283.0 532.0Q314 523 336 507L354 531H380V380H341Q318 437 293.5 462.0Q269 487 234 487Q206 487 189.5 472.0Q173 457 173 432Q173 404 198.0 379.0Q223 354 279 324Q360 281 395.0 239.0Q430 197 430 143Q430 74 380.5 32.0Q331 -10 248 -10Q205 -10 168.0 1.5Q131 13 107 35Z" fill="#f0ebe0" transform="translate(290.524,256.000) scale(0.106000,-0.106000)"/>
  <path d="M110 752Q110 785 132.5 807.5Q155 830 187 830Q220 830 242.5 807.5Q265 785 265 752Q265 720 242.5 697.5Q220 675 187 675Q155 675 132.5 697.5Q110 720 110 752ZM257 540V164Q257 111 262.5 85.0Q268 59 287.0 50.5Q306 42 344 40V0H29V40Q67 42 86.0 51.5Q105 61 111.5 85.5Q118 110 118 157V280Q118 338 116.0 376.0Q114 414 111 427Q106 452 88.5 460.0Q71 468 25 468V502Z" fill="#f0ebe0" transform="translate(336.920,256.000) scale(0.106000,-0.106000)"/>
  <path d="M502 121 528 83Q491 39 434.0 14.5Q377 -10 310 -10Q229 -10 168.0 24.5Q107 59 73.0 120.5Q39 182 39 262Q39 346 75.5 408.5Q112 471 177.0 505.5Q242 540 329 540Q388 540 435.0 524.5Q482 509 509.0 482.0Q536 455 536 420Q536 394 520.0 376.5Q504 359 474 359Q446 359 430.5 373.5Q415 388 400 410Q382 437 370.5 452.5Q359 468 348.0 475.0Q337 482 317 482Q258 482 225.5 429.0Q193 376 193 278Q193 172 231.5 114.0Q270 56 343 56Q383 56 424.0 73.0Q465 90 502 121Z" fill="#f0ebe0" transform="translate(372.186,256.000) scale(0.106000,-0.106000)"/>
  <path d="M54 64Q54 96 76.0 118.5Q98 141 129 141Q162 141 184.0 118.5Q206 96 206 64Q206 33 184.0 11.5Q162 -10 129 -10Q98 -10 76.0 11.5Q54 33 54 64Z" fill="#5aaa7a" transform="translate(428.970,256.000) scale(0.106000,-0.106000)"/>
  <path d="M278 610 438 172 568 505Q594 571 606.0 606.0Q618 641 622.0 659.0Q626 677 626 691Q626 715 608.0 722.5Q590 730 536 730V770H820V730Q737 730 705 649L442 -10H368L129 574Q103 637 81.5 670.5Q60 704 34.0 716.5Q8 729 -31 729V770H347V729Q295 728 276.5 719.5Q258 711 258 689Q258 676 263.0 656.5Q268 637 278 610Z" fill="#f0ebe0" transform="translate(453.530,256.000) scale(0.106000,-0.106000)"/>
  <path d="M110 752Q110 785 132.5 807.5Q155 830 187 830Q220 830 242.5 807.5Q265 785 265 752Q265 720 242.5 697.5Q220 675 187 675Q155 675 132.5 697.5Q110 720 110 752ZM257 540V164Q257 111 262.5 85.0Q268 59 287.0 50.5Q306 42 344 40V0H29V40Q67 42 86.0 51.5Q105 61 111.5 85.5Q118 110 118 157V280Q118 338 116.0 376.0Q114 414 111 427Q106 452 88.5 460.0Q71 468 25 468V502Z" fill="#f0ebe0" transform="translate(535.860,256.000) scale(0.106000,-0.106000)"/>
  <path d="M298 -10Q222 -10 163.5 24.5Q105 59 72.0 120.5Q39 182 39 261Q39 341 72.0 404.0Q105 467 162.5 503.5Q220 540 292 540Q342 540 381.0 525.0Q420 510 448 474H452V559Q452 618 450.5 660.5Q449 703 446 716Q442 737 416.0 746.5Q390 756 337 756V790L590 830V258Q590 184 591.5 143.0Q593 102 597 81Q602 55 615.0 47.5Q628 40 671 40V1L481 -10V64H477Q408 -10 298 -10ZM450 248V287Q450 365 418 415Q400 444 372.0 459.0Q344 474 312 474Q254 474 222.5 419.5Q191 365 191 263Q191 160 222.0 103.5Q253 47 311 47Q344 47 374.0 64.0Q404 81 423 110Q437 132 443.5 164.5Q450 197 450 248Z" fill="#f0ebe0" transform="translate(571.126,256.000) scale(0.106000,-0.106000)"/>
  <path d="M512 128 540 93Q449 -10 313 -10Q231 -10 169.0 24.0Q107 58 72.5 118.5Q38 179 38 258Q38 341 74.5 404.5Q111 468 176.0 504.0Q241 540 325 540Q431 540 490.0 482.5Q549 425 549 323Q549 307 544.0 303.5Q539 300 516 300H194Q190 291 190 267Q190 170 232.5 112.5Q275 55 348 55Q390 55 431.5 74.0Q473 93 512 128ZM201 356H346Q387 356 398.0 360.5Q409 365 409 382Q409 426 384.0 454.0Q359 482 321 482Q278 482 244.5 446.5Q211 411 201 356Z" fill="#f0ebe0" transform="translate(641.690,256.000) scale(0.106000,-0.106000)"/>
  <path d="M328 540Q388 540 441.0 520.0Q494 500 535.0 463.5Q576 427 599.5 377.5Q623 328 623 269Q623 208 599.5 157.0Q576 106 535.0 68.5Q494 31 441.0 10.5Q388 -10 328 -10Q269 -10 216.5 10.5Q164 31 123.5 68.5Q83 106 60.0 157.0Q37 208 37 269Q37 348 77.0 409.0Q117 470 183.0 505.0Q249 540 328 540ZM328 482Q267 482 230.5 423.0Q194 364 194 268Q194 169 230.5 110.0Q267 51 328 51Q391 51 428.5 110.5Q466 170 466 268Q466 332 449.0 380.0Q432 428 401.0 455.0Q370 482 328 482Z" fill="#f0ebe0" transform="translate(700.700,256.000) scale(0.106000,-0.106000)"/>
  <path d="M107 35 85 0H54V182H96Q113 111 145.0 77.5Q177 44 228 44Q265 44 285.5 59.5Q306 75 306 102Q306 130 281.0 156.5Q256 183 200 213Q124 254 91.0 294.5Q58 335 58 386Q58 431 79.5 466.0Q101 501 138.0 521.0Q175 541 221 541Q252 541 283.0 532.0Q314 523 336 507L354 531H380V380H341Q318 437 293.5 462.0Q269 487 234 487Q206 487 189.5 472.0Q173 457 173 432Q173 404 198.0 379.0Q223 354 279 324Q360 281 395.0 239.0Q430 197 430 143Q430 74 380.5 32.0Q331 -10 248 -10Q205 -10 168.0 1.5Q131 13 107 35Z" fill="#f0ebe0" transform="translate(767.660,256.000) scale(0.106000,-0.106000)"/>
  </g>
  <g>
  <path d="M74 0V700H172L424 212L674 700H773V0H689V550L455 100H392L158 549V0Z" fill="#7a6a58" transform="translate(100.000,301.000) scale(0.030000,-0.030000)"/>
  <path d="M250 -12Q162 -12 110.0 41.5Q58 95 58 206V496H142V215Q142 60 269 60Q334 60 376.5 106.5Q419 153 419 239V496H503V0H427L421 89Q398 42 352.5 15.0Q307 -12 250 -12Z" fill="#7a6a58" transform="translate(125.410,301.000) scale(0.030000,-0.030000)"/>
  <path d="M259 -12Q170 -12 111.0 33.0Q52 78 42 155H128Q136 116 169.5 87.5Q203 59 260 59Q313 59 338.0 81.5Q363 104 363 135Q363 180 330.5 195.0Q298 210 239 222Q199 230 159.0 245.0Q119 260 92.0 287.5Q65 315 65 360Q65 425 113.5 466.5Q162 508 245 508Q324 508 374.5 468.5Q425 429 433 356H350Q345 394 317.5 415.5Q290 437 244 437Q199 437 174.5 418.0Q150 399 150 368Q150 338 181.5 321.0Q213 304 267 292Q313 282 354.5 267.5Q396 253 422.5 224.5Q449 196 449 142Q450 75 398.5 31.5Q347 -12 259 -12Z" fill="#7a6a58" transform="translate(142.570,301.000) scale(0.030000,-0.030000)"/>
  <path d="M120 606Q95 606 78.5 622.5Q62 639 62 664Q62 688 78.5 704.0Q95 720 120 720Q144 720 161.0 704.0Q178 688 178 664Q178 639 161.0 622.5Q144 606 120 606ZM78 0V496H162V0Z" fill="#7a6a58" transform="translate(157.570,301.000) scale(0.030000,-0.030000)"/>
  <path d="M297 -12Q226 -12 169.5 20.5Q113 53 80.5 111.5Q48 170 48 248Q48 326 80.5 384.5Q113 443 169.5 475.5Q226 508 297 508Q385 508 445.5 462.0Q506 416 522 339H436Q426 385 387.0 410.5Q348 436 296 436Q254 436 217.0 415.0Q180 394 157.0 352.0Q134 310 134 248Q134 186 157.0 144.0Q180 102 217.0 80.5Q254 59 296 59Q348 59 387.0 84.5Q426 110 436 157H522Q507 82 446.0 35.0Q385 -12 297 -12Z" fill="#7a6a58" transform="translate(164.740,301.000) scale(0.030000,-0.030000)"/>
  <path d="M212 0 24 496H112L261 81L411 496H497L309 0Z" fill="#7a6a58" transform="translate(189.790,301.000) scale(0.030000,-0.030000)"/>
  <path d="M120 606Q95 606 78.5 622.5Q62 639 62 664Q62 688 78.5 704.0Q95 720 120 720Q144 720 161.0 704.0Q178 688 178 664Q178 639 161.0 622.5Q144 606 120 606ZM78 0V496H162V0Z" fill="#7a6a58" transform="translate(205.420,301.000) scale(0.030000,-0.030000)"/>
  <path d="M294 -12Q220 -12 164.5 22.0Q109 56 78.5 115.0Q48 174 48 249Q48 324 79.0 382.5Q110 441 165.0 474.5Q220 508 295 508Q356 508 403.0 483.0Q450 458 476 413V720H560V0H484L476 82Q452 46 407.0 17.0Q362 -12 294 -12ZM303 61Q353 61 391.5 84.5Q430 108 451.5 150.0Q473 192 473 248Q473 304 451.5 346.0Q430 388 391.5 411.5Q353 435 303 435Q254 435 215.5 411.5Q177 388 155.5 346.0Q134 304 134 248Q134 192 155.5 150.0Q177 108 215.5 84.5Q254 61 303 61Z" fill="#7a6a58" transform="translate(212.590,301.000) scale(0.030000,-0.030000)"/>
  <path d="M292 -12Q221 -12 166.0 20.5Q111 53 79.5 111.0Q48 169 48 248Q48 326 79.0 384.5Q110 443 165.5 475.5Q221 508 294 508Q366 508 418.5 475.5Q471 443 499.0 390.0Q527 337 527 276Q527 265 526.5 254.0Q526 243 526 229H131Q134 172 157.5 134.5Q181 97 216.5 78.0Q252 59 292 59Q344 59 379.0 83.0Q414 107 430 148H513Q493 79 436.5 33.5Q380 -12 292 -12ZM292 437Q232 437 185.5 400.5Q139 364 132 294H444Q441 361 398.0 399.0Q355 437 292 437Z" fill="#7a6a58" transform="translate(231.430,301.000) scale(0.030000,-0.030000)"/>
  <path d="M295 -12Q225 -12 169.0 20.0Q113 52 80.5 110.5Q48 169 48 248Q48 327 81.0 385.5Q114 444 170.5 476.0Q227 508 297 508Q367 508 423.0 476.0Q479 444 511.5 385.5Q544 327 544 248Q544 169 511.0 110.5Q478 52 421.5 20.0Q365 -12 295 -12ZM295 60Q338 60 375.0 81.0Q412 102 435.0 144.0Q458 186 458 248Q458 310 435.5 352.0Q413 394 376.0 415.0Q339 436 297 436Q254 436 217.0 415.0Q180 394 157.0 352.0Q134 310 134 248Q134 186 157.0 144.0Q180 102 216.5 81.0Q253 60 295 60Z" fill="#7a6a58" transform="translate(248.500,301.000) scale(0.030000,-0.030000)"/>
  <path d="M259 -12Q170 -12 111.0 33.0Q52 78 42 155H128Q136 116 169.5 87.5Q203 59 260 59Q313 59 338.0 81.5Q363 104 363 135Q363 180 330.5 195.0Q298 210 239 222Q199 230 159.0 245.0Q119 260 92.0 287.5Q65 315 65 360Q65 425 113.5 466.5Q162 508 245 508Q324 508 374.5 468.5Q425 429 433 356H350Q345 394 317.5 415.5Q290 437 244 437Q199 437 174.5 418.0Q150 399 150 368Q150 338 181.5 321.0Q213 304 267 292Q313 282 354.5 267.5Q396 253 422.5 224.5Q449 196 449 142Q450 75 398.5 31.5Q347 -12 259 -12Z" fill="#7a6a58" transform="translate(266.260,301.000) scale(0.030000,-0.030000)"/>
  <path d="M151 196 147 357H178Q234 357 282.5 368.0Q331 379 361.0 411.0Q391 443 391 507Q391 569 352.5 605.0Q314 641 251 641Q187 641 150.0 606.0Q113 571 113 512H33Q33 572 60.5 617.0Q88 662 137.0 687.0Q186 712 251 712Q316 712 366.0 687.0Q416 662 444.0 616.0Q472 570 472 507Q472 433 440.5 387.0Q409 341 353.5 320.0Q298 299 227 299L224 196ZM187 -5Q162 -5 145.5 11.5Q129 28 129 52Q129 76 145.5 92.5Q162 109 187 109Q212 109 228.0 92.5Q244 76 244 52Q244 28 228.0 11.5Q212 -5 187 -5Z" fill="#7a6a58" transform="translate(281.260,301.000) scale(0.030000,-0.030000)"/>
  <path d="M297 -12Q220 -12 163.0 16.0Q106 44 75.0 94.0Q44 144 44 210H132Q132 169 151.0 134.5Q170 100 206.5 79.5Q243 59 297 59Q368 59 407.0 93.0Q446 127 446 178Q446 220 428.0 245.5Q410 271 379.5 287.0Q349 303 309.5 315.0Q270 327 227 342Q146 370 107.0 411.5Q68 453 68 520Q67 576 94.0 619.5Q121 663 170.5 687.5Q220 712 288 712Q355 712 404.5 687.0Q454 662 481.5 618.0Q509 574 510 518H422Q422 547 407.0 575.5Q392 604 361.5 622.0Q331 640 285 640Q228 641 191.5 611.0Q155 581 155 528Q155 483 180.5 459.0Q206 435 252.0 419.5Q298 404 358 384Q408 366 448.0 342.0Q488 318 510.5 280.0Q533 242 533 183Q533 133 507.0 88.5Q481 44 428.5 16.0Q376 -12 297 -12Z" fill="#7a6a58" transform="translate(304.690,301.000) scale(0.030000,-0.030000)"/>
  <path d="M295 -12Q225 -12 169.0 20.0Q113 52 80.5 110.5Q48 169 48 248Q48 327 81.0 385.5Q114 444 170.5 476.0Q227 508 297 508Q367 508 423.0 476.0Q479 444 511.5 385.5Q544 327 544 248Q544 169 511.0 110.5Q478 52 421.5 20.0Q365 -12 295 -12ZM295 60Q338 60 375.0 81.0Q412 102 435.0 144.0Q458 186 458 248Q458 310 435.5 352.0Q413 394 376.0 415.0Q339 436 297 436Q254 436 217.0 415.0Q180 394 157.0 352.0Q134 310 134 248Q134 186 157.0 144.0Q180 102 216.5 81.0Q253 60 295 60Z" fill="#7a6a58" transform="translate(322.030,301.000) scale(0.030000,-0.030000)"/>
  <path d="M69 0V496H145L152 401Q175 450 222.0 479.0Q269 508 338 508V420H315Q271 420 234.0 404.5Q197 389 175.0 352.0Q153 315 153 250V0Z" fill="#7a6a58" transform="translate(339.790,301.000) scale(0.030000,-0.030000)"/>
  <path d="M265 0Q197 0 158.0 33.0Q119 66 119 152V425H33V496H119L130 615H203V496H349V425H203V152Q203 105 222.0 88.5Q241 72 289 72H341V0Z" fill="#7a6a58" transform="translate(350.680,301.000) scale(0.030000,-0.030000)"/>
  <path d="M292 -12Q221 -12 166.0 20.5Q111 53 79.5 111.0Q48 169 48 248Q48 326 79.0 384.5Q110 443 165.5 475.5Q221 508 294 508Q366 508 418.5 475.5Q471 443 499.0 390.0Q527 337 527 276Q527 265 526.5 254.0Q526 243 526 229H131Q134 172 157.5 134.5Q181 97 216.5 78.0Q252 59 292 59Q344 59 379.0 83.0Q414 107 430 148H513Q493 79 436.5 33.5Q380 -12 292 -12ZM292 437Q232 437 185.5 400.5Q139 364 132 294H444Q441 361 398.0 399.0Q355 437 292 437Z" fill="#7a6a58" transform="translate(362.290,301.000) scale(0.030000,-0.030000)"/>
  <path d="M294 -12Q220 -12 164.5 22.0Q109 56 78.5 115.0Q48 174 48 249Q48 324 79.0 382.5Q110 441 165.0 474.5Q220 508 295 508Q356 508 403.0 483.0Q450 458 476 413V720H560V0H484L476 82Q452 46 407.0 17.0Q362 -12 294 -12ZM303 61Q353 61 391.5 84.5Q430 108 451.5 150.0Q473 192 473 248Q473 304 451.5 346.0Q430 388 391.5 411.5Q353 435 303 435Q254 435 215.5 411.5Q177 388 155.5 346.0Q134 304 134 248Q134 192 155.5 150.0Q177 108 215.5 84.5Q254 61 303 61Z" fill="#7a6a58" transform="translate(379.360,301.000) scale(0.030000,-0.030000)"/>
  <path d="M98 -5Q73 -5 56.5 11.5Q40 28 40 52Q40 76 56.5 92.5Q73 109 98 109Q122 109 138.5 92.5Q155 76 155 52Q155 28 138.5 11.5Q122 -5 98 -5Z" fill="#7a6a58" transform="translate(398.200,301.000) scale(0.030000,-0.030000)"/>
  </g>
  <g transform="translate(959,159) scale(1.975)">
    <rect x="8"  y="36" width="18" height="30" rx="3" fill="#5aaa7a" opacity="0.58"/>
    <rect x="31" y="16" width="18" height="50" rx="3" fill="#5aaa7a" opacity="0.58"/>
    <rect x="54" y="26" width="18" height="40" rx="3" fill="#5aaa7a" opacity="0.58"/>
  </g>
</svg>