<?xml version="1.0" encoding="UTF-8"?>
<svg id="Layer_1" xmlns="http://www.w3.org/2000/svg" version="1.1" viewBox="0 0 1254 1254">
  <defs>
    <style>
      .st0 {
        fill: #2c1a0e;
      }

      .st1 {
        fill: #f0e6cf;
      }
    </style>
  </defs>
  <rect class="st0" width="1254" height="1254" rx="220" ry="220"/>
  <path class="st1" d="M367.2,783.3c-3.2-38.5-4.4-82.3-24-114-19.4-31.8-30.5-32.9-53-38.3l-43-7.4c-33.5-4-66.6-6.6-100.4-7.8l-34.3,2.8-12.4-146.4c-1.7-19.9,1-38.6,12.2-55.5,11.2-16.9,36.7-34.9,62.5-34.9l374.1.3c42.4,0,75.9,33.2,80,73.8l17.5,176.4c-12.2,8.2-19.5,19.4-25.6,32.4-5.2,13.9-7.4,28.2-8.1,43.3v56.5c-59,0-116.4,0-174.5,4.9-25,2-48.3,6.1-71,14h0,0l.2-.2Z"/>
  <g>
    <path class="st1" d="M804.7,1013.7l.8-197.8,2.4-51.9c1.6-35.1,8-73.8,41.2-88.7,1.1-3.2-2.4-7.2-4.3-8.6-2.8-2-6.7-2-10.3-1-26.4,8.7-40.7,45.8-42.5,72.5l-4.3,61.8c-12.4-10.7-26.1-17.6-42.1-21.7-37.7-9.7-75.8-13.6-115-13.1v-51.5c0-12.6,1.1-24.5,4.9-36.2,7.7-24.9,29-41.6,55-43.7h40.6c40.6,0,80.1,1.4,120.5,6.6,23.3,3.1,41,22.4,46.7,44.4,6.4,25-2.8,49-20.8,66.3-3.2,3.1-7.7,7.3-9.2,11.9v236.5c0,9.1-1.6,16.1-7.2,23.3v108.1c0,3.7-.8,7.4-4.9,7.4l-42.5-.5-9.5-85,.6-39.5h0,0v.2Z"/>
    <path class="st1" d="M787.3,900.7v124.6l-284.8,5.8-132.7,2,.9-54.2,1-77.9c8.7,4.4,18.3,7.8,29,7.7l147.5-.6,206.2-3.1c11.2,0,20.1-.9,33.3-4.5h-.2v.2h-.2Z"/>
    <path class="st1" d="M625.2,890l-120.2,1h-107.9c-8.1,0-22.3-4.8-23.1-13.2l-5.8-74c17.8-9.2,36.2-13.2,56.3-15.6,39.7-4.5,78.5-4.9,118.7-5.3,40.7-.5,79.6-1.1,119.9,1,40.2,2.4,64.9,6.1,95.6,17.5,16.4,6.1,27.4,18.5,29.3,36,1.5,12.6,1,25.5-2.4,37.6-2.3,8.2-8.4,12.2-17,12.4l-143.6,2.4h0v.2h0Z"/>
    <g>
      <path class="st1" d="M164,996.9c-19.5-8.6-33.2-24.1-36.7-45.3l-20.9-129.3c-6.4-39.5-13-77.4-16.8-117.2-2.7-28.3-3-59,23.6-70.7,14.9-1.9,29-1.1,44-.3,36.7,2,72.5,4,108.6,11.1-24.9,12.4-38.2,33.8-40,59.8-1.7,26,14.2,54.4,42.1,64.8v259.6c-36.6-6.7-70.1-17.6-103.8-32.5h0Z"/>
      <path class="st1" d="M333.7,1140.9c-1.3.9-2.8,1.3-4.3,1.3l-37.5-.2c-4.2,0-4.9-4.5-5-7.7l-1.5-65.3v-301.8c0-7.6-4.8-12-11-14.3-20.9-7.8-32.9-27.2-30.5-49.3s10.3-31.2,25.1-39.7c20.6-11.9,45.2-5.5,57.8,14.5,8.8,14,13.4,29.1,15.9,45.8,4.9,31.6,6.4,62.4,8.4,94.4,2.4,34.9,3.3,68.2,2.7,103.3l-1.9,113.6c-.6,32.3-5.9,63.2-11.1,94.7-.7,4.4-3.2,8.3-7,10.8h0Z"/>
      <path class="st1" d="M201.2,1101l-38.1.8c-4,0-5.9-3.7-5.3-7.4l2.7-81.2,52.8,19.4-12.2,68.6h.2v-.2Z"/>
    </g>
  </g>
  <path class="st1" d="M1048.3,1137.6c-28.3-.2-164.9,0-164.9,0-10.1,0-10.9-27,11.4-39.5,14.2-8,29.4-13.5,45.1-17.9,2.9-.8,5.2-3,6.1-5.8h0c.5-1.6,1.5-3,2.7-3.9,2.1-1.7,4.6-2.6,7.4-3.2,4.2-1,7.2-4.8,7.2-9.1l.2-414.8c0-3.1-1.5-6-4.1-7.7-8.5-5.5-13.9-13.9-14.3-23.8-.4-10.2,4.6-19.9,13.8-25.5s4.4-4.6,4.4-7.9v-70.2c0-4-2.6-7.6-6.5-8.8-14.1-4.5-25.1-11.6-23.4-26.5.6-5.2,2.3-9.4,5.9-12,4.9-3.5,8.7-3.5,12.7-2.4,5.8,1.5,11.5-3,11.5-9v-17.2c0-5.1-4.1-9.3-9.3-9.3h-141.8c-1.7,0-3-.6-3.5-1.3-1-1.1-1.6-2.6-.7-4.9l88.3-244.6c1.6-4.2,4.5-6.8,9-6.8h150.6c4.8,0,7.2,3,8.7,7.2l85.2,244c.7,2.2.6,3.4-.2,4.9s-2.3,1.7-4.7,1.7h-138.7c-5.1,0-9.3,4.1-9.3,9.3v20c0,6,5.7,10.5,11.5,9s8.3-4.2,12.4-2.9c6.6,2,7.3,4.1,9.4,8.6,2.6,6.8,1.6,14.2-1.9,19.4-4.3,6.6-7,11-14.4,13.3s-6.3,1.9-8.7,2.4c-4.5.8-7.9,4.5-7.9,9.1v66.1c0,3.4,1.8,6.6,4.8,8.3,9.1,4.9,14.5,13.8,14.6,24.1.2,10.7-5.2,20.4-14.8,25.8-2.9,1.7-4.7,4.7-4.7,8v392l.2,23.2c0,4.1,2.7,7.9,6.7,8.8s6.5,4.2,8.3,7.4,3.1,3.7,5.5,4.4c14.2,4.3,37.3,12.7,45,19.6,7.7,6.9,6.3,6.6,6.7,8.3,1.8,7.3,3.1,30.6-21.4,30.4v-.2Z"/>
</svg>