<?xml version="1.0" encoding="UTF-8"?>
<svg id="Layer_1" xmlns="http://www.w3.org/2000/svg" version="1.1" viewBox="0 0 1254 1254">
  <defs>
    <style>
      .st0 { fill: #f0e6cf; }
    </style>
  </defs>
  <rect width="1254" height="1254" rx="220" fill="#2C1A0E"/>
  <path class="st0" d="M331.1,801.8c-3.7-44-5-94.1-27.4-130.3-22.2-36.3-34.9-37.6-60.6-43.8l-49.1-8.5c-38.3-4.6-76.1-7.6-114.8-8.9l-39.2,3.2-14.2-167.3c-2-22.7,1.1-44.1,13.9-63.4,12.8-19.3,41.9-39.9,71.4-39.9l427.6.4c48.5,0,86.8,37.9,91.5,84.4l20,201.6c-13.9,9.4-22.3,22.2-29.3,37-6,15.9-8.5,32.2-9.3,49.5v64.6c-67.4,0-133,0-199.5,5.6-28.6,2.3-55.2,7-81.2,16h.1-.1Z"/>
  <g>
    <path class="st0" d="M831.2,1065.2l.9-226.1,2.7-59.3c1.8-40.1,9.2-84.4,47.1-101.4,1.3-3.7-2.7-8.2-4.9-9.8-3.2-2.3-7.7-2.3-11.8-1.1-30.2,9.9-46.5,52.3-48.6,82.9l-4.9,70.7c-14.2-12.2-29.8-20.1-48.1-24.8-43.1-11.1-86.6-15.5-131.5-15v-58.9c0-14.4,1.3-28,5.6-41.4,8.8-28.5,33.1-47.6,62.9-49.9h46.4c46.4,0,91.6,1.6,137.7,7.6,26.6,3.5,46.9,25.6,53.4,50.8,7.3,28.6-3.2,56-23.8,75.8-3.7,3.5-8.8,8.3-10.5,13.6v270.3c-.1,10.4-1.8,18.4-8.2,26.6v123.6c0,4.2-.9,8.5-5.6,8.5l-48.6-.6-10.9-97.2.7-45.1h.1-.1Z"/>
    <path class="st0" d="M811.3,936v142.4l-325.5,6.6-151.7,2.3,1-61.9,1.1-89c9.9,5,20.9,8.9,33.1,8.8l168.6-.7,235.7-3.5c12.8,0,23-1,38.1-5.1h-.2v.2Z"/>
    <path class="st0" d="M626,923.8l-137.4,1.2h-123.3c-9.3,0-25.5-5.5-26.4-15.1l-6.6-84.6c20.4-10.5,41.4-15.1,64.4-17.8,45.4-5.1,89.7-5.6,135.7-6.1,46.5-.6,91-1.3,137.1,1.2,46,2.7,74.2,7,109.3,20,18.8,7,31.3,21.2,33.5,41.2,1.7,14.4,1.1,29.1-2.7,43-2.6,9.4-9.6,14-19.4,14.2l-164.1,2.7h-.1v.2Z"/>
    <g>
      <path class="st0" d="M98.8,1046c-22.3-9.8-38-27.6-42-51.8l-23.9-147.8c-7.3-45.1-14.9-88.5-19.2-134-3.1-32.4-3.4-67.5,27-80.8,17-2.2,33.1-1.3,50.3-.4,42,2.3,82.9,4.6,124.1,12.7-28.5,14.2-43.7,38.6-45.7,68.4-2,29.7,16.2,62.2,48.1,74.1v296.7c-41.8-7.7-80.1-20.1-118.7-37.1h0Z"/>
      <path class="st0" d="M292.8,1210.6c-1.5,1-3.2,1.5-4.9,1.5l-42.9-.2c-4.8,0-5.6-5.1-5.7-8.8l-1.7-74.6v-345c0-8.7-5.5-13.7-12.6-16.4-23.9-8.9-37.6-31.1-34.9-56.4s11.8-35.7,28.7-45.4c23.6-13.6,51.7-6.3,66.1,16.6,10.1,16,15.3,33.3,18.2,52.4,5.6,36.1,7.3,71.3,9.6,107.9,2.7,39.9,3.8,78,3.1,118.1l-2.2,129.8c-.7,36.9-6.8,72.3-12.7,108.2-.8,5-3.7,9.5-8,12.3h0Z"/>
      <path class="st0" d="M141.3,1165l-43.6.9c-4.6,0-6.8-4.2-6.1-8.5l3.1-92.8,60.4,22.2-14,78.4h.2Z"/>
    </g>
  </g>
  <path class="st0" d="M1109.7,1206.9c-32.3-.2-188.5,0-188.5,0-11.6,0-12.5-30.9,13-45.2,16.2-9.2,33.6-15.4,51.6-20.5,3.3-.9,5.9-3.4,7-6.6h0c.6-1.8,1.7-3.4,3.1-4.5,2.4-1.9,5.3-3,8.5-3.7,4.8-1.1,8.2-5.5,8.2-10.4l.2-474.2c0-3.5-1.7-6.9-4.7-8.8-9.7-6.3-15.9-15.9-16.3-27.2-.5-11.7,5.3-22.7,15.8-29.2s5-5.3,5-9v-80.3c0-4.6-3-8.7-7.4-10.1-16.1-5.2-28.7-13.3-26.8-30.3.7-5.9,2.6-10.7,6.7-13.7,5.6-4,9.9-4,14.5-2.8,6.6,1.7,13.1-3.4,13.1-10.3v-19.7c0-5.8-4.7-10.6-10.6-10.6h-162.1c-2,0-3.4-.7-4-1.5-1.1-1.3-1.8-3-.8-5.6l100.9-279.6c1.8-4.8,5.2-7.8,10.3-7.8h172.1c5.5,0,8.2,3.4,10,8.2l97.4,278.9c.8,2.5.7,3.9-.2,5.6s-2.6,2-5.4,2h-158.6c-5.8,0-10.6,4.7-10.6,10.6v22.9c0,6.9,6.5,12,13.2,10.3s9.5-4.8,14.2-3.3c7.5,2.3,8.4,4.7,10.7,9.8,3,7.8,1.8,16.2-2.2,22.2-4.9,7.5-8,12.6-16.5,15.2s-7.2,2.2-10,2.7c-5.1.9-9,5.2-9,10.4v75.6c0,3.9,2.1,7.6,5.5,9.5,10.4,5.6,16.6,15.8,16.7,27.6.2,12.2-6,23.3-16.9,29.5-3.3,1.9-5.4,5.4-5.4,9.2v448.1l.2,26.5c0,4.7,3.1,9,7.7,10.1s7.4,4.8,9.5,8.5,3.6,4.2,6.3,5c16.2,4.9,42.6,14.5,51.4,22.4s7.2,7.5,7.7,9.5c2.1,8.3,3.5,35-24.5,34.8Z"/>
</svg>
