<?xml version="1.0" encoding="UTF-8"?>
<svg id="Layer_1" xmlns="http://www.w3.org/2000/svg" xmlns:xlink="http://www.w3.org/1999/xlink" version="1.1" viewBox="0 0 2500 1000">
  <defs>
    <style>
      .st0 {
        filter: url(#texture);
        isolation: isolate;
        opacity: .2;
      }

      .st1 {
        fill: #2c1a0e;
      }

      .st2 {
        fill: url(#radial-gradient);
      }

      .st3 {
        fill: none;
        stroke: #42301f;
        stroke-width: 1.2px;
      }

      .st4 {
        opacity: 0;
      }

      .st5 {
        opacity: 0;
      }

      .st6 {
        fill: #f0e6cf;
      }

      .st7 {
        fill: #f0e6cf;
      }

      .st8 {
        fill: #3b2416;
      }
    </style>
    <radialGradient id="radial-gradient" cx=".5" cy="999.6" fx=".5" fy="999.6" r=".8" gradientTransform="translate(0 1000000) scale(2500 -1000)" gradientUnits="userSpaceOnUse">
      <stop offset="0" stop-color="#341f12" stop-opacity=".2"/>
      <stop offset="1" stop-color="#24150c" stop-opacity=".1"/>
    </radialGradient>
    <filter id="texture" x="-20%" y="-20%" width="140%" height="140%">
      <feTurbulence baseFrequency="0.8" numOctaves="2" result="noise" type="fractalNoise"/>
      <feColorMatrix in="noise" result="faintNoise" values="           1 0 0 0 0           0 1 0 0 0           0 0 1 0 0           0 0 0 0.12 0"/>
    </filter>
  </defs>
  <rect class="st1" width="2500" height="1000"/>
  <rect class="st2" width="2500" height="1000"/>
  <g class="st0">
    <rect width="2500" height="1000"/>
  </g>
  <g class="st5">
    <circle class="st8" cx="120" cy="80" r="2.2"/>
    <circle class="st8" cx="290" cy="165" r="1.9"/>
    <circle class="st8" cx="460" cy="115" r="2.1"/>
    <circle class="st8" cx="620" cy="220" r="1.8"/>
    <circle class="st8" cx="805" cy="95" r="2"/>
    <circle class="st8" cx="980" cy="180" r="1.9"/>
    <circle class="st8" cx="1150" cy="140" r="2.2"/>
    <circle class="st8" cx="1330" cy="250" r="1.8"/>
    <circle class="st8" cx="1515" cy="120" r="2.1"/>
    <circle class="st8" cx="1690" cy="210" r="1.9"/>
    <circle class="st8" cx="1870" cy="150" r="2.2"/>
    <circle class="st8" cx="2050" cy="240" r="1.8"/>
    <circle class="st8" cx="2240" cy="130" r="2.1"/>
    <circle class="st8" cx="2410" cy="200" r="1.9"/>
    <circle class="st8" cx="90" cy="820" r="1.9"/>
    <circle class="st8" cx="250" cy="900" r="2.1"/>
    <circle class="st8" cx="430" cy="760" r="1.8"/>
    <circle class="st8" cx="610" cy="870" r="2"/>
    <circle class="st8" cx="790" cy="810" r="1.9"/>
    <circle class="st8" cx="970" cy="920" r="2.2"/>
    <circle class="st8" cx="1140" cy="780" r="1.8"/>
    <circle class="st8" cx="1310" cy="890" r="2"/>
    <circle class="st8" cx="1490" cy="800" r="1.9"/>
    <circle class="st8" cx="1670" cy="930" r="2.1"/>
    <circle class="st8" cx="1850" cy="770" r="1.8"/>
    <circle class="st8" cx="2030" cy="860" r="2"/>
    <circle class="st8" cx="2210" cy="805" r="1.9"/>
    <circle class="st8" cx="2400" cy="910" r="2.1"/>
  </g>
  <g class="st4">
    <path class="st3" d="M-30,150c210-40,380,40,590,0s390-45,720,5,470,55,1250-15"/>
    <path class="st3" d="M-30,500c200-45,390,45,610,0s380-50,680,5,520,55,1270-15"/>
    <path class="st3" d="M-30,840c230-50,430,40,650-5s390-55,680,10,470,65,1230-20"/>
  </g>
  <path class="st7" d="M371.5,402.4c-.6,6.7-1.1,13.1-1.3,19.5-.2,6.3-.4,11.1-.4,14.5s0,7.2.2,10.5c.1,3.3.4,6.2.5,8.6h-5.5c-1.6-12-3.7-21.3-6.3-28.2-2.6-6.8-6.5-11.7-11.4-14.8-4.9-3-12-4.5-21.3-4.5h-10.3v136c0,6.3.6,11.1,1.8,14.3s3.6,5.3,7.2,6.3c3.6,1.1,8.8,1.7,15.7,2v4.8c-4.4-.4-10.2-.5-17.2-.6h-43.1c-6.8,0-12.2.2-16.4.6v-4.8c6.8-.4,12-1,15.5-2,3.5-1.1,5.9-3.1,7.2-6.3s1.9-8,1.9-14.3v-136h-10.5c-9,0-15.9,1.6-21,4.5-5.1,3-9,8-11.5,14.8-2.5,6.8-4.7,16.3-6.2,28.2h-5.5c.4-2.4.5-5.3.6-8.6v-10.5c0-3.7,0-8.1-.4-14.5-.2-6.3-.7-12.8-1.3-19.5,6.8.1,14.3.4,22.5.5s16.3.2,24.6.2h44.6c8.1,0,16.3,0,24.6-.2,8.2-.1,15.8-.4,22.5-.5h.2Z"/>
  <path class="st7" d="M424.5,384.6v86.9c3.9-9.8,9.6-16.7,16.9-20.7s14.9-5.9,23.1-5.9,11.6.8,15.7,2.5c4.1,1.7,7.4,3.9,10.2,6.8,2.9,3,4.9,6.9,6.2,11.7,1.3,4.8,1.9,11.2,1.9,19.4v63.9c0,6.7,1.3,11.2,3.9,13.6s7.1,3.6,13.3,3.6v5c-2.9-.1-7.2-.4-12.9-.6s-11.4-.4-16.7-.4-11,.1-16.4.4-9.3.5-11.8.6v-5c5.4,0,9.2-1.2,11.5-3.6,2.3-2.4,3.3-6.9,3.3-13.6v-70.6c0-4.7-.4-8.8-1.2-12.5s-2.5-6.8-5.1-9.1-6.5-3.5-11.6-3.5-10.9,1.7-15.4,4.9c-4.5,3.2-8.1,7.8-10.8,13.5s-3.9,12.2-3.9,19.6v57.7c0,6.7,1.1,11.2,3.3,13.6,2.3,2.4,6.1,3.6,11.5,3.6v5c-2.7-.1-6.7-.4-11.8-.6-5.1-.2-10.5-.4-15.9-.4s-11.2.1-17.1.4c-5.9.2-10.2.5-13,.6v-5c6.2,0,10.6-1.2,13.3-3.6,2.6-2.4,3.9-6.9,3.9-13.6v-136c0-7.2-1.2-12.4-3.7-15.9s-6.9-5.1-13.5-5.1v-5c5.1.5,10,.7,14.8.7s10.3-.2,15.1-.8,9.2-1.4,13.1-2.5h0Z"/>
  <path class="st7" d="M584.3,444.9c14,0,25,4.2,32.9,12.7,8,8.5,12,21.8,12,40h-82.3l-.5-4.5h57.5c.1-7.8-.5-14.9-1.9-21.6-1.4-6.6-3.7-11.8-6.7-15.9-3-3.9-7.1-6-12-6s-12.8,3.6-17.8,10.9-8.1,18.8-9.2,34.7l.7,1.2c-.1,2.3-.4,4.7-.5,7.3-.1,2.6-.2,5.3-.2,7.8,0,11,1.7,20.2,5,27.7,3.3,7.5,7.8,13,13.1,16.9,5.4,3.7,10.9,5.6,16.5,5.6s8.5-.7,12.5-2c4.1-1.3,7.9-3.7,11.6-6.9,3.7-3.2,6.9-7.8,9.8-13.5l4.8,1.9c-1.9,5.4-4.9,10.8-8.8,16-3.9,5.3-9.1,9.6-15.3,12.8-6.2,3.2-13.4,4.9-21.8,4.9s-20.8-2.5-29.2-7.5c-8.2-5-14.6-12.2-19.1-21.6-4.4-9.4-6.7-20.6-6.7-33.3s2.3-26.3,6.9-36.2c4.7-10,11.1-17.7,19.5-23.1,8.4-5.4,18-8,29-8h.1Z"/>
  <path class="st7" d="M706.6,402.4c3.7.1,8.4.4,14.2.5s11.6.2,17.3.2,14.9,0,21.9-.2c6.9-.1,11.8-.2,14.7-.2,13.5,0,24.7,1.8,33.7,5.3s15.7,8.4,20.1,14.7,6.6,13.5,6.6,21.6-1,10.2-3,15.7-5.5,10.6-10.4,15.3c-4.9,4.7-11.6,8.6-20.1,11.6s-19.1,4.5-32.1,4.5h-22.9v-4.8h20.6c10.6,0,18.8-1.8,24.5-5.4,5.6-3.6,9.4-8.4,11.5-14.3,2-6,3-12.5,3-20,0-12.5-2.7-22.3-8.1-29.3s-14.8-10.4-28.2-10.4-11.4,1.3-13.5,4.1-3.2,8.2-3.2,16.5v118.3c0,5.7.5,10,1.4,12.9,1,2.9,2.7,4.8,5.5,5.7s6.7,1.6,12,1.9v4.8c-3.8-.4-8.6-.5-14.5-.6h-36.6c-5.9,0-10.5.2-14.2.6v-4.8c5.4-.4,9.4-1,12.2-1.9s4.5-2.9,5.4-5.7c.8-2.9,1.3-7.2,1.3-12.9v-118.3c0-5.9-.5-10.2-1.3-13-.8-2.7-2.7-4.7-5.5-5.7s-6.8-1.7-12.1-1.8v-4.8h0ZM746.9,487.1c8.1.4,14.6.7,19.6,1.1,4.9.4,9.1.7,12.4,1.1,3.3.4,6.5.7,9.3,1.2,12,1.6,20.7,4.8,26.2,9.6,5.5,4.8,9.3,12.1,11.4,22l6,24.4c1.4,6.8,3,11.7,4.7,14.6s4.2,4.3,7.5,4.3c2.5-.1,4.7-1,6.3-2.3,1.7-1.3,3.5-3.2,5.4-5.6l3.3,2.6c-3.7,4.9-7.5,8.6-11.5,11.1-3.9,2.5-9.3,3.7-16,3.7s-12.7-1.8-17.6-5.4c-4.9-3.6-8.4-10.4-10.4-20.4l-4.8-23.9c-1.4-6.8-3-12.8-4.8-17.8-1.8-5-4.2-9-7.3-11.8s-7.6-4.3-13.5-4.3h-25.8l-.5-4.1h0Z"/>
  <path class="st7" d="M921.2,444.9c14,0,25,4.2,32.9,12.7,8,8.5,12,21.8,12,40h-82.3l-.5-4.5h57.5c.1-7.8-.5-14.9-1.9-21.6-1.4-6.6-3.7-11.8-6.7-15.9-3-3.9-7.1-6-12-6s-12.8,3.6-17.8,10.9-8.1,18.8-9.2,34.7l.7,1.2c-.1,2.3-.4,4.7-.5,7.3-.1,2.6-.2,5.3-.2,7.8,0,11,1.7,20.2,5,27.7s7.8,13,13.1,16.9c5.4,3.7,10.9,5.6,16.5,5.6s8.5-.7,12.5-2c4.1-1.3,7.9-3.7,11.6-6.9s6.9-7.8,9.8-13.5l4.8,1.9c-1.9,5.4-4.9,10.8-8.8,16-3.9,5.3-9.1,9.6-15.3,12.8-6.2,3.2-13.4,4.9-21.8,4.9s-20.8-2.5-29.2-7.5c-8.2-5-14.6-12.2-19.1-21.6-4.4-9.4-6.7-20.6-6.7-33.3s2.3-26.3,6.9-36.2c4.7-10,11.1-17.7,19.5-23.1,8.4-5.4,18-8,29-8h.1Z"/>
  <path class="st7" d="M1016,572.9c-6.7,0-12.4-1.3-17.2-3.8-4.8-2.5-8.4-6.1-10.8-10.5s-3.6-9.6-3.6-15.3,1.6-12.7,4.8-17.1c3.2-4.4,7.3-7.9,12.3-10.6,5-2.7,10.3-5,16-6.8,5.6-1.8,11-3.6,16-5.3,5-1.7,9.2-3.6,12.4-5.9,3.2-2.3,4.9-5.1,4.9-8.8v-16.3c0-5.7-1-10.3-2.7-13.7s-4.3-5.9-7.4-7.3-6.8-2.2-11.1-2.2-7.5.5-11.7,1.6-7.4,3.1-9.8,6.1c3.5,1,6.5,2.9,8.7,5.6,2.3,2.7,3.5,6.2,3.5,10.4s-1.4,8-4.4,10.5c-3,2.5-6.7,3.8-11.1,3.8s-8.6-1.6-11-4.7-3.6-6.7-3.6-10.9,1.1-7.8,3.2-10.5c2.2-2.7,5-5.3,8.5-7.6,3.8-2.5,8.7-4.7,14.7-6.5s12.5-2.6,20-2.6,12.8.7,17.8,2.3c5,1.6,9.2,3.9,12.5,7.3,3.9,3.7,6.6,8.2,7.9,13.7s1.9,12.1,1.9,20v65.8c0,3.9.5,6.8,1.6,8.5,1.1,1.7,2.7,2.5,5.1,2.5s3.1-.4,4.7-1.2,3.3-2,5.4-3.6l2.4,4.1c-3.3,2.7-6.7,4.9-10.2,6.5-3.5,1.6-7.8,2.4-13,2.4s-9.2-.8-12.4-2.4c-3.2-1.6-5.5-3.9-7.1-6.9s-2.3-6.8-2.3-11.2c-4.2,6.7-9.1,11.7-14.8,15.3-5.7,3.5-12.4,5.3-20.1,5.3h0ZM1027.5,561.6c4.4,0,8.6-1.3,12.5-3.8,3.9-2.5,7.5-6.3,10.9-11.5v-47.4c-1.8,2.5-4.3,4.8-7.6,6.6s-6.9,3.7-10.8,5.6c-3.8,1.9-7.4,4.1-10.9,6.6-3.5,2.5-6.2,5.6-8.5,9.4s-3.3,8.7-3.3,14.6,1.6,11.1,4.8,14.7,7.5,5.4,12.9,5.4h0Z"/>
  <path class="st7" d="M1160.9,444.9c7.1,0,13.4,1.6,19.2,4.5s9.9,8.1,12.3,15.3l-2.9,2.6c-2.3-5.7-5.5-9.9-9.8-12.5s-9.2-3.9-14.6-3.9c-9.1,0-16.5,4.8-22.2,14.5-5.7,9.7-8.5,24.5-8.4,44.5,0,13.1,1.1,24,3.3,32.3,2.3,8.4,5.5,14.5,9.9,18.5,4.4,3.9,9.7,6,15.9,6s11.8-2.6,16.9-7.9c5-5.3,8-12.8,9-22.7l2.2,5c-1.6,10.9-5.4,19.1-11.5,25-6.1,5.9-14.1,8.7-24.4,8.7s-18.3-2.4-25.7-7.1c-7.4-4.7-13-11.8-17.1-21.5-3.9-9.7-6-21.8-6-36.3s2.4-26.5,7.3-36.1,11.4-16.9,19.5-21.6c8.1-4.8,17.1-7.2,27-7.2h0ZM1214.5,384.4v161c0,7.2,1.2,12.4,3.7,15.9,2.5,3.5,6.9,5.1,13.5,5.1v5c-4.9-.5-9.9-.7-14.8-.7s-10.5.2-15.2.7c-4.7.5-9.1,1.3-13,2.6v-161c0-7.2-1.2-12.4-3.7-15.9s-6.9-5.1-13.5-5.1v-5c5.1.5,10,.7,14.8.7s10.3-.2,15.1-.8,9.2-1.4,13.1-2.5h0Z"/>
  <path class="st7" d="M1285.9,445.7v103.5c0,6.7,1.3,11.2,3.9,13.6,2.6,2.4,7.1,3.6,13.3,3.6v5c-2.7-.1-6.9-.4-12.5-.6s-11.4-.4-17.3-.4-11.5.1-17.3.4c-5.9.2-10.2.5-13,.6v-5c6.2,0,10.6-1.2,13.3-3.6,2.6-2.4,3.9-6.9,3.9-13.6v-74.9c0-7.2-1.2-12.4-3.6-15.9s-6.9-5.1-13.6-5.1v-5c5.1.5,10,.7,14.8.7s10.4-.2,15.2-.8c4.7-.6,9.1-1.4,13-2.5h0ZM1271.6,388.1c4.9,0,9.1,1.6,12.4,4.7s5,6.9,5,11.6-1.7,8.5-5,11.6c-3.3,3.1-7.5,4.7-12.4,4.7s-9.1-1.6-12.4-4.7-5-6.9-5-11.6,1.7-8.5,5-11.6c3.3-3.1,7.5-4.7,12.4-4.7Z"/>
  <path class="st7" d="M1397.5,444.9c6.3,0,11.6.8,15.7,2.5s7.4,3.9,10.2,6.8c2.9,3,4.9,6.9,6.1,11.7s1.8,11.2,1.8,19.4v63.9c0,6.7,1.3,11.2,3.9,13.6,2.6,2.4,7.1,3.6,13.3,3.6v5c-2.7-.1-6.9-.4-12.7-.6-5.7-.2-11.4-.4-17-.4s-10.8.1-16.1.4-9.3.5-12.1.6v-5c5.4,0,9.2-1.2,11.5-3.6s3.3-6.9,3.3-13.6v-70.6c0-4.7-.4-8.8-1.2-12.5-.8-3.7-2.5-6.8-5-9.1s-6.3-3.5-11.5-3.5-11.1,1.7-15.7,5c-4.5,3.3-8.1,7.9-10.8,13.7s-3.9,12.3-3.9,19.5v57.5c0,6.7,1.2,11.2,3.5,13.6s6.1,3.6,11.4,3.6v5c-2.5-.1-6.5-.4-11.6-.6-5.1-.2-10.5-.4-16.1-.4s-11.1.1-17,.4c-5.9.2-10.3.5-13.1.6v-5c6.2,0,10.6-1.2,13.3-3.6s3.9-6.9,3.9-13.6v-74.9c0-7.2-1.2-12.4-3.6-15.9s-6.9-5.1-13.6-5.1v-5c5.1.5,10,.7,14.8.7s10.4-.2,15.2-.8c4.7-.6,9.1-1.4,13-2.5v26.1c4.2-9.8,9.8-16.7,17.1-20.8,7.3-3.9,14.9-6,23.1-6h0Z"/>
  <path class="st7" d="M1501,616.2c-9,0-17.1-.8-24.7-2.6-7.5-1.8-13.6-4.4-18.2-8-4.5-3.6-6.8-8.1-6.8-13.7s2.3-9.9,6.7-13.9c4.4-3.9,10.8-7.1,18.9-9.1l1.7,3.8c-3.3,1.4-6,3.7-7.8,6.9-1.8,3.2-2.7,6.7-2.7,10.5,0,7.1,3.2,12.4,9.8,16.3,6.6,3.8,15.1,5.7,25.8,5.7s14-1,20.4-2.7,11.7-4.8,15.8-9c4.1-4.2,6.1-9.4,6.1-16s-1.8-9.3-5.5-12.8c-3.7-3.5-10.9-5.1-21.8-5.1h-16.7c-5.6,0-10.8-.5-15.5-1.4s-8.6-2.9-11.6-5.6-4.4-6.7-4.4-11.8,2.4-11.1,7.2-16.3,12.8-10,24.1-15.1l2.9,2.2c-4.7,2.5-8.7,5.1-12.3,7.8-3.6,2.6-5.4,5.9-5.4,9.7s3.7,7.6,11,7.6h28.4c7.5,0,14.2,1,20.3,3s10.9,5.1,14.6,9.4c3.7,4.3,5.5,9.9,5.5,17s-2.4,14.5-7.3,21.2c-4.9,6.6-12.1,12-21.9,16-9.7,4.1-21.9,6.1-36.5,6.1h-.1ZM1502.4,520.5c-8.1,0-15.5-1.3-22.2-3.9s-12-6.7-15.8-12.3c-3.8-5.6-5.7-12.7-5.7-21.5s1.9-15.9,5.7-21.6c3.8-5.6,9.1-9.8,15.8-12.4,6.7-2.6,14.1-3.9,22.2-3.9s15.9,1.3,22.5,3.9c6.6,2.6,11.7,6.8,15.5,12.4,3.8,5.6,5.7,12.8,5.7,21.6s-1.9,15.9-5.7,21.5c-3.8,5.6-9,9.7-15.5,12.3s-14,3.9-22.5,3.9ZM1502.4,516.2c5.6,0,9.8-2.4,12.9-7.2,3-4.8,4.5-13.5,4.5-26.3s-1.6-21.5-4.5-26.4c-3-4.9-7.3-7.3-12.9-7.3s-9.4,2.4-12.7,7.3c-3.2,4.9-4.8,13.6-4.8,26.4s1.6,21.5,4.8,26.3c3.2,4.8,7.4,7.2,12.7,7.2ZM1537.8,464.9l-4.3-1.7c2.3-5.6,6.1-10.4,11.5-14.6s11-6.2,17-6.2,8,1.2,10.6,3.7c2.6,2.5,3.9,6,3.9,10.4s-1.3,8.5-3.9,10.5c-2.6,2-5.4,3.1-8.2,3.1s-4.9-.8-7.1-2.6-3.3-4.5-3.7-8.2c-.4-3.7.8-8.6,3.6-14.5l2.6,1c-6.3,2.5-11,5.3-14,8-3,2.7-5.6,6.5-8,11.1h0Z"/>
  <path class="st7" d="M1645.1,402.4c3.7.1,8.4.4,14.2.5s11.6.2,17.3.2,14.9,0,21.9-.2c6.9-.1,11.8-.2,14.7-.2,13.5,0,24.7,1.8,33.7,5.3s15.7,8.4,20.1,14.7c4.4,6.3,6.6,13.5,6.6,21.6s-1,10.2-3,15.7c-2,5.5-5.5,10.6-10.4,15.3s-11.6,8.6-20.1,11.6c-8.5,3-19.1,4.5-32.1,4.5h-22.9v-4.8h20.6c10.6,0,18.8-1.8,24.5-5.4,5.6-3.6,9.4-8.4,11.5-14.3,2-6,3-12.5,3-20,0-12.5-2.7-22.3-8.1-29.3s-14.8-10.4-28.2-10.4-11.4,1.3-13.5,4.1-3.2,8.2-3.2,16.5v118.3c0,5.7.5,10,1.4,12.9,1,2.9,2.7,4.8,5.5,5.7,2.7,1,6.7,1.6,12,1.9v4.8c-3.8-.4-8.6-.5-14.5-.6h-36.6c-5.9,0-10.5.2-14.2.6v-4.8c5.4-.4,9.4-1,12.2-1.9,2.7-1,4.5-2.9,5.4-5.7.8-2.9,1.3-7.2,1.3-12.9v-118.3c0-5.9-.5-10.2-1.3-13-.8-2.7-2.7-4.7-5.5-5.7-2.7-1.1-6.8-1.7-12.1-1.8v-4.8h0ZM1685.4,487.1c8.1.4,14.6.7,19.6,1.1,4.9.4,9.1.7,12.4,1.1s6.5.7,9.3,1.2c12,1.6,20.7,4.8,26.2,9.6s9.3,12.1,11.4,22l6,24.4c1.4,6.8,3,11.7,4.7,14.6s4.2,4.3,7.5,4.3c2.5-.1,4.7-1,6.3-2.3,1.7-1.3,3.5-3.2,5.4-5.6l3.3,2.6c-3.7,4.9-7.5,8.6-11.5,11.1-3.9,2.5-9.3,3.7-16,3.7s-12.7-1.8-17.6-5.4-8.4-10.4-10.4-20.4l-4.8-23.9c-1.4-6.8-3-12.8-4.8-17.8-1.8-5-4.2-9-7.3-11.8s-7.6-4.3-13.5-4.3h-25.8l-.5-4.1h0Z"/>
  <path class="st7" d="M2146.1,444.9c6.1,0,11.1.8,15.3,2.5s7.5,3.9,10,6.8c2.9,3,4.9,7.1,6,12.1,1.1,5,1.7,11.4,1.7,19v63.9c0,6.7,1.3,11.2,3.8,13.6,2.5,2.4,6.8,3.6,12.9,3.6v5c-2.7-.1-6.9-.4-12.5-.6s-11.2-.4-16.6-.4-10.8.1-15.9.4-9.1.5-11.8.6v-5c5.3,0,9-1.2,11.1-3.6s3.2-6.9,3.2-13.6v-70.6c0-4.7-.4-8.8-1-12.5-.6-3.7-2.2-6.8-4.4-9.1-2.3-2.3-6-3.5-10.9-3.5s-10.5,1.7-14.9,5c-4.4,3.3-7.9,7.9-10.5,13.7-2.6,5.9-3.9,12.3-3.9,19.5v57.5c0,6.7,1.1,11.2,3.3,13.6s5.9,3.6,11,3.6v5c-2.5-.1-6.3-.4-11.5-.6-5.1-.2-10.4-.4-15.8-.4s-11.1.1-17,.4c-5.9.2-10.3.5-13.1.6v-5c6.2,0,10.6-1.2,13.3-3.6s3.9-6.9,3.9-13.6v-74.9c0-7.2-1.2-12.4-3.6-15.9s-6.9-5.1-13.6-5.1v-5c5.1.5,10,.7,14.8.7s10.4-.2,15.2-.8c4.7-.6,9.1-1.4,13-2.5v26.1c4.2-9.6,9.7-16.4,16.6-20.6s14.2-6.2,21.9-6.2h0ZM2217.8,444.9c6.1,0,11.1.8,15.3,2.5s7.5,3.9,10,6.8c2.9,3,4.9,7.1,6,12.1s1.7,11.4,1.7,19v63.9c0,6.7,1.3,11.2,3.9,13.6,2.6,2.4,7.1,3.6,13.3,3.6v5c-2.7-.1-6.9-.4-12.7-.6s-11.4-.4-17-.4-10.8.1-15.9.4-9.1.5-11.8.6v-5c5.3,0,9-1.2,11.1-3.6s3.2-6.9,3.2-13.6v-70.6c0-4.7-.4-8.8-1-12.5s-2.2-6.8-4.5-9.1c-2.4-2.3-6.1-3.5-11.2-3.5s-10.5,1.7-14.9,5.1c-4.4,3.5-7.9,8-10.5,13.9s-3.9,12.3-3.9,19.5l-1-19.8c4.3-10.5,10-17.7,17.3-21.5s14.7-5.7,22.6-5.7h0Z"/>
  <g>
    <g>
      <path class="st6" d="M1857.5,506.9c-.6-7.4-.8-15.9-4.6-22s-5.9-6.4-10.2-7.4l-8.3-1.4c-6.5-.8-12.9-1.3-19.4-1.5l-6.6.5-2.4-28.3c-.3-3.8.2-7.5,2.3-10.7,2.6-3.9,7.1-6.7,12.1-6.7h72.3c8.2,0,14.7,6.5,15.5,14.4l3.4,34.1c-2.3,1.6-3.8,3.8-4.9,6.3-1,2.7-1.4,5.4-1.6,8.4v10.9c-11.4,0-22.5,0-33.7.9s-9.3,1.2-13.7,2.7Z"/>
      <g>
        <rect class="st6" x="1803.3" y="395.1" width="110.3" height="8.3"/>
        <g>
          <rect class="st6" x="1831.5" y="337.9" width="14.7" height="54.2"/>
          <rect class="st6" x="1810.4" y="332.5" width="12.7" height="59.7"/>
          <rect class="st6" x="1857.2" y="332.5" width="12.9" height="59.6"/>
          <path class="st6" d="M1883.9,392l-9.2-41.8c-.1-.5-.2-.9,0-1.2s.5-.6.9-.7l9.8-2,9.2,44.7c-3.6,1-6.9,1.2-10.6,1Z"/>
        </g>
      </g>
      <g>
        <path class="st6" d="M1942,551.4v-38.2c.1,0,.6-10,.6-10,.3-6.8,1.5-14.3,8-17.1.2-.6-.5-1.4-.8-1.6s-1.3-.4-2-.2c-5.1,1.7-7.9,8.8-8.2,14l-.8,12c-2.4-2.1-5.1-3.4-8.1-4.2-7.3-1.9-14.6-2.6-22.2-2.5v-10c0-2.4.2-4.7.9-7,1.5-4.8,5.6-8,10.6-8.5h7.8c7.8,0,15.5.3,23.3,1.3s7.9,4.3,9,8.6-.5,9.5-4,12.8-1.5,1.4-1.8,2.3v45.7c0,1.8-.3,3.1-1.4,4.5v20.9c0,.7-.1,1.4-.9,1.4h-8.2c0,0-1.8-16.5-1.8-16.5v-7.6Z"/>
        <path class="st6" d="M1938.7,529.6v24.1s-55.1,1.1-55.1,1.1l-25.6.4.2-10.5.2-15.1c1.7.8,3.5,1.5,5.6,1.5h28.5c0-.1,39.9-.7,39.9-.7,2.2,0,3.9-.2,6.4-.9Z"/>
        <path class="st6" d="M1907.3,527.5l-23.2.2h-20.9c-1.6,0-4.3-.9-4.4-2.5l-1.1-14.3c3.5-1.8,7-2.6,10.9-3,7.7-.9,15.2-1,22.9-1s15.4-.2,23.2.2c6.4.4,12.6,1.2,18.5,3.4,3.2,1.2,5.3,3.6,5.7,7,.3,2.4.2,4.9-.4,7.3s-1.6,2.4-3.3,2.4l-27.8.5Z"/>
        <g>
          <path class="st6" d="M1818.1,548.2c-3.8-1.7-6.4-4.7-7.1-8.8l-4.1-25c-1.2-7.6-2.5-15-3.2-22.7s-.6-11.4,4.6-13.7c2.9-.4,5.6-.2,8.5,0,7.1.4,14,.8,21,2.2-4.8,2.4-7.4,6.5-7.7,11.5s2.8,10.5,8.1,12.5v50.2c-7.1-1.3-13.5-3.4-20.1-6.3Z"/>
          <path class="st6" d="M1850.6,576.3h-7.7c-.8,0-1-.9-1-1.5l-.3-12.6v-58.3c0-1.5-.9-2.3-2.1-2.8-4.1-1.5-6.4-5.2-5.9-9.5.4-3.3,2-6,4.9-7.7s8.7-1.1,11.2,2.8,2.6,5.6,3.1,8.9c.9,6.1,1.2,12,1.6,18.3s.6,13.2.5,20l-.4,21.9c-.1,6.7-1.3,13.1-2.4,19.6-.1.7-.9,1.1-1.6,1Z"/>
          <path class="st6" d="M1825.3,568.3h-7.4c-.8.1-1.2-.6-1-1.3l.5-15.7,10.2,3.8-2.4,13.3Z"/>
        </g>
      </g>
    </g>
    <g>
      <path class="st6" d="M2009.6,575.4h-33.2c-2,0-2.2-5.4,2.3-8,3.2-1.8,6.5-2.9,10-3.9l.5-1.3c.8-1,2-1.1,3.4-1.3v-86.3c-2.1-1.1-3.6-3-3.7-5.3s1.3-4.6,3.7-5.6v-16.7c-3.4-.9-6.4-2.3-6-5.7s.4-1.9,1.2-2.4c1.8-1.3,2.9-.2,4.9.1v-7.8s-30.5,0-30.5,0c-.3,0-.6-.1-.7-.3-.2-.2-.3-.5-.1-1l17.8-49.3c.3-.9.9-1.4,1.8-1.4h30.4c1,0,1.4.6,1.7,1.4l17.2,49.2c.2.4.1.7,0,1s-.5.3-.9.3h-29.8s0,7.6,0,7.6c2.6.9,3.5-.9,4.8-.5s1.5.8,1.9,1.7c.6,1.4.3,2.8-.4,3.9s-1.4,2.2-2.9,2.7-2.1.6-3.3.5v16.4c2.4.8,3.9,2.9,3.9,5.3s-1.4,4.7-4,5.7v80.2s0,6.5,0,6.5c2.1-.5,2.8,1,3.4,2.1,3.1.9,9.6,3.2,10.3,4.8s-3.1,3.3-3.4,7.3Z"/>
      <path class="st6" d="M2047.6,575.2c-2.1.6-4.5.1-6.6.2s-1.8-1.1-2.3-2c-1.5-2.8-4.7-4.2-7.8-4.4s-7.6,1.6-9.5,5-1.5,1.4-2.5,1.4h-6.8c-1.2-4.3,5.7-8.8,9.4-12.1s2.9-2.8,5.2-3.3v-31.5s-1.6-.9-1.6-.9c-.5-.3-.8-.8-.8-1.3s.3-1.2,1-1.5l2.5-1c.2-.8.3-1.5.4-2.3h-9.3c-3.5-.2-9.8-.9-10.3-3.7s-.3-3,.1-4.3,1.5-.9,2.2-.9h10.6c-1.3-1.6-2.3-3.2-2.8-5.3-.8-3.5-1.2-7-1.4-10.6s.5-1.2,1.2-1.2h20.2c1.3,0-.1,3.4,1.7,3,2.9-.6,5.4,1.3,5.7,4.2.4,4.6-3.5,7.4-8.2,7.3l-1.3,2.6h13.5c.9,0,1.6.7,1.6,1.6v3.3c0,2.7-5.4,3.8-8.7,3.8h-10.7c0,1,.1,1.7.3,2.4l2.6,1.1c.5.2.9.7.9,1.2s-.1,1.1-.6,1.4l-1.9,1.1v31.4c1.3.6,2.7.9,3.4,1.9s.7,1.3,1.4,1.8l4.9,3c2.9,1.8,6.3,6.3,4.4,8.5ZM2042.7,505.2c.7-1.2.5-2.8-.7-3.4s-2-.3-2.8,0l-.7,5.5c1.6,0,3.2-.5,4.1-2.1Z"/>
    </g>
  </g>
</svg>