<!--?xml version="1.0" encoding="UTF-8"?-->
<svg id="Layer_1" xmlns="http://www.w3.org/2000/svg" version="1.1" viewBox="0 0 2500 1000" preserveAspectRatio="none">
  <defs>
    <style>
      .st0 {
        fill: #f0e6cf;
      }
    </style>

    <filter id="texture" x="-20%" y="-20%" width="140%" height="140%">
      <feTurbulence type="fractalNoise" baseFrequency="0.8" numOctaves="2" seed="8" result="noise"></feTurbulence>
      <feColorMatrix in="noise" type="matrix" values="
          1 0 0 0 0
          0 1 0 0 0
          0 0 1 0 0
          0 0 0 0.12 0" result="faintNoise"></feColorMatrix>
    </filter>

    <radialGradient id="softShade" cx="50%" cy="45%" r="75%">
      <stop offset="0%" stop-color="#341f12" stop-opacity="0.22"></stop>
      <stop offset="100%" stop-color="#24150c" stop-opacity="0.14"></stop>
    </radialGradient>
  </defs>

  <rect width="2500" height="1000" fill="#2c1a0e"></rect>
  <rect width="2500" height="1000" fill="url(#softShade)"></rect>
  <rect width="2500" height="1000" filter="url(#texture)" opacity="0.22"></rect>

  <g opacity="0.07" fill="#3b2416">
    <circle cx="120" cy="80" r="2.2"></circle>
    <circle cx="290" cy="165" r="1.9"></circle>
    <circle cx="460" cy="115" r="2.1"></circle>
    <circle cx="620" cy="220" r="1.8"></circle>
    <circle cx="805" cy="95" r="2.0"></circle>
    <circle cx="980" cy="180" r="1.9"></circle>
    <circle cx="1150" cy="140" r="2.2"></circle>
    <circle cx="1330" cy="250" r="1.8"></circle>
    <circle cx="1515" cy="120" r="2.1"></circle>
    <circle cx="1690" cy="210" r="1.9"></circle>
    <circle cx="1870" cy="150" r="2.2"></circle>
    <circle cx="2050" cy="240" r="1.8"></circle>
    <circle cx="2240" cy="130" r="2.1"></circle>
    <circle cx="2410" cy="200" r="1.9"></circle>

    <circle cx="90" cy="820" r="1.9"></circle>
    <circle cx="250" cy="900" r="2.1"></circle>
    <circle cx="430" cy="760" r="1.8"></circle>
    <circle cx="610" cy="870" r="2.0"></circle>
    <circle cx="790" cy="810" r="1.9"></circle>
    <circle cx="970" cy="920" r="2.2"></circle>
    <circle cx="1140" cy="780" r="1.8"></circle>
    <circle cx="1310" cy="890" r="2.0"></circle>
    <circle cx="1490" cy="800" r="1.9"></circle>
    <circle cx="1670" cy="930" r="2.1"></circle>
    <circle cx="1850" cy="770" r="1.8"></circle>
    <circle cx="2030" cy="860" r="2.0"></circle>
    <circle cx="2210" cy="805" r="1.9"></circle>
    <circle cx="2400" cy="910" r="2.1"></circle>
  </g>

  <g opacity="0.05" stroke="#42301f" stroke-width="1.2" fill="none">
    <path d="M-30 150 C 180 110, 350 190, 560 150 S 950 105, 1280 155 S 1750 210, 2530 140"></path>
    <path d="M-30 500 C 170 455, 360 545, 580 500 S 960 450, 1260 505 S 1780 560, 2530 490"></path>
    <path d="M-30 840 C 200 790, 400 880, 620 835 S 1010 780, 1300 845 S 1770 910, 2530 825"></path>
  </g>

  <path class="st0" d="M535.7,419.5c-.5,5.6-.9,11-1.1,16.3-.2,5.3-.3,9.3-.3,12.1s0,6,.2,8.8c.1,2.8.3,5.2.4,7.2h-4.6c-1.3-10-3.1-17.8-5.3-23.6-2.2-5.7-5.4-9.8-9.5-12.4-4.1-2.5-10-3.8-17.8-3.8h-8.6v113.8c0,5.3.5,9.3,1.5,12,1,2.7,3,4.4,6,5.3,3,.9,7.4,1.4,13.1,1.7v4c-3.7-.3-8.5-.4-14.4-.5-5.9,0-11.8,0-18,0s-12.4,0-18.1,0c-5.7,0-10.2.2-13.7.5v-4c5.7-.3,10-.8,13-1.7,2.9-.9,4.9-2.6,6-5.3,1.1-2.7,1.6-6.7,1.6-12v-113.8h-8.8c-7.5,0-13.3,1.3-17.6,3.8-4.3,2.5-7.5,6.7-9.6,12.4-2.1,5.7-3.9,13.6-5.2,23.6h-4.6c.3-2,.4-4.4.5-7.2,0-2.8,0-5.7,0-8.8s0-6.8-.3-12.1c-.2-5.3-.6-10.7-1.1-16.3,5.7.1,12,.3,18.8.4,6.8.1,13.6.2,20.6.2h37.3c6.8,0,13.6,0,20.6-.2,6.9-.1,13.2-.3,18.8-.4Z"></path>
  <path class="st0" d="M580,404.6v72.7c3.3-8.2,8-14,14.1-17.3,6.1-3.3,12.5-4.9,19.3-4.9s9.7.7,13.1,2.1c3.4,1.4,6.2,3.3,8.5,5.7,2.4,2.5,4.1,5.8,5.2,9.8,1.1,4,1.6,9.4,1.6,16.2v53.5c0,5.6,1.1,9.4,3.3,11.4,2.2,2,5.9,3,11.1,3v4.2c-2.4-.1-6-.3-10.8-.5-4.8-.2-9.5-.3-14-.3s-9.2.1-13.7.3c-4.5.2-7.8.4-9.9.5v-4.2c4.5,0,7.7-1,9.6-3,1.9-2,2.8-5.8,2.8-11.4v-59.1c0-3.9-.3-7.4-1-10.5-.7-3.1-2.1-5.7-4.3-7.6-2.2-1.9-5.4-2.9-9.7-2.9s-9.1,1.4-12.9,4.1c-3.8,2.7-6.8,6.5-9,11.3-2.2,4.8-3.3,10.2-3.3,16.4v48.3c0,5.6.9,9.4,2.8,11.4,1.9,2,5.1,3,9.6,3v4.2c-2.3-.1-5.6-.3-9.9-.5-4.3-.2-8.8-.3-13.3-.3s-9.4.1-14.3.3c-4.9.2-8.5.4-10.9.5v-4.2c5.2,0,8.9-1,11.1-3,2.2-2,3.3-5.8,3.3-11.4v-113.8c0-6-1-10.4-3.1-13.3-2.1-2.9-5.8-4.3-11.3-4.3v-4.2c4.3.4,8.4.6,12.4.6s8.6-.2,12.6-.7c4-.5,7.7-1.2,11-2.1Z"></path>
  <path class="st0" d="M713.7,455.1c11.7,0,20.9,3.5,27.5,10.6,6.7,7.1,10,18.2,10,33.5h-68.9l-.4-3.8h48.1c.1-6.5-.4-12.5-1.6-18.1-1.2-5.5-3.1-9.9-5.6-13.3-2.5-3.3-5.9-5-10-5s-10.7,3-14.9,9.1c-4.2,6.1-6.8,15.7-7.7,29l.6,1c-.1,1.9-.3,3.9-.4,6.1-.1,2.2-.2,4.4-.2,6.5,0,9.2,1.4,16.9,4.2,23.2,2.8,6.3,6.5,10.9,11,14.1,4.5,3.1,9.1,4.7,13.8,4.7s7.1-.6,10.5-1.7c3.4-1.1,6.6-3.1,9.7-5.8,3.1-2.7,5.8-6.5,8.2-11.3l4,1.6c-1.6,4.5-4.1,9-7.4,13.4-3.3,4.4-7.6,8-12.8,10.7-5.2,2.7-11.2,4.1-18.2,4.1s-17.4-2.1-24.4-6.3c-6.9-4.2-12.2-10.2-16-18.1-3.7-7.9-5.6-17.2-5.6-27.9s1.9-22,5.8-30.3c3.9-8.4,9.3-14.8,16.3-19.3,7-4.5,15.1-6.7,24.3-6.7Z"></path>
  <path class="st0" d="M816.1,419.5c3.1.1,7,.3,11.9.4,4.9.1,9.7.2,14.5.2s12.5,0,18.3-.2c5.8-.1,9.9-.2,12.3-.2,11.3,0,20.7,1.5,28.2,4.4,7.5,2.9,13.1,7,16.8,12.3,3.7,5.3,5.5,11.3,5.5,18.1s-.8,8.5-2.5,13.1c-1.7,4.6-4.6,8.9-8.7,12.8-4.1,3.9-9.7,7.2-16.8,9.7-7.1,2.5-16,3.8-26.9,3.8h-19.2v-4h17.2c8.9,0,15.7-1.5,20.5-4.5,4.7-3,7.9-7,9.6-12,1.7-5,2.5-10.5,2.5-16.7,0-10.5-2.3-18.7-6.8-24.5-4.5-5.8-12.4-8.7-23.6-8.7s-9.5,1.1-11.3,3.4c-1.8,2.3-2.7,6.9-2.7,13.8v99c0,4.8.4,8.4,1.2,10.8.8,2.4,2.3,4,4.6,4.8,2.3.8,5.6,1.3,10,1.6v4c-3.2-.3-7.2-.4-12.1-.5-4.9,0-9.8,0-14.9,0s-10.8,0-15.7,0c-4.9,0-8.8.2-11.9.5v-4c4.5-.3,7.9-.8,10.2-1.6,2.3-.8,3.8-2.4,4.5-4.8.7-2.4,1.1-6,1.1-10.8v-99c0-4.9-.4-8.5-1.1-10.9-.7-2.3-2.3-3.9-4.6-4.8-2.3-.9-5.7-1.4-10.1-1.5v-4ZM849.8,490.4c6.8.3,12.2.6,16.4.9,4.1.3,7.6.6,10.4.9,2.8.3,5.4.6,7.8,1,10,1.3,17.3,4,21.9,8,4.6,4,7.8,10.1,9.5,18.4l5,20.4c1.2,5.7,2.5,9.8,3.9,12.2,1.4,2.4,3.5,3.6,6.3,3.6,2.1-.1,3.9-.8,5.3-1.9,1.4-1.1,2.9-2.7,4.5-4.7l2.8,2.2c-3.1,4.1-6.3,7.2-9.6,9.3-3.3,2.1-7.8,3.1-13.4,3.1s-10.6-1.5-14.7-4.5c-4.1-3-7-8.7-8.7-17.1l-4-20c-1.2-5.7-2.5-10.7-4-14.9-1.5-4.2-3.5-7.5-6.1-9.9-2.6-2.4-6.4-3.6-11.3-3.6h-21.6l-.4-3.4Z"></path>
  <path class="st0" d="M995.6,455.1c11.7,0,20.9,3.5,27.5,10.6,6.7,7.1,10,18.2,10,33.5h-68.9l-.4-3.8h48.1c.1-6.5-.4-12.5-1.6-18.1-1.2-5.5-3.1-9.9-5.6-13.3-2.5-3.3-5.9-5-10-5s-10.7,3-14.9,9.1c-4.2,6.1-6.8,15.7-7.7,29l.6,1c-.1,1.9-.3,3.9-.4,6.1-.1,2.2-.2,4.4-.2,6.5,0,9.2,1.4,16.9,4.2,23.2,2.8,6.3,6.5,10.9,11,14.1,4.5,3.1,9.1,4.7,13.8,4.7s7.1-.6,10.5-1.7c3.4-1.1,6.6-3.1,9.7-5.8,3.1-2.7,5.8-6.5,8.2-11.3l4,1.6c-1.6,4.5-4.1,9-7.4,13.4-3.3,4.4-7.6,8-12.8,10.7-5.2,2.7-11.2,4.1-18.2,4.1s-17.4-2.1-24.4-6.3c-6.9-4.2-12.2-10.2-16-18.1-3.7-7.9-5.6-17.2-5.6-27.9s1.9-22,5.8-30.3c3.9-8.4,9.3-14.8,16.3-19.3,7-4.5,15.1-6.7,24.3-6.7Z"></path>
  <path class="st0" d="M1075,562.2c-5.6,0-10.4-1.1-14.4-3.2-4-2.1-7-5.1-9-8.8-2-3.7-3-8-3-12.8s1.3-10.6,4-14.3c2.7-3.7,6.1-6.6,10.3-8.9,4.2-2.3,8.6-4.2,13.4-5.7,4.7-1.5,9.2-3,13.4-4.4,4.2-1.4,7.7-3,10.4-4.9,2.7-1.9,4.1-4.3,4.1-7.4v-13.6c0-4.8-.8-8.6-2.3-11.5-1.5-2.9-3.6-4.9-6.2-6.1-2.6-1.2-5.7-1.8-9.3-1.8s-6.3.4-9.8,1.3c-3.5.9-6.2,2.6-8.2,5.1,2.9.8,5.4,2.4,7.3,4.7,1.9,2.3,2.9,5.2,2.9,8.7s-1.2,6.7-3.7,8.8c-2.5,2.1-5.6,3.2-9.3,3.2s-7.2-1.3-9.2-3.9-3-5.6-3-9.1.9-6.5,2.7-8.8c1.8-2.3,4.2-4.4,7.1-6.4,3.2-2.1,7.3-3.9,12.3-5.4,5-1.5,10.5-2.2,16.7-2.2s10.7.6,14.9,1.9c4.2,1.3,7.7,3.3,10.5,6.1,3.3,3.1,5.5,6.9,6.6,11.5,1.1,4.6,1.6,10.1,1.6,16.7v55.1c0,3.3.4,5.7,1.3,7.1.9,1.4,2.3,2.1,4.3,2.1s2.6-.3,3.9-1c1.3-.7,2.8-1.7,4.5-3l2,3.4c-2.8,2.3-5.6,4.1-8.5,5.4-2.9,1.3-6.5,2-10.9,2s-7.7-.7-10.4-2c-2.7-1.3-4.6-3.3-5.9-5.8-1.3-2.5-1.9-5.7-1.9-9.4-3.5,5.6-7.6,9.8-12.4,12.8-4.8,2.9-10.4,4.4-16.8,4.4ZM1084.6,552.7c3.7,0,7.2-1.1,10.5-3.2,3.3-2.1,6.3-5.3,9.1-9.6v-39.7c-1.5,2.1-3.6,4-6.4,5.5-2.8,1.5-5.8,3.1-9,4.7-3.2,1.6-6.2,3.4-9.1,5.5-2.9,2.1-5.2,4.7-7.1,7.9-1.9,3.2-2.8,7.3-2.8,12.2s1.3,9.3,4,12.3c2.7,3,6.3,4.5,10.8,4.5Z"></path>
  <path class="st0" d="M1196.2,455.1c5.9,0,11.2,1.3,16.1,3.8,4.9,2.5,8.3,6.8,10.3,12.8l-2.4,2.2c-1.9-4.8-4.6-8.3-8.2-10.5-3.6-2.2-7.7-3.3-12.2-3.3-7.6,0-13.8,4-18.6,12.1-4.8,8.1-7.1,20.5-7,37.2,0,11,.9,20.1,2.8,27,1.9,7,4.6,12.1,8.3,15.5,3.7,3.3,8.1,5,13.3,5s9.9-2.2,14.1-6.6c4.2-4.4,6.7-10.7,7.5-19l1.8,4.2c-1.3,9.1-4.5,16-9.6,20.9-5.1,4.9-11.8,7.3-20.4,7.3s-15.3-2-21.5-5.9c-6.2-3.9-10.9-9.9-14.3-18-3.3-8.1-5-18.2-5-30.4s2-22.2,6.1-30.2c4.1-8,9.5-14.1,16.3-18.1,6.8-4,14.3-6,22.6-6ZM1241.1,404.4v134.7c0,6,1,10.4,3.1,13.3,2.1,2.9,5.8,4.3,11.3,4.3v4.2c-4.1-.4-8.3-.6-12.4-.6s-8.8.2-12.7.6c-3.9.4-7.6,1.1-10.9,2.2v-134.7c0-6-1-10.4-3.1-13.3-2.1-2.9-5.8-4.3-11.3-4.3v-4.2c4.3.4,8.4.6,12.4.6s8.6-.2,12.6-.7c4-.5,7.7-1.2,11-2.1Z"></path>
  <path class="st0" d="M1300.8,455.7v86.6c0,5.6,1.1,9.4,3.3,11.4,2.2,2,5.9,3,11.1,3v4.2c-2.3-.1-5.8-.3-10.5-.5-4.7-.2-9.5-.3-14.5-.3s-9.6.1-14.5.3c-4.9.2-8.5.4-10.9.5v-4.2c5.2,0,8.9-1,11.1-3,2.2-2,3.3-5.8,3.3-11.4v-62.7c0-6-1-10.4-3-13.3-2-2.9-5.8-4.3-11.4-4.3v-4.2c4.3.4,8.4.6,12.4.6s8.7-.2,12.7-.7c3.9-.5,7.6-1.2,10.9-2.1ZM1288.8,407.5c4.1,0,7.6,1.3,10.4,3.9,2.8,2.6,4.2,5.8,4.2,9.7s-1.4,7.1-4.2,9.7c-2.8,2.6-6.3,3.9-10.4,3.9s-7.6-1.3-10.4-3.9c-2.8-2.6-4.2-5.8-4.2-9.7s1.4-7.1,4.2-9.7c2.8-2.6,6.3-3.9,10.4-3.9Z"></path>
  <path class="st0" d="M1394.2,455.1c5.3,0,9.7.7,13.1,2.1,3.4,1.4,6.2,3.3,8.5,5.7,2.4,2.5,4.1,5.8,5.1,9.8s1.5,9.4,1.5,16.2v53.5c0,5.6,1.1,9.4,3.3,11.4,2.2,2,5.9,3,11.1,3v4.2c-2.3-.1-5.8-.3-10.6-.5-4.8-.2-9.5-.3-14.2-.3s-9,.1-13.5.3c-4.5.2-7.8.4-10.1.5v-4.2c4.5,0,7.7-1,9.6-3,1.9-2,2.8-5.8,2.8-11.4v-59.1c0-3.9-.3-7.4-1-10.5-.7-3.1-2.1-5.7-4.2-7.6-2.1-1.9-5.3-2.9-9.6-2.9s-9.3,1.4-13.1,4.2c-3.8,2.8-6.8,6.6-9,11.5-2.2,4.9-3.3,10.3-3.3,16.3v48.1c0,5.6,1,9.4,2.9,11.4,1.9,2,5.1,3,9.5,3v4.2c-2.1-.1-5.4-.3-9.7-.5-4.3-.2-8.8-.3-13.5-.3s-9.3.1-14.2.3c-4.9.2-8.6.4-11,.5v-4.2c5.2,0,8.9-1,11.1-3,2.2-2,3.3-5.8,3.3-11.4v-62.7c0-6-1-10.4-3-13.3-2-2.9-5.8-4.3-11.4-4.3v-4.2c4.3.4,8.4.6,12.4.6s8.7-.2,12.7-.7c3.9-.5,7.6-1.2,10.9-2.1v21.8c3.5-8.2,8.2-14,14.3-17.4,6.1-3.3,12.5-5,19.3-5Z"></path>
  <path class="st0" d="M1480.8,598.4c-7.5,0-14.3-.7-20.7-2.2-6.3-1.5-11.4-3.7-15.2-6.7-3.8-3-5.7-6.8-5.7-11.5s1.9-8.3,5.6-11.6c3.7-3.3,9-5.9,15.8-7.6l1.4,3.2c-2.8,1.2-5,3.1-6.5,5.8-1.5,2.7-2.3,5.6-2.3,8.8,0,5.9,2.7,10.4,8.2,13.6,5.5,3.2,12.6,4.8,21.6,4.8s11.7-.8,17.1-2.3c5.4-1.5,9.8-4,13.2-7.5,3.4-3.5,5.1-7.9,5.1-13.4s-1.5-7.8-4.6-10.7c-3.1-2.9-9.1-4.3-18.2-4.3h-14c-4.7,0-9-.4-13-1.2-4-.8-7.2-2.4-9.7-4.7-2.5-2.3-3.7-5.6-3.7-9.9s2-9.3,6-13.6c4-4.3,10.7-8.4,20.2-12.6l2.4,1.8c-3.9,2.1-7.3,4.3-10.3,6.5-3,2.2-4.5,4.9-4.5,8.1s3.1,6.4,9.2,6.4h23.8c6.3,0,11.9.8,17,2.5,5.1,1.7,9.1,4.3,12.2,7.9,3.1,3.6,4.6,8.3,4.6,14.2s-2,12.1-6.1,17.7c-4.1,5.5-10.1,10-18.3,13.4-8.1,3.4-18.3,5.1-30.5,5.1ZM1482,518.3c-6.8,0-13-1.1-18.6-3.3-5.6-2.2-10-5.6-13.2-10.3-3.2-4.7-4.8-10.6-4.8-18s1.6-13.3,4.8-18.1c3.2-4.7,7.6-8.2,13.2-10.4,5.6-2.2,11.8-3.3,18.6-3.3s13.3,1.1,18.8,3.3c5.5,2.2,9.8,5.7,13,10.4,3.2,4.7,4.8,10.7,4.8,18.1s-1.6,13.3-4.8,18c-3.2,4.7-7.5,8.1-13,10.3-5.5,2.2-11.7,3.3-18.8,3.3ZM1482,514.7c4.7,0,8.2-2,10.8-6,2.5-4,3.8-11.3,3.8-22s-1.3-18-3.8-22.1c-2.5-4.1-6.1-6.1-10.8-6.1s-7.9,2-10.6,6.1c-2.7,4.1-4,11.4-4,22.1s1.3,18,4,22c2.7,4,6.2,6,10.6,6ZM1511.6,471.8l-3.6-1.4c1.9-4.7,5.1-8.7,9.6-12.2,4.5-3.5,9.2-5.2,14.2-5.2s6.7,1,8.9,3.1c2.2,2.1,3.3,5,3.3,8.7s-1.1,7.1-3.3,8.8c-2.2,1.7-4.5,2.6-6.9,2.6s-4.1-.7-5.9-2.2c-1.8-1.5-2.8-3.8-3.1-6.9-.3-3.1.7-7.2,3-12.1l2.2.8c-5.3,2.1-9.2,4.4-11.7,6.7-2.5,2.3-4.7,5.4-6.7,9.3Z"></path>
  <path class="st0" d="M1601.4,419.5c3.1.1,7,.3,11.9.4,4.9.1,9.7.2,14.5.2s12.5,0,18.3-.2c5.8-.1,9.9-.2,12.3-.2,11.3,0,20.7,1.5,28.2,4.4,7.5,2.9,13.1,7,16.8,12.3,3.7,5.3,5.5,11.3,5.5,18.1s-.8,8.5-2.5,13.1c-1.7,4.6-4.6,8.9-8.7,12.8-4.1,3.9-9.7,7.2-16.8,9.7-7.1,2.5-16,3.8-26.9,3.8h-19.2v-4h17.2c8.9,0,15.7-1.5,20.5-4.5,4.7-3,7.9-7,9.6-12,1.7-5,2.5-10.5,2.5-16.7,0-10.5-2.3-18.7-6.8-24.5-4.5-5.8-12.4-8.7-23.6-8.7s-9.5,1.1-11.3,3.4c-1.8,2.3-2.7,6.9-2.7,13.8v99c0,4.8.4,8.4,1.2,10.8.8,2.4,2.3,4,4.6,4.8,2.3.8,5.6,1.3,10,1.6v4c-3.2-.3-7.2-.4-12.1-.5-4.9,0-9.8,0-14.9,0s-10.8,0-15.7,0c-4.9,0-8.8.2-11.9.5v-4c4.5-.3,7.9-.8,10.2-1.6,2.3-.8,3.8-2.4,4.5-4.8.7-2.4,1.1-6,1.1-10.8v-99c0-4.9-.4-8.5-1.1-10.9-.7-2.3-2.3-3.9-4.6-4.8-2.3-.9-5.7-1.4-10.1-1.5v-4ZM1635.1,490.4c6.8.3,12.2.6,16.4.9,4.1.3,7.6.6,10.4.9,2.8.3,5.4.6,7.8,1,10,1.3,17.3,4,21.9,8,4.6,4,7.8,10.1,9.5,18.4l5,20.4c1.2,5.7,2.5,9.8,3.9,12.2,1.4,2.4,3.5,3.6,6.3,3.6,2.1-.1,3.9-.8,5.3-1.9,1.4-1.1,2.9-2.7,4.5-4.7l2.8,2.2c-3.1,4.1-6.3,7.2-9.6,9.3-3.3,2.1-7.8,3.1-13.4,3.1s-10.6-1.5-14.7-4.5c-4.1-3-7-8.7-8.7-17.1l-4-20c-1.2-5.7-2.5-10.7-4-14.9-1.5-4.2-3.5-7.5-6.1-9.9s-6.4-3.6-11.3-3.6h-21.6l-.4-3.4Z"></path>
  <path class="st0" d="M1781.2,455.1c8.9,0,16.8,1.9,23.8,5.6,6.9,3.7,12.4,9.6,16.6,17.6,4.1,8,6.2,18.4,6.2,31.3s-2.1,23.3-6.2,31.2c-4.1,7.9-9.7,13.7-16.6,17.4-6.9,3.7-14.8,5.5-23.8,5.5s-16.7-1.8-23.8-5.5c-7.1-3.7-12.6-9.4-16.7-17.4-4.1-7.9-6.1-18.3-6.1-31.2s2-23.4,6.1-31.3c4.1-8,9.6-13.8,16.7-17.6,7.1-3.7,15-5.6,23.8-5.6ZM1781.2,459c-6.9,0-12.6,4-17,11.9-4.4,7.9-6.6,20.8-6.6,38.6s2.2,30.6,6.6,38.4,10,11.7,17,11.7,12.4-3.9,16.9-11.7c4.5-7.8,6.7-20.6,6.7-38.4s-2.2-30.7-6.7-38.6c-4.5-7.9-10.1-11.9-16.9-11.9Z"></path>
  <path class="st0" d="M1891.8,455.1c8.9,0,16.8,1.9,23.8,5.6,6.9,3.7,12.4,9.6,16.6,17.6,4.1,8,6.2,18.4,6.2,31.3s-2.1,23.3-6.2,31.2c-4.1,7.9-9.7,13.7-16.6,17.4-6.9,3.7-14.8,5.5-23.8,5.5s-16.7-1.8-23.8-5.5c-7.1-3.7-12.6-9.4-16.7-17.4-4.1-7.9-6.1-18.3-6.1-31.2s2-23.4,6.1-31.3c4.1-8,9.6-13.8,16.7-17.6,7.1-3.7,15-5.6,23.8-5.6ZM1891.8,459c-6.9,0-12.6,4-17,11.9-4.4,7.9-6.6,20.8-6.6,38.6s2.2,30.6,6.6,38.4,10,11.7,17,11.7,12.4-3.9,16.9-11.7c4.5-7.8,6.7-20.6,6.7-38.4s-2.2-30.7-6.7-38.6c-4.5-7.9-10.1-11.9-16.9-11.9Z"></path>
  <path class="st0" d="M2020.6,455.1c5.1,0,9.3.7,12.8,2.1,3.5,1.4,6.3,3.3,8.4,5.7,2.4,2.5,4.1,5.9,5,10.1.9,4.2,1.4,9.5,1.4,15.9v53.5c0,5.6,1.1,9.4,3.2,11.4,2.1,2,5.7,3,10.8,3v4.2c-2.3-.1-5.8-.3-10.5-.5-4.7-.2-9.4-.3-13.9-.3s-9,.1-13.3.3c-4.3.2-7.6.4-9.9.5v-4.2c4.4,0,7.5-1,9.3-3,1.8-2,2.7-5.8,2.7-11.4v-59.1c0-3.9-.3-7.4-.8-10.5-.5-3.1-1.8-5.7-3.7-7.6-1.9-1.9-5-2.9-9.1-2.9s-8.8,1.4-12.5,4.2c-3.7,2.8-6.6,6.6-8.8,11.5-2.2,4.9-3.3,10.3-3.3,16.3v48.1c0,5.6.9,9.4,2.8,11.4,1.9,2,4.9,3,9.2,3v4.2c-2.1-.1-5.3-.3-9.6-.5-4.3-.2-8.7-.3-13.2-.3s-9.3.1-14.2.3c-4.9.2-8.6.4-11,.5v-4.2c5.2,0,8.9-1,11.1-3,2.2-2,3.3-5.8,3.3-11.4v-62.7c0-6-1-10.4-3-13.3-2-2.9-5.8-4.3-11.4-4.3v-4.2c4.3.4,8.4.6,12.4.6s8.7-.2,12.7-.7c3.9-.5,7.6-1.2,10.9-2.1v21.8c3.5-8,8.1-13.7,13.9-17.2,5.8-3.5,11.9-5.2,18.3-5.2ZM2080.6,455.1c5.1,0,9.3.7,12.8,2.1,3.5,1.4,6.3,3.3,8.4,5.7,2.4,2.5,4.1,5.9,5,10.1.9,4.2,1.4,9.5,1.4,15.9v53.5c0,5.6,1.1,9.4,3.3,11.4,2.2,2,5.9,3,11.1,3v4.2c-2.3-.1-5.8-.3-10.6-.5-4.8-.2-9.5-.3-14.2-.3s-9,.1-13.3.3c-4.3.2-7.6.4-9.9.5v-4.2c4.4,0,7.5-1,9.3-3,1.8-2,2.7-5.8,2.7-11.4v-59.1c0-3.9-.3-7.4-.8-10.5-.5-3.1-1.8-5.7-3.8-7.6-2-1.9-5.1-2.9-9.4-2.9s-8.8,1.4-12.5,4.3c-3.7,2.9-6.6,6.7-8.8,11.6-2.2,4.9-3.3,10.3-3.3,16.3l-.8-16.6c3.6-8.8,8.4-14.8,14.5-18,6.1-3.2,12.3-4.8,18.9-4.8Z"></path>
</svg>