<?xml version="1.0" encoding="UTF-8"?>
<svg id="Layer_1" xmlns="http://www.w3.org/2000/svg" version="1.1" viewBox="0 0 1254 1254">
  <defs>
    <style>
      .st0 {
        fill: #faaf26;
      }
    </style>
  </defs>
  <path class="st0" d="M557.7,1121.9c-95,14.4-184.7,31.5-276.7,52.1-70.1,15.6-144.1,8.5-162.9-64.1-6.5-25.1-7.7-49.7-5.1-76.2,8.3-85.3,22.8-167.1,42-251.2,33.8-148.7,70.9-294.1,112.4-440.4,23.4-81.7,56.2-168.6,119.6-224.7,83.3-73.6,184.1-64.3,282.7-22.2,56.6,24.3,106.9,55.2,156.2,92.4,89.9,67.9,166.9,148.9,226.2,244.9,110.8,178.9,154.8,456.2-43,580.6-40.4,25.5-83.3,41.6-129.7,53.8l-139.5,27.3-182.5,27.7h.4ZM778.6,393.3c0-57-46.3-103.3-103.3-103.3s-103.3,46.3-103.3,103.3,46.3,103.3,103.3,103.3,103.3-46.3,103.3-103.3ZM520.1,612.8c0-53.6-43.3-97-97-97s-97,43.3-97,97,43.3,97,97,97,97-43.3,97-97ZM987.8,687.1c0-58.2-47.1-105.3-105.3-105.3s-105.3,47.1-105.3,105.3,47.1,105.3,105.3,105.3,105.3-47.1,105.3-105.3ZM716.6,876.7c0-54.2-43.9-98.4-98.4-98.4s-98.4,43.9-98.4,98.4,43.9,98.4,98.4,98.4,98.4-43.9,98.4-98.4Z"/>
</svg>