<?xml version="1.0" encoding="UTF-8"?>
<svg id="Layer_1" xmlns="http://www.w3.org/2000/svg" version="1.1" viewBox="0 0 1254 1254">
  <!-- Generator: Adobe Illustrator 30.3.0, SVG Export Plug-In . SVG Version: 2.1.3 Build 182)  -->
  <defs>
    <style>
      .st0 {
        fill: #e5c76a;
      }

      .st1 {
        fill: #fbeab3;
      }

      .st2 {
        fill: #f9e39a;
      }

      .st3 {
        fill: #f7d97c;
      }

      .st4 {
        fill: #d6b968;
      }
    </style>
  </defs>
  <g>
    <path class="st4" d="M585.2,888.6c-21.7,44-44,86.1-67.9,128.4l-15.7,22.9c-9.4,13.7-26.4,17.2-42.5,11.9-17-5.5-32.5-13.1-48.4-22.2-50.9-29.1-97.6-64-139.5-104.9-14.8-14.5-27.7-28.9-38.7-46.2-2.1-3.4-3-9.4-1.9-13.4.9-3.3,4.9-6.5,9.1-8.9l66.3-38.6c5.9-3.4,9.5-9,11.5-15.5l25.4-80.8c3.3-10.6,11.5-17.9,21.2-22.7l88.6-43.2c12-5.8,25.1-7.7,38.3-4.6l98.2,23.2c3.6.8,7,3.8,8.4,6.1,1.7,2.8,1.8,9.6,0,12.6l-39.5,69.3c-5.7,10-14.5,16.1-23.7,22.5l-55.7,39.1-60.1,46.1,12.1-5.9,117-62.2c2.9-1.5,8.2-2.5,10.8-1.7s5.8,3.9,7.2,6.8l20.1,42.7c6.1,12.9,6,25.4-.7,39.2Z"/>
    <path class="st4" d="M1047.4,681.2c-8.6.9-15.7-4-21.9-8.8l-82.4-63.6c-27.9-21.5-57-39.2-88.2-55.2-8.9-4.6-4.5-15.4,2.6-25.4l86.6-122.1c18.5-26.1,38.6-49.7,60.2-73s16.7-8.8,24.6-2.4c9.2,7.5,17,16,24.1,25.9,22.1,30.8,39.2,64.2,50.6,100.5,8.1,25.8,11.3,51.3,9.4,78.3-2.5,35.2-7.7,69.5-16.2,103.7-2.3,9-5.7,17.6-12.1,24-9.8,9.9-22.8,16.4-37.3,17.9Z"/>
    <path class="st2" d="M813.9,728.5c-10.5,5.6-22.3,3.9-31-1.9l-82.1-54.8c-2.7-1.8-5.2-6.1-5.3-8.6-.1-2.5,2.3-7.1,5-9,29.8-20.9,60.1-39.9,92.2-57.4l38-18.5c11.7-5.7,23.8-3.3,35,3,32.3,18.3,62.3,39.1,91.7,61.8,1.2.9,2.5,2.5,2.9,3.5s-1.3,4.7-2.4,5.3l-143.8,76.6Z"/>
    <path class="st1" d="M635.3,851c-11.2,4.9-20.1-1-24.4-10l-20-41.5c-5.8-12.1-7.1-25-.1-37l33.9-58.1c12.4-21.3,44.9-26.3,65.3-12.7l80.6,53.7c10.6,7.1,23.9,23.6,19.3,33.2-1.4,3-5.2,7-9.5,8.9l-145,63.6Z"/>
  </g>
  <g>
    <path class="st0" d="M660.2,601.9l-34.4-48.7c-14.9-21.1-16-39-20.6-42.1l-47.4-32.8-14.1-43.2-41.8-46.5,51.1,40.4,15.9,41.5,40.5,24.2c8.3-5.1,8.3-23.1,18.6-38.4l22.1-32.8c5.9-8.8,7.2-16.3,5.4-26.8l-22.8-131c-1.2-6.7-5.7-11.3-12.5-12.5l-270.2-47-89.9-13.9c-15.2-2.3-29.9-2.4-44.8-.1-13.1,2-23.8,10.1-28.7,22.9-10.4,26.7-18.2,53.9-25.2,82.1-3.8,15-6.3,29.6-6.9,45-.7,15.7,6.1,29.2,18.1,39.1,15.7,13,31.3,24.5,48.2,36.4l180.2,127c27.9,19.7,55.8,37.3,85,54.7,11,6.6,21.1,13.8,33.3,18,31,10.8,62,19,93.8,26.6,14.6,3.5,28,.6,40.4-7.2,12.2-7.7,15.5-22.7,6.8-35ZM237.8,334.1l-5,19.8c-2.1,8.2-9.5,14.8-18.5,11.7h-.3c0,.1-21.7-7.4-21.7-7.4-6.9-2.4-10.3-9.6-10-16.6l5.9-24.4c2.1-8.5,9.2-13.3,17.8-11.8l23,8c8.5,3,10.9,12.6,8.7,20.8ZM263.4,247l-5,19.8c-2.1,8.2-9.5,14.8-18.5,11.7h-.3c0,.1-21.7-7.4-21.7-7.4-6.9-2.4-10.3-9.6-10-16.6l5.9-24.4c2.1-8.5,9.2-13.3,17.8-11.8l23,8c8.5,3,10.9,12.6,8.7,20.8Z"/>
    <path class="st3" d="M461.7,622.2l-2-3-64.1-35.8c-12-6.9-24-11.9-37.4-15.2l-56.5-14-122.6-28.5c-7.9-1.8-15.6-2.3-23.4-2.2-18.7.4-17.6,24.9-14.5,45.4,7.6,49.4,16.5,97.9,30.7,146l26.8,78.1,14.7,37.7c2.5,6.5,9.9,10.6,16.4,7.9l19-7.8,39.6-20.5c8.2-4.2,12.3-9.7,14.9-18.6,7.7-26.5,17.6-51.7,27.3-77.6.8-2.2.7-6.7-.1-8.5-.8-1.8-4.4-3.8-7-4l-76.9-8.1-12.6-2,23.4-1.8,80.7-6.5c6.8-.5,12.9-3.9,18.9-6.9l102.3-51.1c.8-.7,2.6-2.3,2.2-2.9ZM288.2,670.2l-20.2,2.7c-8.4,1.1-17.3-3.3-17.7-12.8l-.2-.2-1-23c-.3-7.3,5.1-13.1,11.7-15.5l24.9-3.6c8.7-1.2,15.8,3.6,17.6,12.1l1.1,24.4c.4,9-7.6,14.8-16.1,15.9ZM379.1,643.3l-18.6,8.4c-7.7,3.4-17.5,1.8-20.6-7.2h-.3c0-.1-7.6-21.8-7.6-21.8-2.4-6.9,1.1-14.1,6.8-18.2l22.8-10.6c7.9-3.6,16.1-1.1,20.3,6.6l8.1,23c3,8.5-3.1,16.3-10.9,19.8Z"/>
    <path class="st4" d="M965,311.3l-25.4-13.3c-44.7-19.6-91.2-32.5-139.9-37.9-17.5-1.9-33.9-2-50.9.6-12.9,2-23.7,9.5-28.1,22.3l-45.4,132.3c-7.2,21.1-33.3,45.8-40.5,85.3-2.4,13.4-.2,24.8,7.3,36.1l31.6,47.7,13.6,27.5c1.5,3,3.5,6.1,5.7,6.9,2,.7,7.8.6,10.2-.6l78.7-40.9c10.4-5.4,19.1-12.1,26.2-21.6l59.2-79.1,85.9-117.7,17.2-27.8c4.3-6.9,1.4-16.3-5.5-20ZM817.1,498.1l-11.3,17c-4.7,7-13.9,10.8-21.3,4.8h-.3s-17.9-14.4-17.9-14.4c-5.7-4.6-6.5-12.5-3.9-19l13.7-21.1c4.8-7.3,13.1-9.5,20.7-5.2l19,15.3c7,5.6,6,15.5,1.3,22.6ZM872.8,426.7l-11.3,17c-4.7,7-13.9,10.8-21.3,4.8h-.3s-17.9-14.4-17.9-14.4c-5.7-4.6-6.5-12.5-3.9-19l13.7-21.1c4.8-7.3,13.1-9.5,20.7-5.2l19,15.3c7,5.6,6,15.5,1.3,22.6ZM926,353.1l-11.3,17c-4.7,7-13.9,10.8-21.3,4.8h-.3s-17.9-14.4-17.9-14.4c-5.7-4.6-6.5-12.5-3.9-19l13.7-21.1c4.8-7.3,13.1-9.5,20.7-5.2l19,15.3c7,5.6,6,15.5,1.3,22.6Z"/>
    <path class="st3" d="M1071.8,719.3c-33.7-10.2-68.7-14.7-104.3-14.3-19.4.2-37.1,3.2-55.4,8.8-30.7,9.4-59.8,21.9-87.5,37.6-7.3,4.1-11.2,12.5-8.1,19.8l7.9,19.2c24.2,46.6,45.9,93.5,66.8,141.6,4,9.3,10.2,16.1,19.8,19.1,21.2,6.6,42.7,11.4,65.9,12.5,13.4.6,24.5-4.4,30.5-15l15.8-28c24.2-49.9,43.7-101.1,59-154.5l4.7-25.3c1.9-10.1-5-18.5-15.1-21.5ZM1003.2,912.8l-5.9,19.5c-2.5,8.1-10.2,14.3-19,10.8h-.3c0,.1-21.3-8.5-21.3-8.5-6.8-2.7-9.8-10.1-9.2-17.1l7-24.1c2.5-8.4,9.8-12.9,18.3-10.9l22.6,9.1c8.3,3.4,10.2,13.1,7.7,21.2ZM1029.9,833.6l-5.9,19.5c-2.5,8.1-10.2,14.3-19,10.8h-.3c0,.1-21.3-8.5-21.3-8.5-6.8-2.7-9.8-10.1-9.2-17.1l7-24.1c2.5-8.4,9.8-12.9,18.3-10.9l22.6,9.1c8.3,3.4,10.2,13.1,7.7,21.2ZM1057.3,757l-5.9,19.5c-2.5,8.1-10.2,14.3-19,10.8h-.3c0,.1-21.3-8.5-21.3-8.5-6.8-2.7-9.8-10.1-9.2-17.1l7-24.1c2.5-8.4,9.8-12.9,18.3-10.9l22.6,9.1c8.3,3.4,10.2,13.1,7.7,21.2Z"/>
    <path class="st3" d="M866.1,924.1l-33.4-67.7-19.2-33.3c-5.1-8.8-15.8-13.6-25.5-10.8l-24,7c-37.5,14.5-73.8,30-110.2,47.1-14.7,6.9-25.1,16.7-31.7,31.7-16.2,36.7-29.4,74.2-40.6,112.9l-5.5,27c-4,19.7,20.6,26.3,41.5,26.9,69.6,1.8,167.5-17.9,235.5-36.8,11-3.1,19.2-10.7,19.8-21.9l2-39.8c.8-14.9-2.3-28.8-8.9-42.2ZM657.6,1014.6l-6.1,19.4c-2.6,8-10.4,14.2-19.1,10.6h-.3c0,.1-21.2-8.7-21.2-8.7-6.7-2.8-9.7-10.2-9-17.2l7.3-24c2.6-8.3,10-12.8,18.4-10.7l22.5,9.4c8.3,3.5,10.1,13.2,7.5,21.3ZM685.1,935.7l-6.1,19.4c-2.6,8-10.4,14.2-19.1,10.6h-.3c0,.1-21.2-8.7-21.2-8.7-6.7-2.8-9.7-10.2-9-17.2l7.3-24c2.6-8.3,10-12.8,18.4-10.7l22.5,9.4c8.3,3.5,10.1,13.2,7.5,21.3Z"/>
  </g>
</svg>