<?xml version="1.0" encoding="UTF-8"?>
<svg id="Layer_1" xmlns="http://www.w3.org/2000/svg" version="1.1" viewBox="0 0 1254 1254">
  <defs>
    <style>
      .st0 {
        fill: #fdca19;
      }

      .st1 {
        fill: #f3b418;
      }

      .st2 {
        fill: #fdd027;
      }

      .st3 {
        fill: #fcdf75;
      }

      .st4 {
        fill: #f5bd31;
      }
    </style>
  </defs>
  <path class="st3" d="M917.3,495l20.9,22.2,49.6,53.7c24.3,24.2,51.4,44,82.6,58.4l32.2,12c27.3,7.9,45.1,31.5,45.1,60.2,0,17.2-4,33-10.6,49.1l-57.5,139c-11.8,28.5-25.5,54.8-41.1,81.2-24.4,41.2-61.1,66.7-105.3,83.9-22.5,8.7-45.2,13.6-68.1,19,0-.9-.5-1.3-1.4-1.3-56.1,2.9-109.1-17.5-149.4-56.3-37.6-36.1-62.4-81.2-84.5-127.7.5-.9.7-2.2.9-3.3,14.2-32.5,26.5-65.3,36.9-100,14.6-48.8,26.7-96.9,38.7-146.4,9.3-38.6,18.6-75.8,31.7-113.2,7.8-22.2,20.4-41.7,40.4-54.3,25.2-15.9,55.7-17.9,83.9-8.9,17.9,5.7,32.8,15.4,47.5,26.9l7.7,6ZM827.9,576.9l6.7-23.1c2-7-2.3-15-9.6-16.6l-19.8-4.4c-9.2-2-17.1,5-19.6,13.6l-6.4,21.6c-2.1,7.2,1,15.7,8.5,17.4l20.5,4.7c9,2.1,17-4,19.6-13.1ZM797.1,682.3l6.3-23.3c1.9-7.1-1.5-15.5-8.7-17.1l-19.5-4.5c-8.5-2-17.3,2.8-19.7,11.2l-7.5,26.6c-1.3,7.3,2.6,14.5,9.8,16l23,4.7c7.7-.4,14.1-5.4,16.3-13.5ZM745.9,800.9c9.5,2,18.1-3.6,20.6-12.5l6.6-23.6c2-7-1-14.1-7.4-17.3l-20.9-4.4c-6.8-1.4-16.2,1.7-18.2,8.8l-8.2,28.6c-2.2,7.5,2.5,15.2,10.1,16.8l17.4,3.6ZM736.2,894.9l6.8-25.1c2-7.3-2.8-14.6-10.1-16.3l-17.5-4.1c-8-1.9-17,2.9-19.3,11l-7.6,26.4c-2.7,9.3,4.6,16.3,13.4,17.9l18,3.1c7.5,1.3,14.1-4.9,16.2-12.7Z"/>
  <g>
    <path class="st2" d="M917.3,495l-7.7-6c-14.7-11.4-29.7-21.2-47.5-26.9-28.2-9-58.7-7-83.9,8.9-20,12.6-32.6,32.1-40.4,54.3-13.1,37.4-22.4,74.6-31.7,113.2-12,49.5-24.1,97.6-38.7,146.4-10.4,34.7-22.7,67.5-36.9,100-.7.3-1.9.2-2.5-1.1-14.8-33.5-26-67.4-37.3-102.3l-19.7-61.2c-4.9-15.3-13.9-28.9-24.9-40.5-11.3-12-24.7-20.1-39.3-27.7-23.3-12.2-45.3-25-66.8-39.2l-1.8-1.5c1.4-3,.3-5.6-.2-9.1l-17.5-113.2-20.4-162.1-4.7-59.4c-2.7-34.9,5.7-67.8,35.7-87.1,41.2-26.4,91.8-20.5,133.7,2.6l52.9,29.1c43.8,24.1,90.3,47.1,139.4,57.2,32.6,6.7,65,5,97-3.4,26.7-7,55.4-7.6,66.6,18.7,14.1,33.2,12.1,86.5,8.6,124.2l-12.2,85.9ZM496.1,301.2c9.6,0,14.5-9.6,14-18.1l-1.4-22.8c-.5-7.6-7.1-14.3-14.7-14.3h-24.8c-8.2,0-14.4,7.4-14.1,15.5l.9,24.8c.3,8.2,7.1,15.2,15.4,15.1l24.6-.2ZM501.9,408.7c6.9,0,15.3-5.1,14.9-12.2l-1.3-24.2c-.5-9.1-5.1-18.8-15-18.9h-23.9c-9.6-.1-15.1,8.6-14.2,17.6l2.5,26c.7,7.5,9.3,11.7,16.6,11.7h20.4ZM515,514.5c9.2,0,13.2-9.6,12.3-17.4l-2.7-23.1c-.8-6.9-7-13.8-14.3-13.8h-24.3c-8.8.2-13.9,8.5-13,16.8l2.7,25.1c.7,6.3,6.8,12.6,13.4,12.5h25.9ZM529,620.6c5.5-1.9,11.9-6.9,11.1-12.7l-3.7-29.9c-.7-6-7.7-11.9-13.6-11.9h-22.3c-9.2,0-15.5,7.9-14.3,16.7l2.9,21.5c1.1,8,5.8,14.7,13.9,16.3h25.9Z"/>
    <g>
      <path class="st4" d="M438.2,611.5l1.8,1.5c13.3,80.2,28.9,159.6,48.3,239.1,12.4,51.1,26.4,100.7,44,150,1.5,4.3,2.8,7.7,5.1,10.8,0,.8,0,1.7.4,2.4-56.9,41.3-143.5,54.8-212.8,47.1-26.8-3-51.7-10.3-74.9-23.5-49.5-28-69.7-79.3-82.7-133-18.8-77.6-34.6-154.8-48.5-233.5-6.7-37.7-16.5-98-13-132.3,2.5-25.4,15.7-46.8,37.8-59.5,43.3-24.9,96.7-8.3,138.4,15.9s47.1,31.7,69.8,49.9c28.5,22.9,56.5,45.1,86.4,65.2ZM203.5,603.8c9.5,0,14.3-8.7,13.6-17.1l-1.8-20.3c-.7-8.5-6.1-16.8-15.1-16.8h-24.4c-8.6,1.4-13.7,8.3-12.9,17l2.5,25c2,6.7,7.6,12.4,14.9,12.4h23ZM214,708.5c8.6.1,16.3-6.5,15.2-14.5l-3.4-24.1c-1.1-8-6.7-15.1-15.1-15.1h-22.6c-9.7-.1-14.3,8.8-12.9,17.8l3.7,24.6c.9,5.8,7.4,11,13.3,11.1l21.9.3ZM232.7,811.8c8.2,0,13.2-7.5,12.1-14.6l-3.4-22c-1.3-8.6-6.5-16.5-15.9-16.5h-22.4c-8.3,0-13.8,7.7-12.4,15.8l4.4,26c1,5.8,6.9,11.2,12.9,11.3h24.6ZM250.4,915.6c5.5,0,9.5-2.4,11.6-5.9s2.5-7.4,1.7-11.8l-4-21.3c-1.3-6.7-6.6-13.9-13.7-14l-23.5-.3c-8.2-.1-14.1,7.5-12.6,15.3l4.5,23.2c1.4,7.3,6.1,14.5,14,14.6l22,.2Z"/>
      <path class="st0" d="M629.6,888.3c22,46.5,46.9,91.5,84.5,127.7,40.3,38.8,93.3,59.2,149.4,56.3,1,0,1.4.3,1.4,1.3-69,16.1-166.3,24.1-235.8,9.7-43.1-9-73.1-28.6-91.4-68s-.4-1.6-.4-2.4c4.8-.6,8.1-5,12-7.9,20.5-15.2,48.3-55.9,61-80.2l19.1-36.5Z"/>
      <path class="st1" d="M630.5,885c-.2,1.1-.4,2.4-.9,3.3l-19.1,36.5c-12.7,24.2-40.5,65-61,80.2-3.9,2.9-7.2,7.3-12,7.9-2.3-3.1-3.6-6.5-5.1-10.8-17.6-49.2-31.5-98.9-44-150-19.4-79.5-35-158.9-48.3-239.1,21.4,14.1,43.4,27,66.8,39.2,14.6,7.6,27.9,15.6,39.3,27.7,11,11.7,19.9,25.2,24.9,40.5l19.7,61.2c11.3,34.9,22.5,68.9,37.3,102.3.6,1.3,1.8,1.4,2.5,1.1Z"/>
    </g>
  </g>
</svg>